<svg xmlns="http://www.w3.org/2000/svg" width="663" height="431" fill="none"><g clip-path="url(#a)"><path fill="#8DABAC" d="m415.503 279.847-1.667-67.577s-14.439-46.489-24.074-62.156c-9.631-15.666-28.206-46.03-28.206-46.03s46.456 146.144 47.27 174.647l-11.255-27.437-30.62-58.685s-25.263-37.488-40.101-41.575l14.834 27.03 32.132 53.686 25.77 42.04-35.197-36.729s-40.954-35.989-65.106-41.502L328.03 221.2l64.801 60.405 22.309 22.941.109 5.926-18.845-15.938-57.928-34.596s-33.265-13.101-63.267-8.844l44.312 20.126 43.955 16.455 40.749 20.436 11.446 7.468 2.733 20.799s-14.228-11.04-28.957-16.441c-14.634-5.386-64.017-17.818-64.017-17.818l-38.858-1.959-11.42 1.39s5.411 3.976 10.871 5.191c5.46 1.215 34.061 7.892 34.061 7.892s45.949 11.9 52.822 14.766c6.877 2.863 30.315 13.03 30.315 13.03l16.37 2.511 4.865 23.789s-26.516-9.402-33.695-12.692c-7.27-3.305-42.58-14.53-42.58-14.53l-34.992-1.844-34.77-.858-16.971 1.399s6.292 3.628 17.562 6.216c11.268 2.584 49.059 11.522 49.059 11.522s20.966 6.358 29.249 8.484c8.285 2.13 47.854 5.532 47.854 5.532l18.72 1.064 5.231 22.033s-7.307-2.45-18.96-5.571c-11.558-3.107-47.214-12.099-47.214-12.099l-29.474-3.376-30.039 2.057-39.629 8.489 20.171 3.094s1.648.73 19.356 2.969c17.712 2.242 37.978 2.305 44.923 4.7 6.945 2.396 48.774 7.959 48.774 7.959l34.705-1.723 1.175 9.227-14.88 1.049-30.688 1.483-22.036.617-42.887 9.801s-32.756 11.35-35.054 15.473l23.515 3.607 49.883-5.297 28.595-6.561 35.62-13.105 9.297.949.955 7.666-20.596 7.507s-24.867 11.231-38.065 21.206c-13.197 9.971-44.699 36.085-44.699 36.085l22.331-4.951s9.318 1.429 26.066-12.384c16.744-13.807 36.166-28.158 36.166-28.158l18.143-14.456s3.815 25.822 4.154 32.061c.338 6.242 1.33 89.713 1.33 89.713l.086 24.768 4.552 9.556 3.584-3.451.559-51.332-7.273-90.147 25.768 17.286 32.721 11.205 39.726 4.189-34.295-15.448s-25.661-14.983-36.664-16.285c-11.013-1.215-27.498-6.03-27.498-6.03l.599-3.905 22.019 2.522 27.683-.615 61.18-8.328 37.153-12.87s-20.748-5.368-32.201-3.127c-11.542 2.231-53.812 8.603-53.812 8.603l-29.981 4.733s-32.876 4.856-34.483 1.468l.018-6.754 18.168-.737 64.857-18.43 26.441-15.464 23.751-17.211 30.788-21.462-37.37 10.646-45.463 18.738-34.696 18.577-32.743 16.687-14.733 6.12-.805-11.645 35.909-18.013 53.958-28.86 37.377-22.167 36.467-35.539-38.882 18.698-51.979 26.21-47.556 34.795-25.673 21.295-2.229-19.862 16.091-5.912 22.298-10.765 40.496-31.025 39.229-31.211 36.654-42.179-59.03 40.177-37.094 25.734-39.354 32.052-20.332 17.257-2.798-11.955 38.074-27.291 51.543-43.897 22.75-30.601 24.07-36.204-35.736 27.75-41.968 43.65-42.533 41.274-18.742 18.361-3.803-17.436 21.467-16.227 41.409-42.399 24.453-35.675 22.801-50.869 6.412-11.016-24.138 28.195s-37.683 46.494-45.13 58.207c-7.352 11.727-24.083 30.87-24.083 30.87l-23.421 34.974-3.275-20.878 23.824-26.15 28.183-43.098 28.993-62.874s12.058-30.904 13.523-32.013c1.466-1.109-19.754 16.49-19.754 16.49l-26.659 44.661-36.441 74.588-11.939 21.69-2.27-10.536 14.999-24.744 22.63-66.04 14.395-46.164 20.693-41.961-29.079 29.631-24.934 53.305-16.965 59.863-5.095 18.738z"/></g><g clip-path="url(#b)"><path fill="#8DABAC" d="M26.646 396.974c.135 4.438 6.309 9.517 11.207 9.461-3.217-3.972-7.768-5.697-11.207-9.461zM42.917 392c.576.431 1.294 1.117 2.077.427.784-.688.261-1.48-.195-2.146-2.827-4.02-6.376-7.391-9.796-10.83-.34-.311-.783-.65-1.292-.366-.472.348-.352.867-.167 1.345.362.801.854 1.532 1.28 2.296 2.278 3.49 4.936 6.606 8.093 9.274zm30.854 25.07c2.238.425 5.784 1.539 6.483-.353.727-1.993-2.896-2.649-4.678-3.744-1.879-1.123-4.047-1.417-6.207-1.55-1.702-.053-2.354.727-1.592 2.391 1.435 2.125 3.654 2.807 5.994 3.256zm42.431-80.29c-.547-2.038-2.469-1.884-4.133-1.874-2.908.03-5.492 1.389-7.912 2.738-1.147.64-2.336 1.804-1.646 3.339.59 1.509 2.228 1.598 3.523 1.377 2.594-.444 5.187-.888 7.828-2.441.785-.688 2.925-1.045 2.34-3.139zm-32.471 34.638c1.35 2.423 3.634 2.322 5.955 1.694a10.67 10.67 0 0 0 4.707-2.793c2.097-2.086 1.355-4.764-1.525-5.582-2.18-.619-4.214-.071-5.965.986-2.901 1.536-4.202 3.849-3.172 5.695zm-26.122 3.035c1.267.627 2.773 1.379 3.91-.176.983-1.384 1.074-3.018.002-4.344-2.353-2.866-4.795-5.601-7.987-7.579-1.239-.728-2.723-1.739-3.977-.539-1.25 1.197.05 2.481.56 3.696.257.612.676 1.211.995 1.785 1.566 2.807 3.387 5.63 6.497 7.157zm16.061-23.324c2.223 1.435 3.657.717 3.904-1.841.407-4.655-1.142-8.636-4.456-11.884-1.166-1.192-2.568-1.909-4.195-1.087-1.76.896-1.486 2.582-1.384 4.113.16 2.084 1.507 3.753 2.438 5.574 1.094 1.811 1.843 3.901 3.693 5.125zm-.543 43.662c.293 2.176 3.113 2.443 5.028 2.878 4.09.892 8.27.902 12.492.386 1.235-.184 2.62-.54 3.017-1.929.458-1.427-.565-2.363-1.422-3.304-4.153-4.449-9.676-5.215-15.346-2.055-1.557.953-4.164 1.821-3.769 4.024zm14.69 83.125c6.791 2.897 13.388 6.488 21.014 6.83 1.012.018 2.356.776 2.92-.459.415-.902-.571-1.771-1.224-2.493-6.459-7.091-12.035-14.843-18.177-22.113-1.689-1.984-3.508-3.891-5.919-5.222-3.48-1.902-6.292-.5-6.705 3.403-.57 5.416 1.35 10.358 3.092 14.235 1.568 2.965 2.836 4.936 4.998 5.819zm109.968-135.49c-15.53 6.153-31.748 9.425-48.19 11.992-4.052.675-8.034 1.47-12.078 2.305-7.764 1.657-15.473 3.115-23.487 2.819-1.702-.054-3.486.189-5.274.431-1.294.224-2.549.67-2.773 2.217-.226 1.544.606 2.587 1.912 3.277 6.054 3.226 12.423 4.605 19.271 3.709 7.596-1.059 14.835-3.506 22.09-5.631 10.057-2.932 19.34-7.857 29.038-11.59 13.127-5.063 26.309-9.737 39.245-15.446-6.964.541-13.4 3.377-19.754 5.917zm-249.198 137.16c7.668-4.525 15.983-7.738 24.154-11.209 6.893-2.922 13.989-5.625 20.234-9.855 3.515-2.379 7.077-4.534 10.887-6.238 8.129-3.699 15.875-7.932 23.757-12.073 7.879-4.141 12.694-11.087 18.288-17.381.405-.477.892-1.249.247-1.81-.745-.584-1.296.225-1.735.635-2.002 1.952-4.07 3.941-6.034 5.954-4.52 4.778-9.105 9.588-15.476 11.799-15.95 5.55-32.167 8.073-48.952 4.481-6.53-1.37-12.487-3.814-17.37-8.527-2.696-2.589-3.324-5.665-1.835-8.835.326-.764.72-1.404 1.673-1.349 1.111.051 1.474.847 1.516 1.826.066.715-.066 1.377.059 2.056.51 2.556 1.434 4.966 4.312 5.785 11.323 3.377 21.092-.227 30.27-6.684 1.87-1.292 1.606-2.815-.584-3.598-1.064-.409-2.277-.488-3.453-.502a231.902 231.902 0 0 0-10.568-.372c-6.992-.111-14.01-1.463-21.059.128-2.296.528-4.302-.527-5.688-2.26-7.317-9.374-13.193-19.464-13.845-31.715-.313-6.257-1.753-12.137-3.555-18.066a557.924 557.924 0 0 1-3.329-11.513c-.307-1-.88-2.18.292-2.919 1.305-.812 2.197.194 2.957 1.108.412.44.696.949 1.044 1.422 8.58 11.342 18.708 20.818 31.899 26.495 9.424 4.023 18.995 7.709 28.914 10.365 3.835 1.038 7.726 1.124 11.617.457.97-.202 2.082-.158 2.359-1.314.307-1.089-.38-1.877-1.225-2.493-1.454-1.109-2.945-2.282-4.582-3.123-11.382-6.187-23.404-11.267-34.824-17.515-12.157-6.673-25.155-11.706-37.07-18.849-2.621-1.548-5.235-3.097-6.673-5.972-6.726-13.709-6.777-27.882-2.229-42.199.568-1.823.985-4.226 3.222-4.555 2.177-.293 3.25 1.784 4.43 3.299 6.725 8.611 14.345 16.145 24.12 21.39 5.255 2.832 10.208 6.171 14.912 9.816 12.963 10.066 25.835 20.267 38.799 30.333a76.208 76.208 0 0 0 4.995 3.567c1.447.943 2.806.69 3.891-.667.954-1.283.349-2.367-.608-3.337-1.302-1.278-2.635-2.624-4-3.871-11.444-10.493-22.701-21.094-34.396-31.284-13.939-12.112-23.191-27.504-32.032-43.213-1.882-3.375-2.797-6.961-1.704-10.993 1.316-4.83 3.874-8.931 7.038-12.699 6.11-7.163 13.493-12.951 20.803-18.865 3.497-2.867 7.483-5.008 11.545-6.855.992-.469 2.43-1.186 3.086.287.585 1.346-.835 1.799-1.761 2.234-2.555 1.259-3.182 3.28-3.096 5.985.16 6.427 2.48 12.237 4.736 18.082 8.142 21.19 18.264 41.445 31.35 59.964 6.246 8.803 13.931 16.297 21.524 23.926 1.128 1.125 2.57 2.661 4.316 1.603 1.594-.889.438-2.665.472-4.103.027-.851-.309-1.75-.67-2.551-5.536-11.87-12.403-22.996-19.249-34.217-6.555-10.713-14.04-20.992-18.18-33.056-1.95-5.596-5.252-10.773-6.142-16.709-1.468-10.126-2.42-20.371-2.95-30.605-.244-4.041 1.444-7.152 5.025-8.817 5.469-2.628 10.721-5.638 16.374-7.79 3.37-1.293 6.822-2.296 10.505-2.43 1.402-.03 2.784.202 3.375 1.71.59 1.509-.379 2.466-1.526 3.106-1.622.989-2.47 2.463-3.145 4.092-3.122 7.59-4.01 15.435-3.314 23.568.779 9.339 5.263 17.534 7.88 26.269.194.647.492 1.479 1.447 1.698.856-1.313.435-2.663.214-3.958-.895-5.351-.908-10.774.157-16.046.823-4.22 1.166-8.25-.393-12.395-.372-.964-1.019-2.276.326-2.856 1.349-.583 2.495.278 3.198 1.393 1.195 1.839 1.49 4.013 1.974 6.083 4.065 15.531 7.966 31.065 12.866 46.296 3.911 12.103 8.91 23.769 15.45 34.744 2.365 3.946 6.037 5.741 9.488 4.735 4.159-1.232 6.018-4.188 5.755-9.305-.292-5.017-1.329-9.87-2.653-14.643-3.957-13.837-7.812-27.643-10.052-41.849-1.52-9.763-1.834-19.611-2.475-29.451-.9-13.449.566-26.545 5.146-39.457 2.984-8.431 8.554-12.372 16.752-13.852 11.923-2.134 23.984-3.427 36.137-3.35.85.024 2.01-.287 2.225.845.223 1.298-1.038 1.581-1.946 1.756-3.144.5-5.957 1.898-8.484 3.808-5.584 4.365-9.714 9.843-12.693 16.183-2.684 5.673-5.304 11.308-8.023 16.92-1.85 3.872-3.602 7.773-4.488 12.025-1.794 8.769-.46 17.302 1.849 25.788 1.88 6.968 4.056 13.864 5.357 20.989.921 5.252 3.326 10.008 6.776 14.101 1.689 1.984 2.767 1.968 4.339-.161 1.632-2.162 2.203-4.739 2.67-7.338 1.645-9.188 1.65-18.463 1.919-27.72.162-5.855.321-11.709 2.127-17.31 3.426-10.932 7.051-21.809 10.639-32.746 1.179-3.582 2.86-6.858 4.776-10.016 3.278-5.5 7.589-9.159 14.571-7.872.361.053.752.001 1.176.015 3.925.148 7.788.334 11.717.483 1.275.04 2.471.545 2.505 1.948.007 1.665-1.381 1.271-2.466 1.121-1.745-.28-3.324.184-4.718 1.127-6.159 3.934-9.935 9.296-11.068 16.698-1.188 7.762-2.769 15.414-7.705 21.838-.652.78-.87 1.738-.888 2.75 0 5.847 1.299 11.474 4.016 16.645 1.143 2.2 2.192 2.285 3.563.099a112.471 112.471 0 0 0 5.576-9.625c3.122-6.084 6.146-12.198 10.511-17.553 3.099-3.731 5.415-8.116 7-12.761a24.034 24.034 0 0 1 3.132-5.92c2-2.703 3.998-3.316 7.182-2.25 5.411 1.912 10.883 3.791 16.238 5.901 4.318 1.605 8.05 3.952 9.573 8.784a6.333 6.333 0 0 0 2.673 3.439c2.792 1.869 2.705 4.257 1.32 6.867-3.333 6.452-7.713 12.235-12.43 17.705-8.173 9.316-18.214 16.166-28.848 22.264-3.916 2.267-8.044 4.148-11.263 7.361-1.126 1.133-3.468 2.022-2.71 3.684.904 1.92 3.285 1.094 5.069.851 10.225-1.438 19.508-5.611 28.472-10.357 8.963-4.746 17.394-10.448 25.3-16.944a112.09 112.09 0 0 0 9.061-8.311c4.687-4.783 3.14-10.102-3.284-12.036-.632-.234-1.318-.268-2.014-.465-.893-.254-2.373.236-2.173-1.209.128-1.409 1.611-1.149 2.659-1.066 6.642.224 11.42 3.407 14.968 8.864 3.055 4.732 4.049 10.11 5.107 15.451.885 4.435 1.105 8.575-3.17 11.541-.602.42-1.027 1.158-1.485 1.83-3.163 5.27-7.476 9.516-12.001 13.538-7.498 6.773-15.524 12.75-25.343 15.969-8.272 2.689-16.394 5.798-24.669 8.488-12.773 4.199-25.888 7.498-38.139 13.241-3.838 1.804-7.683 3.447-10.022 7.34-1.705 2.789-.821 4.971 2.313 5.648 2.472.541 4.854.466 7.164-.487 4.299-1.726 8.689-2.839 13.261-3.631 2.139-.36 4.207-.842 6.191-1.783 15.011-6.779 29.546-14.716 44.203-22.136 6.644-3.368 13.364-6.447 20.56-8.37 5.389-1.417 10.904-2.317 16.221-3.863 4.74-1.39 9.224-3.385 11.043-8.661.316-.928.365-2.042 1.668-2.098 1.177.011 1.609.938 2.107 1.832 2.153 3.563 3.469 7.423 4.243 11.501 1.6 8.716 1.472 17.474.692 26.264-.226 2.885-1.575 4.808-4.49 5.428-2.358.563-3.072 2.129-2.941 4.314.058.553.251 1.197.147 1.756-1.753 11.837-3.634 23.747-5.352 35.646-.525 3.552-2.221 5.75-5.453 7.302-12.85 6.161-25.419 12.832-38.924 17.521-5.593 1.95-11.076 4.255-17.007 5.306-14.162 2.461-28.463 1.831-42.685 2.24-7.893.223-15.827-.368-23.733.282-.781.1-2.013-.466-2.251.753-.186 1.021.878 1.43 1.588 1.956 2.192 1.533 4.739 2.202 7.312 2.772 13.448 2.696 26.974 2.089 40.494 2.072 13.098-.033 25.999-2.963 39.041-4.136 10.835-.946 21.228-2.982 30.238-9.588.95-.696 2.161-1.371 3.189-.275.858.944.22 2.047-.156 3.012-6.137 14.613-13.503 28.666-23.193 41.248-7.431 9.741-17.688 14.122-29.715 13.223-10.452-.772-20.52-3.849-30.551-6.859-8.609-2.554-16.937-6.098-25.591-8.291-5.65-1.444-11.097-3.422-16.492-5.763-2.865-1.24-5.647-2.78-8.857-2.998-.85-.027-1.944-.335-2.357.562-.39.803.582 1.348 1.067 1.914.963 1.132 2.242 1.926 3.57 2.519 14.654 6.199 27.214 15.992 40.896 23.903 9.527 5.55 19.335 9.355 30.59 7.675 2.921-.457 5.844-.753 8.739-1.111 1.265-.123 2.703-.088 3.287 1.255.691 1.538-.585 2.249-1.661 3.015-2.406 1.68-4.604 3.572-6.395 5.904-7.771 10.182-17.659 17.617-29.423 22.587-7.308 3.069-14.959 4.328-22.031.335-4.662-2.666-8.16-2.053-12.216.709-5.99 4.091-12.81 5.638-19.865 4.225-10.874-2.123-21.353-5.639-31.071-11.082-5.73-3.238-11.754-6.397-14.506-13.136-1.436-3.625-3.001-7.18-3.893-11.026-.771-3.332-.657-6.571.635-9.796 1.023-2.659 1.945-5.347 3.111-8.502-.764.426-1.116.541-1.402.782-12.385 9.243-25.787 16.964-39.27 24.396-10.931 6.013-22.033 11.866-32.962 17.878-4.334 2.416-8.847 4.512-13.324 6.672-2.04-4.709-4.599-9.299-7.194-13.953z"/></g><g clip-path="url(#c)"><path fill="#728989" d="M122.682 64.825c13.839 6.887 24.665 71.727 4.588 126.463-.472 1.291-1.722 1.937-2.989 1.564a89.69 89.69 0 0 0-8.724-2.111c-3.037-.574-4.132 3.958-1.388 5.745a88.246 88.246 0 0 1 7.002 5.069c.992.799 1.513 2.16 1.284 3.42-1.21 6.75-5.277 28.482-9.543 41.03-5.098 14.994-8.927 33.602-14.071 43.538-5.15 9.933-8.977 28.546-12.904 37.034-2.904 6.274-6.573 11.705-8.292 14.118a2.355 2.355 0 0 1-2.527.943l-1.557-.385c-3.001-.738-4.295 3.671-1.65 5.621 1.043.769 1.598 2.158 1.377 3.453-1.034 6.085-4.16 23.446-7.477 32.069-4.059 10.57-9.742 28.814-15.658 39.021-5.918 10.203-6.768 17.611-15.26 32.782-8.489 15.17-6.45 18.514-20.006 36.483-13.556 17.965-23.95 27.71-42.989 37.441-19.038 9.731-36.873.761-46.451 15.298-9.574 14.537-3.893-3.712-8.206-18.446-4.314-14.738-23.602-30.312-28.516-59.054-4.915-28.746-1.959-57.207.432-65.156 2.388-7.953 14.79-48.87 18.768-52.302l3.296-2.834c.44-.384 1-.58 1.585-.57l17.318.449c2.885.075 3.51-4.315.838-5.875l-17.033-9.945c-1.507-.876-2.145-2.971-1.369-4.507 3.22-6.343 10.902-21.207 13.415-23.683 3.21-3.158 7.222-18.786 12.77-34.957 5.548-16.168 19.47-28.167 28.597-41.531 7.572-11.087 17.45-25.78 20.587-30.459.618-.92 1.676-1.287 2.728-.963l16.847 5.257c2.807.874 4.42-2.962 2.203-5.237l-11.914-12.18c-1.334-1.364-1.372-3.638-.09-4.772 3.162-2.815 8.997-8.951 16.171-20.803 10.93-18.058 19.204-24.013 27.826-41.26C50.326 97.345 58.918 92.298 68.41 84.9c9.493-7.399 21.612-14.7 32.376-18.48 10.763-3.78 13.523-5.764 21.896-1.595z"/><path fill="#728989" d="M-75.507 540.707c-9.574 14.536-2.94-.998-7.252-15.732-4.314-14.738-23.602-30.312-28.516-59.054-4.915-28.746-1.959-57.207.432-65.156 2.388-7.953 14.79-48.871 18.768-52.302l3.296-2.834c.44-.384 1-.58 1.585-.57l17.318.449c2.885.075 3.51-4.315.838-5.875l-17.033-9.945c-1.507-.876-2.145-2.971-1.369-4.507 3.22-6.343 10.902-21.207 13.415-23.683 3.21-3.158 7.222-18.786 12.77-34.957 5.548-16.168 19.47-28.167 28.597-41.531 7.572-11.087 17.45-25.78 20.587-30.459.618-.92 1.676-1.287 2.728-.963l16.847 5.257c2.807.874 4.42-2.962 2.203-5.237l-11.914-12.18c-1.334-1.364-1.372-3.638-.09-4.772 3.162-2.815 8.997-8.951 16.171-20.803 10.93-18.058 19.204-24.013 27.826-41.26C50.326 97.345 58.918 92.298 68.41 84.9c9.493-7.399 21.612-14.7 32.376-18.48 10.763-3.78 13.523-5.764 21.896-1.595 0 0-69.37 123.393-112.188 240.002-42.821 116.609-86 235.88-86 235.88z"/><path fill="#8DABAC" d="M105.845 90.394 86.905 77.21l-.383.791 18.939 13.18.384-.787zM-56.327 470.886c-10.57-16.959-54.875-50.729-55.322-51.068l-.411.764c.442.337 44.606 34.004 55.073 50.793l.66-.489zM88.108 130.457c5.121 1.081 21.567 5.207 42.725 16.965l-.302.841c-21.561-11.984-38.19-15.995-42.825-16.948-3.463 7.361-6.697 14.6-9.363 21.195-3.885 9.608-7.596 18.034-11.22 25.971 5.985 1.54 23.642 6.936 46.823 21.616l-.35.816c-23.505-14.892-41.255-20.172-46.86-21.584-6.185 13.511-12.115 25.647-18.186 39.739 7.753 1.557 36.477 8.214 64.758 25.943l-.346.815c-28.553-17.9-57.563-24.461-64.787-25.892a503.163 503.163 0 0 0-7.256 17.833c-3.298 8.589-6.57 16.742-9.811 24.714 9.395 2.776 41.558 12.965 64.944 28.473l-.366.804C72.212 276.189 39.826 266 30.764 263.327c-7.097 17.442-14.04 34.021-20.772 52.156 7.752 2.766 33.698 12.291 54.065 22.976l-.284.848c-20.457-10.731-46.556-20.29-54.092-22.975a682.714 682.714 0 0 0-5.178 14.466A2176.127 2176.127 0 0 1-8.502 367.51c8.684 3.219 41.325 15.803 65.357 31.561l-.361.807c-24.06-15.781-56.819-28.379-65.302-31.517-6.995 19.156-14.25 38.072-21.197 54.694.145.146.251.26.326.34 2.31.263 32.072 3.915 68.284 19.892l-.231.876c-37.4-16.502-67.891-19.819-68.194-19.846l-.002-.473-.266.333a16.376 16.376 0 0 1-.269-.278 721.144 721.144 0 0 1-2.731 6.434 1165.376 1165.376 0 0 0-17.3 42.427c5.161 1.686 30.131 10.41 53.327 28.415l-.42.758c-23.346-18.117-48.512-26.8-53.236-28.328a1107.78 1107.78 0 0 0-15.31 42.444c-9.745 28.815-26.494 67.2-27.396 69.546-.9 2.351-8.724 7.129-8.004 1.796.717-5.331 37.32-95.379 49.504-127.081 6.31-16.416 12.195-29.413 17.109-40.917-12.395-12.405-46.049-45.103-63.255-52.314l.218-.881c17.276 7.233 50.84 39.806 63.395 52.358 4.411-10.367 8.01-19.545 10.376-28.964 2.148-8.539 5.474-17.303 9.307-26.447-8.69-9.863-32.043-34.54-61.982-51.673l.313-.832c29.82 17.061 53.133 41.578 62.03 51.643 5.1-12.101 11.054-24.88 16.375-38.717a985.587 985.587 0 0 1 3.942-10.101c-5.481-7.32-26.8-33.699-60.144-49.508l.252-.86c33.025 15.654 54.33 41.629 60.25 49.462 7.69-19.396 15.25-37.192 20.5-51.487-5.974-6.265-30.79-31.526-52.187-42.13l.268-.861c21.288 10.55 45.89 35.469 52.241 42.111.473-1.301.936-2.584 1.368-3.824 3.347-9.617 10.025-23.692 16.963-37.872-4.693-5.7-29.799-35.424-48.164-41.654l.163-.903c18.365 6.231 43.248 35.496 48.406 41.74 6.288-12.849 12.742-25.72 17.078-35.367.466-1.041 1.019-2.269 1.636-3.648-1.204-1.248-15.853-16.233-42.157-33.045l.355-.814c25.54 16.327 40.147 30.95 42.171 33.032 4.636-10.341 12.817-28.576 21.51-47.153l.003-.083-.26.33c-.194-.198-19.468-19.814-37.061-25.87l.166-.904c17.136 5.9 35.784 24.455 37.31 25.999.025.001.05.006.087.011 13.563-28.962 28.296-58.564 32.68-60.104 0 0-17.362 31.022-31.23 60.394z"/></g><path fill="#728989" d="M463.494 517.182s22.213-67.97 21.651-90.433c0 0-23.919-12.308-27.841-15.493-3.915-3.19-25.466-32.41-25.466-32.41s-19.5-57.361-18.267-62.835c0 0 20.201 12.083 31.279 25.581 11.086 13.5 22.245 24.853 22.245 24.853l16.919 36.646 8.453-55.459s-13.838-3.451-24.351-15.236c-10.517-11.791-25.967-32.595-25.967-32.595s-15.138-39.977-16.356-48.255l10.746 7.485 19.384 16.131 13.476 19.641 20.675 37.12s3.909-26.7 3.702-37.684l-22.397-23.806-14.055-23.568-13.848-37.607s-4.523-33.927-2.092-32.832c2.447 1.184 11.354 8.425 11.354 8.425s19.355 21.771 22.885 30.312c3.533 8.533 18.983 47.44 18.983 47.44l1.767-34.844s-11.843-20.814-15.253-34.921c-3.409-14.103-6.988-44.243-6.988-44.243l8.689-37.899 5.674-17.906s25.619 23.848 25.841 25.353c.221 1.501 4.231 15.946 5.671 25.729 1.44 9.779-.214 42.219-3.615 53.729-3.4 11.51-12.071 30.881-12.071 30.881l-.214 67.238s7.498-24.15 13.02-33.494c5.526-9.345 27.186-40.604 27.186-40.604s33.668-27.965 48.841-28.212l-12.223 38.931-14.132 29.128s-26.886 23.99-37.055 30a2945.724 2945.724 0 0 1-19.416 11.371l-6.875 32.089s3.756.477 8.933-4.805c5.183-5.284 9.162-12.866 19.956-21.014 10.808-8.069 32.985-19.842 32.985-19.842s27.817-8.068 27.091-3.95c-.726 4.121-7.662 26.226-7.662 26.226s-12.28 19.894-24.317 28.651c-12.036 8.758-42.085 17.151-42.085 17.151l-17.563.515-7.291 53.749s10.913-20.12 21.549-27.735c10.564-7.602 29.043-16.786 29.043-16.786s31.399-5.603 36.757-3.823l-11.242 23.755s-19.286 22.369-32.452 29.841c-13.17 7.469-28.816 17.269-44.666 15.561 0 0-2.853 27.491-6.18 39.503-3.326 12.015-17.003 50.644-17.003 50.644l-5.812-5.388z"/><path fill="#8DABAC" d="M532.123 397.787c-1.184-.598-2.531-.143-3.736.203-1.356.369-2.931.853-4.075 1.62-2.654 1.67-.992 6.039 2.057 4.907 1.332-.532 2.68-1.499 3.808-2.347.991-.744 2.276-1.612 2.561-2.852.146-.618-.018-1.19-.615-1.531zm23.276-19.282c-2.297 1.443-5.912 2.996-6.477 6.069-.255 1.487 1.057 2.408 2.221 2.325 1.404-.038 2.628-1.325 3.579-2.318.939-1.074 1.789-2.227 2.731-3.302.98-1.342-.619-3.671-2.054-2.774zm-9.561 10.19c-2.46 1.383-5.424 3.099-7.098 5.564-1.474 2.264 1.333 5.358 3.428 3.598.975-.825 1.826-1.974 2.792-2.886.951-.992 2.017-1.744 3.095-2.414 1.837-1.376-.19-5.012-2.217-3.862zm-.841-4.66c.469-1.093-.547-2.137-1.483-2.088-2.084.221-4.097 1.965-5.796 3.238-2.051 1.495-4.095 3.072-6.033 4.809-2.356 2.135.702 6.388 3.117 4.156 1.953-1.651 3.879-3.47 5.745-5.196 1.518-1.417 3.519-2.73 4.45-4.919zm-103.844-10.974c-.508-2.913-4.498-2.33-4.147.606.209 1.423.496 2.831.858 4.228.371 1.483.824 2.958 1.994 3.979 1.617 1.388 3.492-.252 3.441-2.211-.034-1.274-.807-2.269-1.211-3.41-.45-.955-.688-2.032-.935-3.192zm14.776 16.289-.024-.167c-1.241-3.66-3.471-7.092-5.445-10.39-.938-1.572-3.591-.417-3.152 1.484 1.046 3.947 2.007 8.331 4.084 11.785.616 1.022 2.164 1.396 3.188.901.078-.011.141-.104.22-.115.729-.365 1.398-1.146 1.416-2.086l-.025-.171c-.061-.416-.122-.836-.262-1.241zm-1.563-18.134c-1.19-1.705-3.515-.424-3.307 1.511.203 1.933.961 3.872 1.767 5.633.808 1.761 1.687 4.024 3.745 4.152.873.043 1.831-.354 2.156-1.339.716-2.071-.594-3.501-1.553-5.243-.999-1.475-1.808-3.236-2.808-4.714zm-10.389-6.678c-.557-1.118-1.11-2.229-1.746-3.332-.185-.743-.732-1.263-1.447-1.326-.792-.055-1.356.365-1.721 1.105-.633 1.543.374 3.616.902 5.076.667 1.865 1.459 4.057 2.96 5.204 1.427 1.158 3.43-.159 3.16-1.998-.186-1.765-1.261-3.232-2.108-4.729zm111.452-39.756c-1.389.712-2.555 1.823-3.762 2.686-1.273.953-2.811 1.69-3.89 2.872-1.764 1.878-.084 5.307 2.337 4.187 1.616-.752 2.978-2.143 4.189-3.519 1.146-1.276 2.264-2.718 2.879-4.432.388-1.081-.741-2.367-1.753-1.794zm-13.235 4.923c1.912-1.391 4.363-2.861 5.526-5.08.611-1.198-.085-2.717-1.403-2.612-2.556.203-4.999 2.267-7.061 3.68-1.066.752-1.106 2.636-.333 3.635.788 1.077 2.205 1.129 3.271.377zm21.965-22.339c-1.949 1.138-3.444 3.239-5 4.916-1.428 1.488-3.594 2.741-3.981 4.935-.181.88.684 1.437 1.31 1.433 2.018-.124 3.746-2.767 5.098-4.248 1.494-1.581 3.278-3.298 3.983-5.447.34-.904-.614-2.047-1.41-1.589zm-22.385 11.466c.89.724 2.054.641 2.9.005 3.239-2.522 6.562-4.973 9.991-7.266 1.498-.989-.107-3.404-1.594-2.841-4.087 1.534-7.794 3.525-11.426 6.021-.642.439-1.019 1.599-.833 2.342.201.825.428 1.304.962 1.739zm-79.125-16.12c-.889-.724-2.208-.103-2.355 1.027.024.167-.042.261-.017.428-.038.264-.001.516.098.669.207 1.936 1.037 3.864 1.704 5.729.883 2.266 1.413 4.834 3.286 6.352 1.171 1.029 3.091.236 3.167-1.4.101-2.493-1.238-4.688-2.273-6.925-1.011-2.073-1.915-4.503-3.61-5.88zm-12.165-19.319c-1.522-1.828-4.027.333-2.713 2.362a61.38 61.38 0 0 1 3.51 5.72c1.049 1.812 1.994 3.978 3.313 5.494 1.703 1.975 4.498.197 3.658-2.326-1.331-4.246-5.077-7.882-7.768-11.25zm1.449 14.135c-.642-1.698-4.168-1.695-3.559.865.761 3.047 2.201 5.911 4.053 8.373 2.041 2.693 5.87-.602 3.754-3.28-1.459-1.924-2.855-3.937-4.248-5.958zm69.717-20.167c1.867-1.722 3.259-3.978 4.41-6.283.362-.733.393-1.591-.181-2.278-.543-.517-1.512-.717-2.055-.125-.809.889-1.647 1.607-2.469 2.41-.822.8-1.734 1.536-2.556 2.335-.888.9-1.139 2.387-.276 3.457.708 1.096 2.152 1.31 3.127.484zm23.652-13.529c.153-.023.153-.023 0 0 .075-.011 0 0 0 0zm-.68.183c.153-.023.298-.127.448-.149l.063-.093c.311-.562.71-1.045 1.187-1.543.875-.982 1.85-1.808 2.726-2.79.942-1.075 2.876-.161 2.242 1.381-.399 1-.65 1.974-.978 2.963-.337.903-.765 1.732-1.189 2.565-.79 1.565-2.488 3.35-4.296 2.248-.852-.472-1.439-1.24-1.433-2.266-.057-.933.413-2.026 1.23-2.316zm-7.039-.935c.838-1.235 1.491-2.693 2.238-4.001.889-1.413 1.795-2.737 2.609-4.138.748-1.305-.477-3.772-2.057-2.774-1.576 1-2.8 2.287-4.072 3.752-1.136 1.365-2.439 3.176-3.048 4.889-.825 2.937 3.309 4.896 4.33 2.272zm19.193-26.801c-2.44 2.064-5.401 3.776-6.815 6.973-.944 2.1 1.741 3.845 3.297 2.68 2.389-1.886 3.633-5.145 5.555-7.559.992-1.257-.777-3.132-2.037-2.094zm1.685-16.301c-2.212 2.543-4.516 5.013-6.653 7.549-1.736 2.045-4.191 4.028-4.143 7.008.032.762.897 1.319 1.513 1.229 2.607-.381 4.072-3.753 5.567-5.85 1.947-2.762 3.717-5.666 5.498-8.488.915-1.242-.856-2.612-1.782-1.448zm-87.196 21.781c-1.126-2.311-4.203-.84-3.375 1.601.82 2.358 1.645 4.8 2.465 7.159.263.728 1.075 1.464 1.866 1.519.948.032 1.549-.139 2.13-.994.452-.666.608-1.714.257-2.516-1.122-2.311-2.233-4.54-3.343-6.769zm-11.081-9.23c-1.099-1.635-3.54-.08-2.719 1.767 1.451 3.458 2.679 7.036 4.127 10.499 1.2 2.812 4.853 1 3.963-1.861-1.191-3.842-3.255-7.211-5.371-10.405zm1.886-9.582c-.896-1.836-1.638-3.69-2.384-5.547-.627-1.616-3.201-.983-2.777.834.85 3.634 1.89 8.606 4.404 11.313 1.12 1.203 3.54.592 3.089-1.388-.508-1.892-1.536-3.537-2.332-5.212zm42.099-50.215c.602 1.961 3.163 1.246 3.452-.504.483-3.658-1.431-8.16-2.485-11.593-.465-1.553-2.945-.85-2.546.8.433 1.899.715 3.824.86 5.852.18 1.769.142 3.65.719 5.445zm-6.261 5.954c.516-3.408-.554-7.522-1.277-10.832-.46-2.066-3.224-1.663-2.992.437.18 1.769.347 3.452.451 5.229.093 1.694-.109 3.519.214 5.18.398 2.162 3.219 2.175 3.604-.014zm-9.221-20.604c1.249-1.119.808-2.509.654-4.107-.208-1.936-.246-3.809-.219-5.779.075-2.144-2.902-2.647-3.133-.48-.175 1.988-.277 3.969-.214 6.009.096 1.698-.008 3.672 1.677 4.454.431.279.969.2 1.235-.097zm6.031-7.541c-.642-1.698-.527-3.593-.557-5.384-.042-1.873.01-3.676.047-5.556.037-1.884 2.579-1.66 2.978-.01.337 1.746.669 3.489.927 5.247.246 1.672.666 3.489.364 5.154-.343 1.929-2.97 2.741-3.759.549z"/><defs><clipPath id="a"><path fill="#fff" d="M662.664 132.268 276.35 73.018l-73.214 477.23 386.314 59.25z"/></clipPath><clipPath id="b"><path fill="#fff" d="m171.522 121.585 152.936 272.239-326.725 183.5-152.935-272.24z"/></clipPath><clipPath id="c"><path fill="#fff" d="M-262.999 128.932 104.126 0 286.11 518.068-81.016 647z"/></clipPath></defs></svg>