<svg xmlns="http://www.w3.org/2000/svg" width="550" height="660" version="1.0" viewBox="0 0 412.5 495"><defs><clipPath id="a"><path d="M27.535 12.45h357.746V494.7H27.535zm0 0"/></clipPath></defs><g clip-path="url(#a)"><path fill="#8dabac" d="m234.227 187.973 12.554-68.223s22.504-44.867 35.063-59.246c12.554-14.379 36.793-42.262 36.793-42.262S246.78 159.122 241.37 187.88l16.133-26.055 41.336-54.71s32.355-34.063 48.488-35.9l-19.8 25.087-42.114 49.41L251.8 184.31l42.597-31.75s48.485-30.106 74.563-31.938l-34.094 21.516-77.27 51.14-26.945 19.782-1.062 5.988 22.21-13.223 65.97-26.054s36.8-8.106 67.418.87l-49.45 13.508-48.488 9.844-45.781 14.375-13.137 5.79-6.18 20.652s16.61-8.977 32.84-12.16c16.13-3.184 69.637-8.106 69.637-8.106l40.851 4.055 11.692 3.183s-6.281 3.188-12.172 3.57c-5.89.383-36.797 2.704-36.797 2.704s-49.84 4.918-57.469 6.754c-7.632 1.832-33.71 8.492-33.71 8.492h-17.481l-8.883 23.351s29.168-5.406 37.184-7.625c8.113-2.218 46.746-8.105 46.746-8.105l36.8 3.57 36.41 4.535 17.481 4.055s-7.144 2.7-19.316 3.57c-12.168.868-53.024 4.051-53.024 4.051s-22.89 3.184-31.87 4.05c-8.985.872-50.81-1.831-50.81-1.831l-19.698-1.832-8.985 21.515s8.016-1.347 20.672-2.699c12.555-1.351 51.191-4.922 51.191-4.922l31.29 1.16 31.007 6.754 39.985 14.762h-21.54s-1.835.485-20.667 0c-18.836-.48-39.989-3.566-47.618-2.219-7.628 1.348-52.156.485-52.156.485l-35.93-7.14-2.703 9.167 15.356 3.375 31.777 6.274 22.89 4.05 43.173 16.598s32.355 16.594 34.093 21.129H317.29l-51.191-13.121-28.782-11.094-35.062-18.816-9.852-.485-2.222 7.621 20.285 10.809s24.144 15.246 36.316 27.406c12.172 12.156 40.856 43.516 40.856 43.516l-22.504-8.488s-9.95 0-25.211-16.602C224.665 373.532 206.7 355.97 206.7 355.97l-16.614-17.47s-8.113 25.574-9.465 31.844c-1.351 6.273-15.746 90.707-15.746 90.707l-4.055 25.086-6.277 8.976-3.188-4.054 7.633-52.106 22.016-90.223-29.649 13.512-35.93 6.27-42.112-1.93 38.25-10.324s29.167-11.195 40.855-10.805c11.684.48 29.652-1.836 29.652-1.836v-4.05l-23.375-.868-28.78-4.926-62.493-17.949-36.7-18.816s22.505-2.215 34.094 1.836c11.684 4.054 54.762 17.082 54.762 17.082l30.52 9.457s33.52 10.031 35.738 6.847l1.062-6.847-18.835-3.57-64.711-28.758-25.11-19.782-22.023-21.132-28.684-26.536 37.281 16.598 44.43 26.055 33.223 24.219 31.488 22 14.39 8.492 2.704-11.676-34.578-23.836-51.672-37.633-35.446-28.273L37 179.867l37.57 24.992 50.032 34.641 44.043 42.652 23.375 25.57 5.503-19.78-15.84-8.493-21.538-14.375-37.282-37.734-35.93-37.727-31.488-48.441 55.153 49.89 34.578 31.844 35.926 38.598 18.449 20.648 4.832-11.68-35.352-33.574-46.746-52.496-18.836-34.547-19.316-40.43 32.84 33.677 36.797 50.757 37.765 48.438 16.613 21.52 6.758-17.079-19.797-19.781-36.414-49.402-19.8-39.953-15.645-55.094-4.926-12.16 20.668 32.324s31.871 52.973 37.766 66c5.793 13.027 20.183 35.027 20.183 35.027l18.836 39.082 6.758-20.648-20.668-30.203-22.504-48.055-20.183-68.223s-7.633-33.191-8.985-34.543c-1.351-1.351 17.97 19.782 17.97 19.782l20.663 49.402 26.078 81.25 8.985 23.836 4.054-10.324-11.687-27.407-13.04-70.441-7.628-49.02-14.871-45.738 25.594 34.547 17.48 57.895 8.117 63.3 2.317 19.782"/></g><path fill="#8dabac" d="M166.035 435.96c-1.062.583-1.16 2.028-1.351 3.09a15.88 15.88 0 0 0-.29 4.247c0 1.156 1.836 1.156 1.836 0 0-1.45.094-2.895.387-4.246.192-1.063.672-1.93.192-2.895-.293-.289-.579-.289-.774-.195zm-8.21 26.825c-.384.774-.384 1.738-.481 2.606-.098 1.062-.196 2.027-.29 3.09-.097.964 1.45.964 1.544 0 .097-.965.191-1.93.293-2.895.097-.871.289-1.836 0-2.606-.102-.484-.871-.675-1.067-.195zm-2.993 17.371c0-.386-.48-.676-.773-.289-1.157 1.445-.965 4.149-.676 5.887.094.867 1.351.48 1.258-.387-.098-.87-.196-1.836-.098-2.703.098-.867.383-1.637.289-2.508zm108.852-322.48c.964-.485 1.738-1.16 2.511-1.832 1.254-.965-.386-3.188-1.738-2.223-.871.676-1.64 1.258-2.32 2.024-.965 1.164.195 2.703 1.547 2.03zm70.605-74.203c1.156-.098 2.024-1.45 2.797-2.223.871-.867-.48-2.219-1.348-1.352-.773.774-2.129 1.645-2.222 2.801 0 .383.382.867.773.774zm-48.488 42.066c0 .871 1.062 1.738 1.93 1.066.68-.484.964-1.16 1.355-1.933.383-.578.773-1.156 1.258-1.734.48-.583.574-1.352 0-1.93-.485-.485-1.45-.582-1.934 0a16.583 16.583 0 0 0-1.547 2.12c-.484.677-1.062 1.544-1.062 2.411zm23.18-19.973c.87-.191 1.546-1.254 2.128-1.93.672-.773 1.543-1.347 2.414-1.929.868-.48.094-1.64-.773-1.254a14.151 14.151 0 0 0-2.898 1.738c-.774.579-1.934 1.543-1.836 2.602 0 .484.386.871.964.773zm-36.313 76.715c.773.48 1.543-.773.773-1.258-.68-.382-1.546-.574-2.128 0-.29.293-.094.774.289.965.293.098.675 0 1.066.293zm17.676-23.351c.867-.485 1.734-.871 2.699-1.254 1.062-.387.582-2.125-.484-1.738-1.059.386-2.024.773-2.989 1.253-.773.383-1.933.868-1.933 1.93 0 .29.191.484.484.582.774.285 1.543-.39 2.223-.773zm11.781 1.93c.676-.192 1.156-.583 1.738-.965.578-.391 1.16-.676 1.735-.965 1.066-.582.101-2.121-.965-1.64-1.156.483-2.7 1.155-3.473 2.315-.39.579.29 1.348.965 1.254zm51.863-32.715c.871-.676.102-2.215-.965-1.54-.773.48-1.449.575-2.316.672-.48.098-1.062.485-.965 1.063.578 1.734 3.473.484 4.246-.195zM305.406 198.3c1.067-.39.676-2.13-.48-1.738-1.258.289-2.512.382-3.766.382-1.355-.093-1.258 1.93 0 2.028a9.458 9.458 0 0 0 4.246-.672zm5.703-13.418h2.024c1.066 0 1.066-1.637 0-1.637-1.156 0-2.797-.387-3.672.383-.285.195-.285.773 0 .965.484.289.969.289 1.648.289zm24.723-3.86c1.356.293 1.836-1.738.582-2.023-.773-.195-1.547-.29-2.32-.48-.77-.2-1.352-.391-2.125 0-.578.19-.485.964-.192 1.347.48.582 1.254.582 1.93.676.773.191 1.45.289 2.125.48zm28.684 1.93c-.676-.094-1.45-.094-2.125-.191-.676-.098-1.254-.192-1.93.097-.484.192-.387.965 0 1.157.582.386 1.254.293 1.93.386.675 0 1.449.098 2.125.098 1.066.094 1.066-1.547 0-1.547zm-96.586 52.879c1.547-.098 1.547-2.41 0-2.41-1.157 0-2.606-.383-3.473.48-.39.387-.39 1.16 0 1.547.867.676 2.316.383 3.473.383zm94.656-3.762c-.969-.48-1.934-.867-2.899-1.062-.867-.192-2.027-.578-2.898-.29-.676.29-.867 1.157-.191 1.641.675.48 1.64.387 2.414.578.87.196 1.738.485 2.605.868 1.164.582 2.13-1.157.969-1.735zm-36.024 1.063c-.87-.094-1.164 1.156-.39 1.543 1.066.578 2.223.773 3.383 1.156 1.254.387 1.738-1.543.48-1.93-1.156-.382-2.316-.77-3.473-.77zm-20.671 1.93c-.774.19-1.543.386-2.414.48-.868 0-1.543-.094-2.317.484-.484.387-.39 1.157 0 1.446.676.675 1.64.582 2.606.484a12.438 12.438 0 0 0 2.707-.578c1.445-.578.867-2.8-.582-2.316zm-58.82 3.957c1.257-.391.773-2.32-.579-2.028-1.062.29-2.125.29-3.191.672-.77.293-.965 1.645 0 1.836 1.258.195 2.515-.098 3.77-.48zm122.566 34.445c-.965-.29-1.934-.578-2.899-.867-.578-.196-1.738-.48-2.027.386-.195.868.77 1.157 1.351 1.348.965.293 2.032.582 3.09.871 1.067.192 1.547-1.445.485-1.738zm-67.703-10.516c-1.258.094-1.258 2.024 0 2.024.77 0 1.449 0 2.12.195 1.16.289 1.645-1.45.485-1.832-.871-.293-1.738-.484-2.605-.387zm-30.332 3.953c-.29.485 0 .871.39 1.067.48.191.867 0 1.348-.098a4.12 4.12 0 0 1 1.547 0c.968.192 1.351-1.16.386-1.45-.964-.382-2.996-.773-3.671.481zm-7.434 14.188c1.348.195 2.027-1.934.578-2.125-1.547-.29-3.187-.774-4.828-.672-1.164 0-1.258 1.543-.29 1.93 1.446.48 2.993.578 4.54.867zm36.7-4.344c.675-.191 1.35-.285 2.03-.191 1.352.289 2.028-1.93.579-2.125-1.641-.29-4.73-.098-5.313 1.933-.191.48.29.965.774.965.675 0 1.351-.387 1.93-.582zm6.663 36.281c.68.102 1.258-.578 1.258-1.254 0-.773-.578-1.156-1.258-1.253-.867-.094-1.734-.192-2.605-.387-.871-.098-1.645-.29-2.418.195-.574.387-.672 1.156-.192 1.637.676.68 1.547.68 2.512.773.871.098 1.738.192 2.703.29zm41.727-1.445c-1.352-.484-2.703-1.062-4.059-1.547-.965-.383-1.449 1.16-.484 1.547 1.355.48 2.707 1.063 4.062 1.547.965.383 1.45-1.164.48-1.547zm-112.04.191c.677-.289 1.16-.867.872-1.64-.195-.578-.969-1.156-1.645-.867-.773.289-1.547.386-2.32.195-.77-.195-1.543-.582-2.316-.195-.29.097-.383.484-.48.77 0 1.16 1.35 1.835 2.316 2.026 1.253.196 2.511.098 3.574-.289zm45.2-13.316c.582 0 1.258 0 1.84.098.867.097.867-1.063.191-1.348-1.16-.484-2.8-.773-3.863.094-.29.289-.191.773.098.965.578.191 1.058.191 1.734.191zm-20.086 10.613c-1.738-.191-4.059-.867-5.508.293-.285.192-.191.578 0 .867.68.676 1.45.77 2.414.77 1.063.098 2.13.098 3.094.098 1.352 0 1.254-1.832 0-2.028zm62.008 54.328c-.871-.289-2.031-.773-2.899-.386-.484.195-.964.965-.386 1.449.675.578 1.547.578 2.414.867.965.29 1.738.676 2.61 1.254 1.058.676 1.933-.965.964-1.637-.773-.675-1.738-1.16-2.703-1.547zm-46.266-9.843c-1.16-.192-3.09-.77-3.863.386-.195.196-.098.579 0 .774.578 1.156 2.61.87 3.668.965 1.16.097 1.45-1.93.195-2.125zm-18.547-16.985c-.289.871.582 1.547 1.16 1.93.774.484 1.836.68 2.805.773.774.098 1.543-.191 1.738-.964.192-.672-.195-1.637-.964-1.739-.871-.191-1.743-.48-2.614-.672-.675-.195-1.832-.293-2.125.672zm-27.043 2.703c-1.156-1.058-2.605-1.832-3.957-2.703-1.16-.765-2.222 1.067-1.062 1.836 1.254.774 2.414 1.832 3.765 2.414 1.063.48 2.223-.675 1.254-1.547zm27.817 60.891c-.578-.484-1.547-.098-1.93.48-.387.676-.098 1.45.484 1.93.579.387 1.063.774 1.641 1.063 1.254.675 2.703-.965 1.547-2.028-.39-.578-1.066-.964-1.742-1.445zm-33.223-38.887c1.543 1.063 2.899 2.508 4.54 3.473.675.484 1.737-.48 1.257-1.254-1.164-1.64-3.094-2.8-4.734-3.957-1.16-.578-2.125 1.063-1.063 1.738zm10.719 21.325c-1.059-.965-2.125-2.028-3.188-2.993-1.351-1.254-3.28.676-2.027 2.028 1.063 1.058 2.027 2.12 3.09 3.09 1.066 1.058 1.933 2.023 3.285 2.699 1.063.484 2.125-.48 1.547-1.543-.582-1.352-1.64-2.317-2.707-3.281zm-28.3-28.563c-.677-1.254-2.606-.098-1.833 1.063.29.484.676 1.058.965 1.543.293.48.582 1.062 1.16 1.253a.854.854 0 0 0 1.254-.773c0-.672-.29-1.059-.578-1.64-.387-.383-.676-.965-.969-1.446zm-34.477-7.336c-.774.485-1.352.485-2.223.68-.578.094-.871.676-.578 1.156.094.29.383.387.676.387.964.097 2.027-.387 2.796-.965.774-.484.102-1.738-.671-1.258zm-32.551 3.379c-1.254.29-2.512.578-3.766.871-1.062.192-2.129.29-2.898 1.059-.29.289-.196.87.289.965 1.062.289 2.129-.192 3.094-.485 1.253-.285 2.414-.672 3.667-.965.965-.191.579-1.636-.386-1.445zm-43.172 13.316c-1.356-.675-4.152-1.351-5.219.192-.285.387 0 .965.484 1.16.583.195 1.254-.098 1.836-.098.676 0 1.258.098 1.934.387 1.156.48 2.121-1.16.965-1.64zM59.504 305.02a21.463 21.463 0 0 0-3.379-1.45c-.871-.289-2.223-.867-3.094-.289-.289.196-.386.582-.289.965.387.871 1.543 1.16 2.414 1.45 1.063.386 2.219.769 3.285 1.35 1.254.485 2.317-1.444 1.063-2.026zm48.969 18.527c-1.16-.195-2.32-.387-3.48-.77-1.06-.293-2.122-.964-3.188-.964-.868 0-1.25 1.058-.676 1.636.773.867 2.223 1.16 3.289 1.45 1.25.288 2.508.484 3.766.578 1.062 0 1.347-1.832.289-1.93zm30.906.965c-.965-.29-2.125-.77-2.996-.196-.29.196-.48.582-.383.872.383 1.16 1.64 1.351 2.703 1.542 1.254.29 2.61.387 3.957.48 1.16.103 1.356-1.827.293-2.022-1.16-.098-2.414-.387-3.574-.676zm27.238 9.554c-.969-.293-1.933-.87-2.996-.964-.578 0-.77.671-.484 1.058.68.774 1.836 1.063 2.804 1.445 1.157.391 2.317.68 3.57.774 1.067.191 1.548-1.445.485-1.64-1.16-.098-2.316-.29-3.379-.673zM115.91 293.73c-1.16-.867-2.515.676-1.258 1.641 1.063.774 2.223 1.445 3.477 1.93 1.062.48 1.836-1.45.773-1.93a11.24 11.24 0 0 1-2.992-1.64zm-20.383-15.054c-.285-.965-1.351-1.735-2.125-2.313-.675-.582-2.12-1.547-2.894-.582s.578 2.028 1.254 2.512c.484.289.965.578 1.449.863.484.293.965.582 1.547.582.484-.191.867-.582.77-1.062zM46.465 236.8c-.68-.485-1.356-1.067-2.13-.867-.48.093-.573.574-.382.964.29.575 1.063.868 1.64 1.25.583.48 1.16.965 1.641 1.547.68.868 1.934-.386 1.164-1.16-.68-.672-1.257-1.254-1.933-1.734zm37.187 22.48c.77.578 1.641 1.16 2.606 1.352.965.191 1.64-.867.965-1.64-.582-.677-1.547-1.157-2.32-1.74-.77-.573-1.45-1.253-2.415-.964-.383.098-.578.484-.578.774 0 .964.969 1.64 1.742 2.218zm42.106 26.54c1.066.671 1.84-.872.969-1.641-1.258-.871-2.415-1.836-3.575-2.703-1.062-.872-2.125-1.739-3.48-2.22-.574-.195-.965.481-.77.966 1.45 2.507 4.54 4.148 6.856 5.597zm11.785 12.542c2.703 1.739 5.508 4.051 8.598 5.207.675.196 1.058-.672.675-1.058-2.222-2.41-5.504-4.055-8.21-5.887-1.157-.773-2.223 1.063-1.063 1.738zm-17.871-42.457c-1.156-.773-2.317-1.449-3.57-2.222-1.641-.965-2.993 1.546-1.45 2.511 1.157.77 2.32 1.543 3.477 2.215 1.742 1.067 3.09-1.445 1.543-2.504zm-33.703-22.969c.672 0 1.062-.671.965-1.347-.192-1.254-1.739-2.028-2.61-2.8-1.156-.868-2.219-1.74-3.379-2.606-1.257-.965-3.09.773-1.836 1.832 1.16.964 2.32 1.93 3.477 2.894.965.774 2.031 2.13 3.383 2.028zm-30.524-35.601a.966.966 0 0 0 .965-.965c0-1.164-1.254-2.031-1.93-2.8-1.16-1.16-2.992.671-1.835 1.835.773.766 1.64 1.93 2.8 1.93zm46.942 32.324c.867.48 1.738 1.059 2.703 1.348.578.195.87-.578.578-.965-.676-.77-1.543-1.348-2.414-1.93-.867-.578-1.832.965-.867 1.547zm43.078 38.113c-.387.387-.485 1.16 0 1.543.77.676 1.351 1.739 2.414 1.93.387 0 .676-.289.77-.578.39-1.063-.965-2.219-1.641-2.797-.485-.484-1.156-.578-1.543-.098zM126.727 250.5c-.579.387-.97 1.254-.485 1.93.676.965 1.356 2.12 2.223 2.992 1.156 1.16 2.996-.29 2.222-1.738-.484-.965-1.355-1.832-2.03-2.7-.481-.578-1.255-.964-1.93-.484zm39.503 15.246c-.582-.48-1.062-.965-1.644-1.445-1.352-1.258-3.379.773-2.027 2.027.484.48 1.062.965 1.543 1.543.484.48 1.066 1.156 1.742 1.445 1.254.582 2.8-.675 1.93-1.93-.383-.675-.965-1.156-1.544-1.64zm-25.886-26.05c-1.156-.966-2.512-1.739-3.77-2.512-.77-.485-1.734.68-.965 1.351 2.032 1.738 3.864 3.957 5.41 6.082.387.574 1.258.965 2.032.48.094-.097.191-.195.285-.195.484-.382.582-1.25.2-1.734-1.067-1.254-2.032-2.41-3.192-3.473zm-35.735-31.747c.676.285 1.254-.195 1.157-.87-.192-1.157-1.348-2.122-2.028-3.087-.867-1.062-1.738-2.222-2.61-3.281-.573-.774-2.023.289-1.347 1.059.867 1.16 1.64 2.222 2.508 3.378.582.965 1.254 2.317 2.32 2.801zm-33.902-44.68c.387.387 1.063.387 1.547.098.48-.387.48-.965.289-1.449-.582-1.25-1.547-2.414-2.414-3.57-.774-1.157-2.707-.094-1.934 1.156.871 1.164 1.543 2.703 2.512 3.766zm27.625 24.801c.965 1.157 1.93 2.313 2.992 3.278 1.16 1.16 2.703-.575 1.739-1.735-.965-1.16-2.028-2.125-3.09-3.183-1.067-1.157-2.61.484-1.641 1.64zm25.883 23.64c.969.677 2.219-.386 1.933-1.448-.39-1.446-1.738-2.602-2.707-3.668-.48-.48-1.449-.48-1.93 0-.581.582-.484 1.355 0 1.933.868 1.063 1.544 2.41 2.704 3.184zm30.328 24.122c-.582-1.254-2.8-.383-2.223.969.965 2.312 2.899 5.887 5.7 6.27.578.097 1.062-.579.87-1.157-.484-1.062-1.449-1.93-2.222-2.8-.969-1.06-1.645-2.122-2.125-3.282zm-32.356-60.98c-.582-1.641-1.449-3.09-2.316-4.633-.39-.676-1.355-.867-2.031-.485-.774.387-.867 1.258-.485 2.028.676 1.449 1.258 2.992 2.125 4.246.391.582.965.773 1.641.676.293-.094.484-.196.68-.387.386-.387.484-.965.386-1.445zm36.22 36.183c.675 1.156 1.155 2.508 2.124 3.473 1.063 1.16 2.895-.094 2.606-1.543-.285-1.254-1.157-2.508-1.735-3.668-1.164-1.832-4.058-.098-2.996 1.738zm-39.31-55.39c.676 1.066 1.45 2.414 2.798 2.609.675.094 1.257-.29 1.355-.965.191-1.351-.965-2.512-1.738-3.476a43.834 43.834 0 0 0-2.707-3.278c-.965-1.16-2.797.285-2.028 1.543.68 1.254 1.45 2.41 2.32 3.567zm25.012 28.37c-.48-.671-1.449-1.062-2.222-.577-.672.386-1.059 1.445-.575 2.218.676.965 1.348 1.93 2.024 2.797.773 1.063 1.258 2.125 2.613 2.223.574.097 1.156-.485 1.25-.965.293-1.258-.574-2.027-1.156-2.992-.676-.871-1.352-1.735-1.934-2.703zm-12.843 3.57c-.676.388-.97 1.352-.578 2.028.773 1.16 2.703 4.246 4.44 3.09.872-.582.579-1.738 0-2.414-.577-.676-1.253-1.351-1.835-2.121-.48-.68-1.254-1.063-2.027-.582zm44.332 43.231c.293.676.578 1.45.968 2.121.29.676.48 1.45 1.157 1.739.484.191 1.062 0 1.16-.48.191-.774-.293-1.45-.578-2.126-.293-.77-.68-1.543-.965-2.218-.582-1.157-2.223-.192-1.742.964zM141.887 116.18c.484.386 1.258.195 1.258-.48 0-1.157-.579-2.22-1.06-3.282-.679-1.445-2.898-.195-2.128 1.254.582.871 1.063 1.836 1.93 2.508zm12.465 24.707c.671.77 2.218.191 2.12-.871-.097-1.352-1.062-2.508-2.027-3.473-1.351-1.254-3.285.77-1.933 1.93.68.77 1.066 1.64 1.84 2.414zm-6.282 7.43c.676-.196 1.352-1.067 1.063-1.837-.387-1.058-.867-2.125-1.254-3.183-.29-.676-.965-1.254-1.738-.965-.676.191-1.258 1.059-.965 1.734.383 1.063.773 2.125 1.156 3.184.191.773.867 1.258 1.738 1.066zm15.84 16.015c.582 1.063 1.258 2.125 1.836 3.184.578.964 1.645 2.414 2.992 1.64 1.258-.77.676-2.219.196-3.281-.579-1.156-1.254-2.219-1.934-3.375-1.156-1.93-4.348-.098-3.09 1.832zm24.727 41.973c.773.965 1.543 1.93 2.511 2.703.387.289.965.097 1.254-.192.391-.386.391-.867.192-1.257-.48-1.059-1.25-1.93-1.93-2.793-1.16-1.45-3.281.191-2.027 1.539zm13.715-17.461c0 1.058-.29 2.504.484 3.277.289.29.867.29 1.156 0 .774-.773.485-2.219.485-3.277 0-1.356-2.125-1.356-2.125 0zm-15.262-68.418c.39 1.16 2.125.965 2.125-.285 0-.485-.094-.871-.094-1.356-.191-1.738-2.805-1.445-2.414.293.191.48.29.965.383 1.348zm13.332 34.351c-.676.196-.969.868-.871 1.547.097.676.195 1.352.387 2.024.097.773.19 1.257.867 1.738.484.289 1.062.098 1.449-.383.484-.582.289-1.355.098-2.027-.098-.676-.29-1.352-.383-2.031-.102-.672-.875-1.06-1.547-.868zm-6.281 10.036c.097-1.25-.676-2.313-1.063-3.375-.484-1.16-.77-2.415-1.058-3.665-.293-1.644-2.708-.87-2.418.672.293 1.45.578 2.797 1.062 4.153.387 1.156.871 2.41 1.93 3.086.773.382 1.547-.098 1.547-.871zm-22.504-49.887c.191.582.39 1.254.484 1.836.191.675.29 1.351 1.063 1.734.578.29 1.16.098 1.543-.383.484-.675.195-1.258 0-2.031a12.92 12.92 0 0 1-.48-1.832c-.485-1.734-3.095-1.063-2.61.676zm.484-31.36c.191.29.578.579.965.579.191 0 .387 0 .582-.192a1.26 1.26 0 0 0 .48-1.254c-.289-1.351-.964-2.703-1.449-3.957-.48-1.449-2.8-.773-2.219.578.48 1.352.965 2.895 1.641 4.246zm44.91 85.012c-.773.192-1.058.867-.867 1.64.191.966.29 1.93.578 2.895.387 1.254 2.512 1.157 2.414-.289-.094-1.062-.285-2.222-.484-3.281-.192-.676-.965-1.063-1.64-.965zm9.95-12.64c.386.19.773.19 1.16 0 1.156-.676 1.156-1.93 1.062-3.09 0-1.348-.098-2.7-.098-4.051-.093-2.027-2.992-2.027-3.09 0 0 1.351-.097 2.703-.097 4.05-.094 1.16-.094 2.415 1.062 3.09zm-20.38-33c.387 1.347.481 2.703.579 4.05.097 1.45 2.515 2.028 2.707.387.289-1.734 0-3.57-.485-5.21-.582-1.74-3.379-1.06-2.8.772zm5.602-28.567c.192.68.871 1.164 1.547 1.063.773-.098 1.156-.672 1.258-1.348.094-.965-.102-1.93-.485-2.8-.289-.774-1.062-1.349-1.933-1.06-.774.192-1.45 1.157-1.063 1.93.387.578.485 1.348.676 2.215zM201 52.688c.969.484 2.027-.094 2.027-1.157.098-1.254-.675-2.511-.867-3.761-.097-.965-.773-1.739-1.738-1.739-.871 0-1.836.774-1.742 1.739.293 1.64.675 3.953 2.32 4.917zm48.969 82.117c.191-.774.386-1.543.578-2.317.387-1.64-2.219-1.93-2.219-.289 0 .77 0 1.64.094 2.414.098.867 1.355 1.059 1.547.192zm19.894-21.903c.774-1.16 1.356-2.414 2.032-3.668.671-1.351-1.352-2.41-1.934-1.156-.676 1.348-1.352 2.606-1.832 4.05-.582 1.06 1.058 1.642 1.734.774zm-11.59-7.914c1.254.77 1.93-.965 2.32-1.832.677-1.449 1.45-2.797 2.415-4.054.773-.965-.871-2.22-1.738-1.352-1.067 1.16-1.934 2.41-2.707 3.766-.383.867-1.45 2.703-.29 3.472zm27.434-31.843c-1.16 1.835-2.805 3.957-2.61 6.078.094.675.77.965 1.352.582.867-.774 1.156-1.547 1.64-2.606.485-.965.966-2.027 1.548-2.992.773-1.254-1.157-2.316-1.93-1.062zm9.559 120.812c-18.446 6.848-37.184 12.832-55.536 19.781-1.062.383-.675 2.121.48 1.832 18.45-5.406 36.513-12.16 54.571-18.718 17.969-6.563 35.93-6.079 54.477-8.59.867-.094.578-1.45-.195-1.543-17.868-1.543-36.989.965-53.797 7.238zm51.289 35.703c-18.543-5.406-40.473-.582-58.825 3.86-21.73 5.21-42.98 11.964-65.289 14.085-1.449.098-1.449 2.317 0 2.22 20.286-1.544 39.602-7.43 59.207-12.446 10.528-2.703 21.25-5.113 32.067-6.371 11.008-1.254 21.633-.383 32.644 0 .774 0 .97-1.156.196-1.348zm-114.262-24.125c-.867 1.352 1.258 2.508 2.125 1.254 15.066-21.906 31.004-43.133 47.715-63.781a1009.705 1009.705 0 0 1 23.18-27.5c4.25-4.824 8.496-9.649 12.843-14.477 3.864-4.34 7.633-9.648 13.137-12.058.582-.293.191-1.356-.484-1.067-9.368 3.477-16.805 14.957-23.18 22.102-8.883 9.933-17.676 20.066-26.176 30.394-17.387 20.938-33.707 42.746-49.16 65.133zm16.71-11.387c-.87.774.29 2.223 1.255 1.543 15.457-11.867 30.812-23.93 46.746-35.12 15.937-11.196 33.516-20.458 49.066-32.036 1.16-.87.192-2.605-1.156-2.031-17.777 8.3-34.387 21.23-50.324 32.52-15.645 11.097-31.098 22.581-45.586 35.124zm109.72 78.547c-4.348-.675-8.305-.195-12.653 0-6.668.29-13.23-1.062-19.8-1.832-10.239-1.258-20.473-1.355-30.813-.87-21.824.87-43.848 3.859-65.289 7.913-.773.192-.676 1.543.195 1.45 21.246-2.61 42.203-6.274 63.645-6.856 10.625-.29 21.25 0 31.875 1.066 4.828.48 9.562 1.25 14.394 1.54 5.887.39 11.88-.965 17.77 0 1.64.289 2.32-2.122.676-2.41zm-20.961 37.149c-9.176-3.953-20.57-4.535-30.325-6.078-9.949-1.543-19.609-1.641-29.652-1.543-21.73.191-44.332-.965-65.773 2.988-.676.098-.582 1.355.191 1.254 20.957-1.059 41.82-1.828 62.781-2.024 10.723-.097 21.153.094 31.871 1.641 9.852 1.45 20.957 1.93 30.23 5.5.97.383 1.645-1.254.677-1.738zm-226.973-23.93c8.984 5.984 17.965 12.45 27.434 17.656 9.656 5.407 20.28 8.688 28.972 15.633.77.68 1.934-.484 1.16-1.156-6.859-6.176-15.261-9.55-23.472-13.512-9.95-4.918-19.125-11.48-28.301-17.558-19.7-13.028-38.922-26.73-57.176-41.786-.582-.48-1.449.293-.867.871 16.031 14.958 33.996 27.696 52.25 39.852zm36.8-146.383c5.888 12.352 11.88 24.703 18.352 36.766 12.457 23.16 26.754 45.93 45.2 64.941.675.676 1.644-.289 1.062-1.062-17.77-19.684-32.164-41.492-44.621-64.844-12.266-23.062-24.82-47.09-33.422-71.793-.191-.676-1.156-.383-1.058.29 2.507 12.546 9.078 24.222 14.488 35.702zm-45.687 57.512c9.66 9.746 19.418 19.394 29.075 29.043 9.464 9.457 18.835 18.816 28.492 28.082 9.078 8.781 18.445 18.43 29.36 24.894.581.387 1.35-.48.773-.964-9.465-8.59-19.606-16.309-28.684-25.278-9.176-8.976-18.063-18.242-27.14-27.308-9.368-9.36-18.739-18.723-28.11-28.082-8.785-8.684-18.152-17.078-24.238-27.985-.39-.773-1.547-.093-1.16.676 5.023 10.711 13.328 18.723 21.632 26.922zm110.977-81.344c5.41 25.281 8.98 50.95 13.812 76.328.192.965 1.836.77 1.641-.195-3.281-25.184-8.016-50.371-13.324-75.266-5.512-25.57-12.074-51.234-21.93-75.55-.383-.871-1.832-.582-1.45.382 8.692 24.317 15.845 49.02 21.25 74.301zM120.547 254.07c19.316 15.633 38.633 31.75 59.008 45.934.582.383 1.257-.484.773-.965-19.121-16.504-39.5-31.746-59.11-47.668-19.698-15.922-39.214-32.133-58.816-48.055-.773-.582-1.738.383-1.062 1.059 19.316 17.082 39.215 33.488 59.207 49.695zm24.238-53.457c14.973 20.649 30.621 41.492 49.164 59.055.965.871 2.317-.484 1.45-1.45-36.508-38.98-65.485-83.948-97.165-126.788-.484-.676-1.742-.098-1.16.672a2478.338 2478.338 0 0 0 47.711 68.511zm53.992 140.11c-.386-.29-.964.191-.578.578 22.696 20.457 45.102 41.394 69.156 60.308.965.774 2.317-.48 1.348-1.351-22.984-20.164-46.937-39.176-69.926-59.535zm110.012 15.922c-8.113-.868-15.164-4.344-22.601-7.43-7.633-3.188-15.645-5.016-23.665-7.14-17-4.54-33.609-10.036-50.03-16.403-.966-.39-1.352 1.156-.384 1.539a461.01 461.01 0 0 0 52.637 17.66c8.695 2.317 16.805 4.922 25.113 8.395 6.18 2.605 12.266 4.921 19.028 5.5 1.254.097 1.254-2.024-.098-2.121zM189.7 143.585c5.024 13.606 10.14 27.114 15.453 40.626 2.125 5.402 4.153 10.996 6.762 16.305 2.8 5.597 6.856 10.328 9.371 16.117.285.578 1.156.191 1.059-.387-1.258-5.5-4.922-9.457-7.535-14.281-3.38-6.176-5.598-12.93-8.11-19.492-5.215-13.606-10.242-27.211-15.262-40.817-9.851-26.633-19.027-53.457-29.07-79.992-.387-.965-1.836-.582-1.547.383 7.918 27.598 18.934 54.52 28.88 81.539zm33.805 87.716a1104.59 1104.59 0 0 0 7.531-25.672c10.434-26.344 18.45-53.844 28.3-80.473 5.024-13.605 9.563-27.789 15.84-40.914 5.993-12.64 15.36-23.254 23.278-34.738.387-.578-.582-1.254-.965-.77-8.593 10.805-17.867 22.094-23.855 34.543-5.797 11.965-9.95 24.801-14.586 37.246-10.434 27.887-22.117 55.868-30.035 84.532v.093c-3.864 12.641-8.02 25.188-12.364 37.73-.39 1.157.676 1.93 1.641 1.833-11.207 32.422-22.504 64.75-32.937 97.363-11.395 35.703-23.082 73.14-27.137 110.582-.195 1.735 2.703 2.121 2.992.387 3.961-18.723 7.05-37.54 11.785-56.164 4.73-18.617 10.043-36.953 15.738-55.285 11.399-36.668 24.344-72.856 35.16-109.719 0-.285-.097-.48-.386-.574zm-58.918 116.562c-18.063 9.168-38.828 9.746-58.047 15.051-1.254.39-.676 2.031.484 1.836 10.72-1.445 21.442-4.148 32.067-6.563 9.176-2.027 17.965-4.632 26.176-9.07.964-.484.191-1.734-.68-1.254zm-7.242-13.414c-30.91-6.27-61.235-15.531-90.793-26.535-1.059-.383-.574-2.121.484-1.738 29.656 11.004 59.98 19.496 90.598 27.117.773.289.387 1.348-.29 1.156"/></svg>