<svg xmlns="http://www.w3.org/2000/svg" width="333" height="394" fill="none"><path fill="#8DABAC" d="M180.493 276.153c4.234 2.211 12.252-.902 14.781-5.525-5.422.924-9.438 4.283-14.781 5.525zm3.907-17.876c.707-.313 1.729-.625 1.494-1.723-.232-1.098-1.25-1.024-2.116-.948-5.261.534-10.293 2.086-15.322 3.482-.471.154-1.022.391-1.024 1.017.077.627.627.788 1.174.866.942.082 1.887.006 2.829.009 4.474-.298 8.798-1.149 12.965-2.703zm39.778-15.724c1.578-1.875 4.492-4.613 3.084-6.265-1.486-1.731-4.01 1.32-5.976 2.414-2.044 1.17-3.462 3.048-4.726 5.003-.946 1.568-.558 2.591 1.404 2.753 2.75-.227 4.56-1.948 6.214-3.905zm-52.969-82.077c-2.2-.56-3.069 1.323-3.936 2.888-1.504 2.743-1.591 5.882-1.6 8.862-.005 1.412.461 3.14 2.264 3.302 1.727.241 2.674-1.248 3.149-2.579.95-2.665 1.901-5.33 1.835-8.625-.232-1.098.561-3.293-1.712-3.848zm15.387 48.692c2.985.009 4.093-2.185 4.727-4.692.478-1.961.405-4-.14-5.884-.852-3.065-3.755-3.781-6.04-1.511-1.73 1.718-2.288 3.914-2.219 6.112-.087 3.53 1.397 5.967 3.672 5.975zm-10.917 26.091c1.256-.858 2.755-1.874 1.895-3.76-.78-1.65-2.266-2.596-4.075-2.29-3.928.697-7.781 1.546-11.319 3.497-1.336.778-3.066 1.638-2.601 3.446.465 1.801 2.354 1.26 3.763 1.421.709.081 1.492.004 2.198.007 3.459.011 7.068-.21 10.139-2.321zm-13.42-27.346c2.518-1.327 2.6-3.051.33-4.629-4.153-2.834-8.704-3.478-13.497-2.082-1.732.465-3.145 1.402-3.231 3.361-.086 2.121 1.64 2.753 3.13 3.464 2.039.948 4.316.564 6.514.65 2.275-.072 4.632.327 6.754-.764zm40.678 23.508c2.196.872 3.932-1.632 5.349-3.198 2.992-3.365 5.204-7.279 6.945-11.51.478-1.254.874-2.741-.22-3.845-1.097-1.18-2.515-.714-3.849-.407-6.362 1.551-9.992 6.326-10.014 13.306.073 1.963-.487 4.865 1.789 5.654zm85.727 30.012c6.297-4.842 13.142-9.136 17.482-16.106.55-.94 1.969-1.8 1.107-2.98-.627-.864-1.962-.397-2.984-.165-10.055 2.321-20.266 3.465-30.324 5.396-2.751.538-5.499 1.238-8.018 2.798-3.618 2.262-3.785 5.636-.34 8.08 4.781 3.386 10.429 4.19 14.984 4.599 3.608.091 6.125-.06 8.093-1.622zM219.496 86.957c-2.412 17.801-7.888 34.731-14.143 51.5-1.502 4.155-2.855 8.307-4.202 12.539-2.536 8.153-5.231 16.149-9.732 23.506-.947 1.568-1.659 3.369-2.374 5.173-.472 1.331-.715 2.743.618 3.768 1.33 1.025 2.747.794 4.082-.067 6.218-3.978 10.867-9.223 13.635-16.115 3.009-7.68 4.527-15.757 6.357-23.679 2.549-10.974 2.82-22.272 4.427-33.331 2.167-14.975 4.728-29.797 6.189-44.933-3.162 6.814-3.892 14.343-4.857 21.639zm-2.63 305.9c-.204-9.573 1.162-19.062 2.211-28.551.891-8.002 2.094-16.079 1.417-24.163-.38-4.549-.525-9.024-.116-13.494.813-9.57.923-19.062 1.192-28.634.266-9.569-3.714-17.742-6.671-26.303-.233-.631-.701-1.494-1.568-1.185-.94.391-.472 1.334-.318 1.961.777 2.906 1.553 5.892 2.406 8.795 2.101 6.755 4.198 13.587 2.915 20.725-3.197 17.879-9.375 34.413-21.59 48.259-4.726 5.401-10.159 9.699-17.153 11.795-3.85 1.164-7.067.133-9.256-2.933-.545-.708-.937-1.415-.384-2.279.633-1.015 1.572-.936 2.512-.459.705.314 1.257.786 1.96 1.027 2.667.867 5.414 1.27 7.7-.996 9.134-8.838 10.901-19.896 9.679-31.902-.228-2.434-1.794-2.989-3.683-1.348-.945.783-1.658 1.877-2.291 2.973-2.05 3.212-4.02 6.42-5.918 9.712-3.788 6.498-8.754 12.366-10.977 19.813-.714 2.431-2.761 3.757-5.117 4.144-12.65 1.922-25.213 2.117-37.05-3.725-6.035-3.002-12.311-4.749-18.823-6.182a608.05 608.05 0 0 1-12.555-2.943c-1.1-.239-2.51-.323-2.585-1.812-.074-1.651 1.34-1.958 2.598-2.189.63-.154 1.257-.152 1.884-.23 15.162-2.069 29.389-6.575 41.666-15.952 8.74-6.718 17.242-13.751 24.961-21.651 2.994-3.05 5.125-6.653 6.55-10.653.322-1.016.948-2.035.009-2.903-.859-.861-1.961-.633-2.984-.165-1.806.779-3.692 1.559-5.344 2.651-11.803 7.413-22.903 16.009-34.782 23.426-12.667 7.885-24.238 17.42-37.218 24.83-2.834 1.642-5.665 3.277-9.12 3.11-16.405-.914-29.73-8.332-40.764-20.137-1.412-1.493-3.446-3.15-2.576-5.421.872-2.195 3.386-2.107 5.43-2.415 11.622-1.77 22.705-4.946 32.777-11.348 5.426-3.436 11.169-6.322 17.067-8.812 16.274-6.853 32.628-13.549 48.903-20.401a82.538 82.538 0 0 0 5.978-2.805c1.647-.86 2.126-2.267 1.425-4-.701-1.57-2.038-1.574-3.451-1.187-1.886.547-3.851 1.088-5.74 1.711-15.874 5.203-31.752 10.174-47.475 15.772-18.708 6.689-38.024 7.257-57.42 7.272-4.159-.013-8.006-1.043-11.212-4.193-3.838-3.777-6.337-8.336-8.205-13.287-3.502-9.502-5.042-19.473-6.738-29.443-.847-4.789-.755-9.654-.348-14.436.083-1.176.168-2.903 1.896-2.742 1.57.161 1.248 1.731 1.168 2.828-.166 3.059 1.4 4.712 3.983 6.055 6.115 3.235 12.788 4.122 19.46 5.084 24.17 3.528 48.508 4.706 72.777 2.191 11.551-1.219 22.631-4.478 33.79-7.579 1.65-.465 3.85-1.008 3.778-3.203.006-1.962-2.27-1.813-3.6-2.603-.785-.473-1.806-.632-2.747-.715-14.054-1.062-28.11-.484-42.245.024-13.506.504-27.094 2.108-40.593-.364-6.277-1.121-12.874-.751-18.913-3.044-10.274-3.957-20.387-8.461-30.267-13.355-3.92-1.898-5.95-5.12-5.624-9.355.415-6.512.36-13.022 1.319-19.456.563-3.84 1.44-7.606 3.255-11.13.711-1.33 1.657-2.504 3.384-2.263 1.727.241 2.113 1.654 2.109 3.066.073 2.042 1.01 3.613 2.182 5.105 5.476 6.925 12.368 11.889 20.365 15.521 9.173 4.189 19.224 4.301 28.797 6.449.71.158 1.648.317 2.356-.463-.78-1.494-2.269-1.81-3.6-2.285-5.492-1.98-10.587-4.824-14.972-8.6-3.526-2.994-7.126-5.439-11.836-6.16-1.1-.159-2.672-.243-2.508-1.811.164-1.57 1.576-2.192 2.992-2.264 2.355-.152 4.55.717 6.747 1.354 16.713 4.369 33.343 8.893 50.215 12.321 13.415 2.708 26.994 4.167 40.737 3.816 4.949-.14 8.568-2.637 9.442-6.403 1.036-4.548-.757-7.848-5.697-10.297-4.861-2.369-9.959-3.953-15.135-5.226-15.068-3.578-30.052-7.235-44.56-12.618-9.96-3.718-19.366-8.61-28.935-13.192-13.092-6.24-24.606-14.514-34.307-25.609-6.337-7.239-7.1-14.537-4.168-23.003C14 90.067 19.142 78.077 25.62 66.722c.47-.784.788-2.036 1.965-1.64 1.334.474.936 1.805.62 2.749-1.187 3.211-1.357 6.585-.897 9.96 1.154 7.535 4.117 14.293 8.494 20.426 3.909 5.505 7.815 10.93 11.647 16.435 2.658 3.774 5.395 7.471 8.917 10.542 7.282 6.301 15.99 9.544 25.169 11.85 7.528 1.907 15.143 3.499 22.514 6.032 5.413 1.903 11.142 2.154 16.8 1.075 2.751-.539 3.304-1.558 2.135-4.153-1.168-2.669-3.285-4.562-5.477-6.369-7.753-6.382-16.453-11.272-24.995-16.401-5.409-3.235-10.817-6.468-15.12-11.112-8.45-8.97-16.745-18.098-25.116-27.224-2.74-2.992-4.928-6.293-6.88-9.753-3.433-5.971-4.594-11.94.292-17.809.24-.31.397-.705.634-1.095 2.207-3.602 4.417-7.126 6.627-10.731.71-1.175 1.814-2.03 3.148-1.323 1.566.87.465 1.964-.248 2.903-1.182 1.488-1.579 3.213-1.429 5.017.446 7.847 3.487 14.211 9.835 19.173 6.655 5.202 13.001 10.715 16.428 18.727.388 1.022 1.172 1.731 2.112 2.281 5.485 3.08 11.448 4.826 17.732 5.002 2.666.088 3.299-.852 1.97-3.289-1.872-3.536-3.9-6.996-6.092-10.298-4.062-6.132-8.205-12.187-10.929-19.1-1.868-4.872-4.762-9.353-8.284-13.285a25.871 25.871 0 0 1-3.904-6.055c-1.482-3.3-1.004-5.496 1.674-7.92 4.645-4.065 9.291-8.207 14.093-12.116 3.78-3.204 7.95-5.467 13.285-4.35a6.815 6.815 0 0 0 4.635-.694c3.225-1.634 5.419-.295 7.139 2.38 4.296 6.523 7.414 13.676 10.06 20.98 4.434 12.57 5.569 25.593 5.686 38.776.064 4.865-.346 9.727.972 14.438.469 1.652.069 4.316 2.029 4.48 2.277.164 2.757-2.503 3.469-4.304 4.039-10.345 5.016-21.247 5.286-32.151.27-10.904-.637-21.812-2.565-32.647a120.793 120.793 0 0 0-3.023-12.874c-2.018-6.914-7.823-8.265-13.023-3.26-.552.469-.945 1.094-1.497 1.643-.709.703-1.029 2.35-2.28 1.401-1.254-.863-.228-2.115.402-3.055 3.71-6.11 9.214-8.913 16.203-9.365 6.05-.372 11.618 1.529 17.187 3.35 4.628 1.506 8.627 3.481 9.157 9.051.077.786.545 1.573.934 2.357 3.278 5.74 4.989 12.021 6.378 18.383 2.404 10.598 3.782 21.272 1.628 32.173-1.836 9.173-3.199 18.426-5.036 27.602-2.791 14.187-6.606 28.222-7.674 42.734-.33 4.55-.815 9.02 1.606 13.263 1.718 3.068 4.23 3.388 6.517.807 1.81-2.033 2.995-4.306 3.318-6.974.646-4.94 1.915-9.642 3.581-14.347.79-2.195 1.427-4.387 1.59-6.743 1.549-17.646 1.762-35.455 2.525-53.106.34-8.003.992-15.927 2.98-23.686 1.511-5.8 3.572-11.444 4.924-17.244 1.194-5.177 1.684-10.432-2.307-14.917-.704-.784-1.723-1.417-1.089-2.668.63-1.098 1.727-1.015 2.828-1.012 4.478-.141 8.793.658 13.027 2.08 9.02 3.092 17.169 7.824 25.005 13.186 2.587 1.732 3.681 4.01 2.726 7.069-.714 2.507.379 4.002 2.498 5.03.549.236 1.255.395 1.725.787 10.182 7.878 20.364 15.916 30.622 23.794 3.057 2.363 4.225 5.111 3.978 8.959-.991 15.294-1.355 30.593-4.073 45.725-1.118 6.271-1.844 12.626-3.983 18.742-5.154 14.574-13.28 27.651-20.39 41.202-3.951 7.518-8.686 14.646-12.243 22.4-.317.785-1.497 1.643-.479 2.508.86.712 1.805-.07 2.672-.459 2.594-1.248 4.563-3.283 6.454-5.395 9.616-11.19 16.174-24.192 23.281-36.877 6.871-12.299 10.92-25.939 16.692-38.785 4.823-10.657 8.389-21.475 6.938-33.402-.152-1.257-.147-2.748 1.423-3.134 1.337-.308 2.037.871 2.743 1.732 10.477 13.451 19.779 27.76 26.477 43.473 5.225 12.098 3.93 24.023-3.251 34.826-6.232 9.394-14.425 17.213-22.535 25.033-6.932 6.727-14.645 12.668-21.263 19.628-4.332 4.537-9.057 8.602-14.097 12.428-2.673 2.033-5.583 3.83-7.48 6.724-.473.784-1.338 1.647-.714 2.507.548.788 1.571.164 2.358.008 1.569-.307 2.988-1.088 4.244-2.022 13.538-10.474 29.344-17.093 43.976-25.753 10.227-6.01 18.965-13.202 23.319-24.64 1.11-2.979 2.373-5.876 3.563-8.779.551-1.251 1.341-2.581 2.91-2.42 1.806.161 1.801 1.732 1.953 3.145.308 3.14.925 6.198 2.169 9.106 5.458 12.649 7.223 25.837 5.687 39.485-.972 8.469-3.822 16.306-11.295 20.833-4.957 2.967-6.226 6.569-5.771 11.828.681 7.771-1.461 14.98-6.504 20.851-7.723 9.077-16.543 17.051-26.77 23.296-6.057 3.667-12.195 7.651-19.968 6.682-4.157-.564-8.318-.968-12.396-2.158-3.532-1.032-6.511-2.845-8.856-5.756-1.955-2.36-3.991-4.64-6.337-7.395-.003.941-.08 1.332-.005 1.727 2.146 16.48 2.328 33.114 2.196 49.67-.12 13.417-.478 26.909-.597 40.323-.017 5.337-.429 10.672-.761 16.007-5.493-.567-11.147-.585-16.881-.604z"/></svg>