<svg xmlns="http://www.w3.org/2000/svg" width="550" height="660" version="1.0" viewBox="0 0 412.5 495"><defs><clipPath id="a"><path d="M32.043 55.453H412V412H32.043zm0 0"/></clipPath><clipPath id="b"><path d="M.082 60h403.441v380.918H.082zm0 0"/></clipPath></defs><g clip-path="url(#a)"><path fill="#728989" d="M408.285 60.68c11.422 9.992-.531 68.375-39.844 108.933a2.857 2.857 0 0 1-3.539.438 98.132 98.132 0 0 0-7.984-4.403c-2.836-1.394-5.523 2.133-3.406 4.473a80.802 80.802 0 0 1 5.222 6.402c.711.977.754 2.29.082 3.293-3.582 5.38-15.285 22.649-23.96 32.047-10.368 11.23-20.735 25.914-29.372 32.828-8.64 6.91-19.007 21.598-25.918 27.645-5.109 4.469-10.687 7.992-13.253 9.531a2.865 2.865 0 0 1-2.86.047l-1.422-.793c-2.742-1.523-5.586 1.84-3.625 4.29a2.85 2.85 0 0 1 .164 3.347c-3.172 4.867-12.398 18.699-18.746 25.043-7.773 7.777-19.867 21.597-29.37 28.512-9.505 6.91-12.958 12.957-26.782 23.324-13.82 10.367-12.957 13.82-32.828 25.054-19.871 11.23-33.692 16.414-56.153 19.004-22.46 2.59-37.148-10.367-51.836-.863-14.683 9.504-2.59-4.32-1.726-18.14.863-13.825-12.957-32.833-7.774-58.747 5.184-25.918 18.141-49.242 23.325-55.289 5.183-6.05 31.965-37.148 37.148-38.879l4.293-1.425a2.874 2.874 0 0 1 1.785-.012l17.164 5.555c2.86.925 5.028-2.622 2.903-4.747l-13.543-13.546a2.86 2.86 0 0 1 .215-4.243c5.449-4.433 18.355-14.78 21.738-16.136 4.32-1.727 13.824-13.82 25.054-25.918 11.231-12.094 29.372-18.14 43.196-26.782 11.469-7.168 26.512-16.714 31.293-19.757a2.862 2.862 0 0 1 3.066-.004l15.004 9.504c2.5 1.582 5.461-1.2 4.043-3.797l-7.637-13.918c-.855-1.559-.093-3.504 1.586-4.086 4.153-1.45 12.145-4.926 23.485-12.863C284.75 93.508 295.117 90.914 309.8 78.82c14.687-12.093 25.054-13.82 37.148-17.277 12.094-3.457 26.781-6.047 38.875-6.047 12.094 0 15.551-.863 22.461 5.184"/></g><path fill="#728989" d="M42.855 406.238c-14.683 9.504-2.59-1.726-1.726-15.547.863-13.824-12.957-32.832-7.774-58.746 5.184-25.918 18.141-49.242 23.325-55.289 5.183-6.05 31.965-37.148 37.148-38.879l4.293-1.425a2.874 2.874 0 0 1 1.785-.012l17.164 5.555c2.86.925 5.028-2.622 2.903-4.747l-13.543-13.546a2.86 2.86 0 0 1 .215-4.243c5.449-4.433 18.355-14.78 21.738-16.136 4.32-1.727 13.824-13.82 25.054-25.918 11.231-12.094 29.372-18.14 43.196-26.782 11.469-7.168 26.512-16.714 31.293-19.757a2.862 2.862 0 0 1 3.066-.004l15.004 9.504c2.5 1.582 5.461-1.2 4.043-3.797l-7.637-13.918c-.855-1.559-.093-3.504 1.586-4.086 4.153-1.45 12.145-4.926 23.485-12.863C284.75 93.508 295.117 90.914 309.8 78.82c14.687-12.093 25.054-13.82 37.148-17.277 12.094-3.457 26.781-6.047 38.875-6.047 12.094 0 15.551-.863 22.461 5.184 0 0-112.738 84.23-196.535 170.62-83.8 86.391-168.895 174.938-168.895 174.938"/><g clip-path="url(#b)"><path fill="#8dabac" d="m382.46 77.398-14.312-16.87-.66.558 14.313 16.867zM86.57 352.582c-4.613-17.582-37.062-59.539-37.39-59.96l-.68.526c.324.418 32.668 42.247 37.238 59.653zm264.075-246.406c4.742 2.449 19.742 10.87 36.773 27.191l-.598.625c-17.355-16.633-32.578-25.012-36.879-27.207-6.05 5.227-11.828 10.418-16.812 15.23-7.262 7.012-13.934 13.07-20.348 18.739 5.446 3.098 21.211 12.96 39.239 32.371l-.637.59c-18.278-19.688-34.176-29.48-39.285-32.356-10.934 9.645-21.13 18.196-32.153 28.368 7.207 3.64 33.598 17.882 55.657 41.41l-.633.59c-22.27-23.754-48.98-38-55.703-41.375a486.435 486.435 0 0 0-13.524 13c-6.316 6.32-12.453 12.277-18.496 18.09 8.422 5.167 37.012 23.44 54.953 43.617l-.648.574c-18.008-20.254-46.82-38.594-54.946-43.574-13.226 12.714-25.996 24.742-39.101 38.156 6.781 4.668 29.387 20.52 46.004 35.691l-.582.637c-16.692-15.238-39.438-31.164-46.031-35.7a646.363 646.363 0 0 0-10.262 10.759 2058.964 2058.964 0 0 1-25.906 27.34c7.554 5.331 35.78 25.785 54.28 46.367l-.644.578c-18.52-20.61-46.86-41.11-54.242-46.313-13.726 14.203-27.629 28.125-40.418 40.188.094.168.16.297.207.386 2.219.914 30.703 12.91 61.309 37.317l-.54.676c-31.609-25.207-60.94-37.137-61.234-37.25l.164-.403-.382.203a9.81 9.81 0 0 1-.172-.316 702.538 702.538 0 0 1-4.993 4.656 1128.721 1128.721 0 0 0-32.21 30.918c4.57 2.977 26.48 17.856 43.355 40.098l-.687.52c-16.985-22.383-39.106-37.286-43.293-39.997A1050.925 1050.925 0 0 0 61 388.098c-19.871 21.597-50.11 49.242-51.836 50.968-1.726 1.73-11.23 3.457-8.637-.863 2.59-4.32 70.84-69.976 94.164-93.3 12.079-12.079 22.532-21.376 31.489-29.692-8.04-14.254-30.211-52.117-44.887-63.39l.527-.684c14.739 11.312 36.864 49.043 45.012 63.468 8.055-7.5 14.879-14.23 20.555-21.535 5.148-6.62 11.554-13.082 18.601-19.715-5.226-10.984-19.914-38.949-43.84-62.464l.606-.614c23.832 23.418 38.535 51.235 43.898 62.453 9.352-8.77 19.797-17.859 29.98-28.039a949.186 949.186 0 0 1 7.493-7.414c-2.91-7.863-14.965-36.668-42.762-60.074l.555-.656c27.531 23.18 39.715 51.637 42.883 60.066 14.508-14.199 28.32-27.078 38.594-37.668-3.774-7.113-19.72-36.011-37.395-51.422l.57-.652c17.586 15.332 33.438 43.875 37.457 51.422a281.36 281.36 0 0 0 2.711-2.844c6.727-7.18 18.352-17.156 30.274-27.144-2.692-6.25-17.36-39.032-33.54-49.817l.481-.718c16.18 10.785 30.785 43.109 33.75 49.96 10.805-9.05 21.781-18.07 29.508-24.98l2.918-2.613c-.766-1.422-10.152-18.543-30.555-40.7l.64-.585c19.81 21.515 29.282 38.316 30.575 40.691 8.27-7.41 22.86-20.477 38.082-33.68l.031-.07-.375.203c-.125-.226-12.511-22.668-27.98-33.074l.484-.719c15.067 10.137 27.2 31.488 28.184 33.258.023.008.047.02.082.035 23.742-20.582 48.879-41.36 53.805-41.36 0 0-28.266 21.2-52.457 42.04"/></g></svg>