<svg xmlns="http://www.w3.org/2000/svg" width="310" height="69.632" class="css-g5ufxp"><path fill="#fff" d="M.728.199h32.135c.507.154.76.706.76 1.654v8.44c0 .948-.253 1.5-.76 1.654H22.769v56.029c0 1.103-.43 1.654-1.29 1.654h-9.896c-.199 0-.386-.187-.563-.562V11.947H.728C.243 11.748 0 11.317 0 10.656V1.489C0 .805.243.374.728.198zM3.11.927v.199c.199 0 .453.121.762.364H4.6c-.133-.375-.508-.563-1.126-.563H3.11zm2.416 0v.199c.177 0 .42.121.728.364h.894c0-.177-.177-.364-.53-.563zm4.203 0c0 .199.188.386.563.563h.927c0-.177-.188-.364-.563-.563zm3.508 0c0 .199.177.386.53.563h.927c0-.177-.188-.364-.563-.563h-.894zm4.203 0c0 .199.188.386.563.563h.563c0-.177-.188-.364-.563-.563zm3.144 0c0 .199.176.386.53.563h.562c0-.177-.188-.364-.563-.563zm3.31 0c.11.243.166.43.166.563h.728v-.199c0-.242-.121-.364-.364-.364h-.53zm3.276 0c.132.243.198.43.198.563h.728c-.11-.243-.165-.43-.165-.563zm1.655.365v.198h.563c.243 0 .86-.121 1.853-.364l.761-.198h-1.886zM.926 1.126v.728c.022.242.144.364.364.364h.166v-.563c0-.176-.177-.353-.53-.53zm1.092.53c4.523 4.942 6.785 7.887 6.785 8.836h2.018C9.762 8.22 7.38 5.274 3.673 1.656H2.018zm3.111 0c4.633 5.008 7.391 8.935 8.274 11.782h.198c.022-.508.144-.762.364-.762-.309-1.654-1.29-3.728-2.945-6.221-2.868-3.2-4.457-4.799-4.766-4.799H5.13zm2.582 0c4.28 4.346 6.42 7.226 6.42 8.638.375.617.629.926.761.926h.166c.132 0 .375-.309.728-.926-.508-2.648-2.405-5.527-5.693-8.638H7.711zm4.037 0c2.846 3.552 4.446 6.067 4.799 7.545h.364l.893-.926c-1.522-4.413-3.044-6.62-4.567-6.62h-1.489zm3.508 0c2.206 2.912 3.31 4.876 3.31 5.89.904-.462 1.456-.893 1.654-1.29 0-.419-.739-1.952-2.217-4.6h-2.747zm3.674 0c1.346 2.405 2.019 3.696 2.019 3.872h.364c.86-.53 1.29-.893 1.29-1.092l-1.489-2.78H18.93zm3.11 0c.817 1.478 1.302 2.217 1.457 2.217.816-.309 1.247-.617 1.29-.926v-.364c-.352-.397-.529-.706-.529-.927h-2.217zm3.31 0c.11.507.353.761.728.761.728-.132 1.092-.32 1.092-.562v-.199h-1.82zM15.058 13.239l.364-.165h2.018c1.236 0 2.46.121 3.674.364h.198v-.199c-.375 0-.562-.121-.562-.364 0-.176.187-.364.562-.563v.762c.243-.133.42-.199.53-.199v-.927l-.53.364v-1.29c0-.177.177-.353.53-.53h1.29c.221 0 2.306-1.169 6.255-3.508 1.832-.728 2.747-1.213 2.747-1.456V1.656h-2.018c-2.692.905-5.571 2.504-8.638 4.799-4.28 3.398-6.42 5.659-6.42 6.784zM1.456 2.583v2.581L.926 4.8v.728c0 .177.177.364.53.563v-.927c2.581 3.023 3.872 4.799 3.872 5.328h2.581c-.794-1.787-2.691-4.236-5.692-7.347zM32.135 6.09v.364c.242-.132.43-.198.562-.198v-.53H32.5c-.243.022-.364.144-.364.364zm-30.68.529v3.31H1.29c0-.354-.121-.53-.364-.53v.364c0 .662.31 1.147.927 1.456h.53c0-.33-.31-.518-.927-.563v-.728l.76.563h2.185C2.592 7.91 1.611 6.619 1.456 6.619zm23.697 3.674v.198h1.853c.243 0 1.953-.794 5.13-2.383V6.62zm6.983-1.82v.364h.562l6.983-.728H32.5c-.243.022-.364.143-.364.364zm-2.549 1.82v.198h2.548v-1.29h-.165c-1.39.727-2.184 1.092-2.383 1.092zm-24.82.364c0 .198.187.386.562.562h.364c-.11-.242-.166-.43-.166-.562h-.76zm3.507 0v.198c.022.243.144.364.364.364h.364v-.562h-.728zm2.946 0c.595.993.893 1.732.893 2.217h.199v-.926c0-.662-.243-1.093-.728-1.291zm11.749.562h.728c.309-.242.551-.364.728-.364v-.198h-.53c-.617.11-.926.298-.926.562zm3.673-.198v.199h.728c.64 0 1.004-.188 1.092-.563H27.37c-.309.243-.551.364-.728.364zm-5.329 2.582v.563l-2.217-.199H17.44c-.882 0-2.537.376-4.964 1.126v3.839c1.103-.486 2.637-.728 4.6-.728h2.383l1.853.165v-4.203h.53v-.563h-.53zm-9.564.926v.728c.243-.11.43-.166.563-.166v-.761c-.243.132-.43.199-.563.199zm9.564 4.037v.729c.11 0 .287.066.53.198v-.927zm-9.564.927v.364h.199c.242 0 .364-.121.364-.364v-.364h-.199c-.243.022-.364.144-.364.364zm.728.166v2.02c.839-.354 2.372-.597 4.6-.729 1.787.132 3.2.32 4.236.563v-2.02a28.84 28.84 0 0 0-4.401-.363h-.364c-1.17 0-2.527.176-4.07.53zm-.728 1.854v.53c.132 0 .32.066.563.198v-.562c-.133 0-.32-.056-.563-.166zm9.564.164v.199c.022.243.144.364.364.364h.166v-.563zm-7.181.563v.199c.22.485.893.97 2.019 1.456l.926-.199h.199c.882 0 2.228.133 4.037.397V22.24l-3.144-.364zm-1.655.364v4.766c2.604 1.566 5.362 4.445 8.274 8.638.242.53.364.838.364.926h.198v-5.89h.166c0 .374.121.562.364.562v-2.217h-.53v1.654c-4.126-4.831-7.07-7.644-8.836-8.439zm8.836 1.854v.53c.11 0 .287.066.53.198l4.567-.728zm-3.872.893c.53.993 1.633 1.49 3.31 1.49.242.11.43.165.562.165V25.35c0-.353-.794-.53-2.382-.53h-.365c-.75.067-1.125.243-1.125.53zm3.872 1.854v.728l-1.29-.166v.364c0 .177.364.54 1.092 1.092h.198v-1.29h.53v-.364c0-.243-.122-.364-.364-.364zm-9.564.166v.562c.044.243.166.364.364.364h.199v-.53c0-.264-.122-.396-.364-.396h-.199zm.728 1.29v1.654c3.861 3.221 6.443 6.045 7.744 8.472.574 1.103.938 1.655 1.092 1.655v-1.49h.166l.198.729h.166v-.894l-.364-1.29h-.166v1.456h-.198c0-.64-1.103-2.295-3.31-4.965-1.897-2.647-3.673-4.423-5.328-5.328zm-.728 1.655v.562c0 .177.188.364.563.563v-.761c0-.243-.122-.364-.364-.364zm.728 1.49v2.018c3.288 3.089 5.185 5.295 5.693 6.619 1.367 1.456 2.051 2.802 2.051 4.037h1.092v.728h.53v-2.58c0-.928-.177-1.413-.53-1.457v1.655h-.198c-1.456-3.53-3.597-6.652-6.42-9.366zm-.728 1.653v.53c0 .198.188.385.563.562v-.563c0-.176-.188-.353-.563-.53zm.728 1.655v2.184c2.714 2.736 4.435 5.373 5.163 7.91l.364.166c.728 0 1.092-.243 1.092-.729 0-1.919-2.206-5.096-6.619-9.53zm-.728 2.018v.53c0 .198.188.386.563.562v-.562c0-.177-.188-.353-.563-.53zm.728 1.656v2.184c1.964 2.78 2.946 4.556 2.946 5.328h.562c.177 0 .364-.187.563-.562v-.364c-.353-1.854-1.71-4.049-4.07-6.586zm-.728 1.82v.562c.243.31.364.552.364.728h.199v-.728c0-.198-.188-.386-.563-.562zm.728 2.018v2.581c0 .31.254 1.037.761 2.184.574-.353.938-.529 1.092-.529v-.199c0-.816-.551-2.162-1.654-4.037h-.199zm8.836.198h.166l.198 1.29c0 .243-.121.365-.364.365v-1.655zm-9.564 2.02v.53c0 .22.121.893.364 2.018h.199v-1.82c-.243-.31-.364-.552-.364-.728h-.199zm.728 4.202v4.435c4.545-2.34 7.49-3.696 8.836-4.07v-4.038c-4.787 1.5-7.733 2.724-8.836 3.673zm-.728-.529v.53c.243-.11.43-.166.563-.166v-.926c-.177 0-.364.187-.563.562zm9.564 1.291v.364h.53v-.76h-.166c-.242.043-.364.176-.364.396zm-.927.893v.199c.067.243.375.485.927.728v-1.29c-.397.242-.706.363-.927.363zm-5.691 4.6c2.58 0 3.872 1.037 3.872 3.111v.563c0 2.184-1.776 3.596-5.328 4.236h-.762v4.203l1.49-1.258c.242.022.364.144.364.364 0 .11-.364.662-1.092 1.655h2.548c2.206-2.096 3.43-3.508 3.673-4.236h.761c0 .706-.981 2.052-2.945 4.038v.198h1.655l1.29-1.29c.243.022.364.143.364.364v.165l-.364.563v.198h1.093V55.5l.53.364v-3.31c0-.198-.177-.386-.53-.562v.927l-1.291-.927H18.93c-2.118 0-3.53 1.103-4.236 3.31zm6.618-2.382h.166v1.29h-.166zm-9.564 1.29v.728c.199 0 .386-.187.563-.562v-.53l-.199 1.29c-.243-1.268-.364-1.146-.364-.926zm.728.53v7.347h.397c2.295 0 3.883-.916 4.766-2.747v-.927c-.243-1.346-.86-2.018-1.853-2.018l-1.655.198c-.353-.485-.53-.85-.53-1.092 0-.552.177-1.103.53-1.655h-.166c-.992.42-1.489.717-1.489.894zm8.638-.53h.198v1.29h-.364c-.132-.44-.198-.694-.198-.76.243 0 .364-.177.364-.53zm-9.366 8.075v.728h.563v-.728zm0 6.255v.364h.364c.199 0 .386-.187.563-.562-.243 0-.364-.122-.364-.364-.177 0-.364.187-.563.562zm3.674.364h.198c.64 0 1.004-.187 1.092-.562h-.728c-.176 0-.364.187-.562.562zm3.143 0h.729c.242 0 .364-.121.364-.364v-.198h-.563c-.177 0-.353.187-.53.562zM38.404.2h16.15c5.45 0 9.554 1.346 12.311 4.037 3.067 2.935 4.6 7.038 4.6 12.311V27.37c0 4.501-1.776 8.55-5.328 12.146l7.513 29.553-.728.562H61.736c-.53 0-1.457-3.243-2.78-9.73-.596-1.963-1.876-7.225-3.84-15.786h-5.692v24.954c0 .199-.187.386-.562.563H38.404c-.199 0-.386-.188-.563-.563V.761c0-.199.188-.387.563-.563zm16.349.728v.199c1.125.353 2.162.53 3.11.53h.563V1.49c0-.243-.121-.364-.364-.364H57.5c-.132 0-.198.055-.198.165-.552-.242-1.346-.364-2.383-.364h-.165zm-15.455.729v3.508c2.051-.375 4.754-.684 8.108-.927C57.864 6.29 65.33 9.29 69.81 13.24c-.618-2.846-1.478-5.052-2.581-6.619h.199l.893.563v-.199l-1.82-2.019h-.563c.53.596.96 1.148 1.29 1.655h-.198c-5.847-3.045-9.696-4.7-11.55-4.964H39.298zm20.22.198v.199c.397 0 .706.055.927.165l.364-.562h-.364zm1.093.563c.133.353.508.53 1.125.53h.364l.927-.166c-.198 0-.695-.122-1.49-.364zm2.018 0-.165.364v.165c.11 0 .287.066.53.199l.363-.563zm.365.893v.198c0 .265.496.508 1.489.728 0-.176-.497-.485-1.49-.926zm1.853.927.563.364h.364l1.655-.166c0-.198-.188-.386-.563-.562-.243.022-.364.143-.364.364zm-25.55 1.655v2.019c1.457-.375 3.486-.563 6.09-.563h.53c7.236 0 14.406 2.207 21.51 6.62 0 .132.85.804 2.549 2.018l1.654-1.29c-1.963-1.766-4.589-3.476-7.876-5.13C57.2 6.63 52.049 5.164 48.299 5.164h-3.31c-.816 0-2.713.243-5.692.728zm-.728-.166v.165h.563V5.33h-.199c-.242.044-.364.176-.364.397zm0 2.382v.53h.563v-.53zm.729.53v2.02c2.338-.486 4.423-.729 6.254-.729.795 0 2.758.243 5.891.728h3.674c2.383 0 4.28.927 5.692 2.78a47.436 47.436 0 0 1 9.167 5.693l.562-1.854c-4.126-3.949-10.303-6.828-18.533-8.637a36.77 36.77 0 0 0-5.328-.364h-1.854c-1.368 0-3.022.12-4.964.364zm-.729 2.383v.563h.563l.562-.728c-.243.11-.43.165-.563.165zm.729.563v2.747c2.206-1.942 4.29-2.913 6.254-2.913.684 0 1.479.177 2.383.53l.199-.927c-.618 0-1.534-.055-2.747-.165-1.236 0-3.265.242-6.09.728zm9.365-.729v.166a12.19 12.19 0 0 0 3.144.397H52.9v-.199c-1.368-.243-2.35-.364-2.945-.364h-1.29zm-.53 1.291v.53c.023.264.144.397.365.397h.165l.562-.761c-.11 0-.287-.055-.53-.166zm1.291 0v20.188h6.057c3.066-.574 4.6-2.284 4.6-5.13V17.11c0-3.309-1.6-4.964-4.799-4.964zm-9.564 4.6c.133.354.497.53 1.092.53 1.346-.574 2.019-1.246 2.019-2.019 1.39-.617 2.13-.926 2.217-.926l2.747.364 6.42-1.82c-7.214-.243-7.766-.364-8.075-.364h-1.29c-2.317 0-4.027 1.158-5.13 3.474v.762zm19.824-3.507c.353.618.607.927.762.927h.364c-.199-.618-.574-.927-1.126-.927zm10.292.364v.563c0 .177.243.42.728.728-.198-.86-.44-1.29-.728-1.29zm-31.407.926v.728h.563v-.728zm22.605.166v.198c0 1.192.673 1.986 2.019 2.383.706 0 2.967 1.412 6.784 4.236V20.42c-4.611-3.684-7.546-5.593-8.803-5.725zm-13.04.198v.728c0 .132.055.199.165.199l-.165.364v.728h.53l.562-1.655c0-.243-.121-.364-.364-.364h-.166zm-3.31.562v.364c.486 0 .728.056.728.166l.927-.166c.883.11 1.368.166 1.456.166 0-.243-.728-.485-2.184-.728-.22.132-.53.198-.927.198zm-5.89.365c0 .86-.122 1.412-.365 1.654v.53h.563V15.82h-.199zm21.875.166v1.853h.166c0-.242.121-.364.364-.364l.563-.728c-.243-.309-.365-.563-.365-.761h-.165zm9.366.364v.563c0 .176.176.364.53.562l.562-.562c0-.177-.177-.364-.53-.563zm-30.878 1.852v1.82c2.493-.97 5.009-1.456 7.546-1.456h1.092l.563-1.655c-1.655-.11-2.88-.165-3.674-.165h-.165c-.31 0-1.291.485-2.946 1.456H39.86zm22.24-.562v1.654c1.478.596 3.066 1.512 4.765 2.747 1.103-.243 1.655-.485 1.655-.728-1.148-1.258-3.288-2.482-6.42-3.673zm-13.403.926v2.946h.165c0-.596.122-1.026.364-1.29l.563-1.656h-.53zm12.675.365v.926c.11 0 .287.056.53.166v-.53c0-.198-.177-.386-.53-.562zm-21.511 2.02v1.853h.198c2.471-.86 5.108-1.478 7.91-1.853l.53-1.291c-.243-.11-.916-.232-2.02-.364-2.603.375-4.81.926-6.619 1.655zm30.877-1.458v.53c0 .198.176.386.53.562v-.562c0-.177-.177-.353-.53-.53zm-31.606.927v.728h.199c.243 0 .364-.121.364-.364v-.562c-.243.132-.43.198-.563.198zm22.967 0v1.092c1.677 1.456 2.902 2.317 3.674 2.582l.364-1.291c-.662-.552-1.942-1.346-3.839-2.383h-.199zm-.727.893v2.78c.022.243.144.364.364.364h.166v-.563c0-.286-.055-.53-.166-.728.11-.22.166-.463.166-.728l.562-.562c0-.177-.176-.364-.53-.563zm-21.512 2.78v.365c0 .154.31.452.927.893l6.255-1.82h.927v-.199c0-.86-.497-1.29-1.49-1.29-4.412.949-6.619 1.632-6.619 2.052zm30.878-2.051v1.125c.11 0 .286.055.53.165v-.728c0-.176-.177-.364-.53-.562zM66.5 23.697v.199c0 .242.607.43 1.82.562v1.092c0 1.721-1.776 2.825-5.328 3.31h-.165l-.927-.728c.088-.75.21-1.125.364-1.125-.22-1.346-.463-2.02-.728-2.02v2.218c0 2.957-1.589 5.097-4.766 6.42-1.544.729-2.768 1.093-3.673 1.093h-.761c-2.25 0-4.755-1.346-7.513-4.038-.22 0-2.063-1.588-5.526-4.765v4.236c4.456 4.523 8.56 6.784 12.31 6.784 3.134 0 5.527-1.346 7.182-4.037h.364c.243 0 .364.187.364.562-.485 1.368-1.831 2.592-4.037 3.674-1.589.485-2.88.728-3.872.728-3.862 0-7.965-2.14-12.312-6.42v1.621c3.53 3.684 6.785 5.527 9.763 5.527l.894.198v.166l-.364.562c.198 0 2.096.43 5.692 1.291 0-.154 1.225-.65 3.674-1.49 2.096-2.14 3.75-4.952 4.964-8.438.088 0 2.107-1.037 6.056-3.111v-4.799c-.088 0-.574-.121-1.456-.364h-.927c-.485.728-.85 1.092-1.092 1.092zm-18.367-.894v1.456c.11 0 .287.066.53.198v-1.125c0-.176-.177-.353-.53-.53zm13.402.166v.728c.464 0 .95.551 1.457 1.654l2.415 2.02c.486-.177.729-.354.729-.53v-.364c-.287-.618-1.755-1.788-4.402-3.508h-.199zm-22.966.364v1.655c0 .198.187.386.562.562v-.562a1.39 1.39 0 0 0-.198-.728c.132-.221.198-.464.198-.729v-.364c-.243.11-.43.166-.562.166zm2.746 2.58c.199 1.104.695 1.655 1.49 1.655 1.345-.485 3.055-.915 5.13-1.29v-1.82h-.53c-.75 0-2.78.485-6.09 1.456zm25.55-.562v.364h.165l.562-.364zm-18.732 1.125v.53h.53l.727-.53zm-4.236 2.02v.165c0 .133.617.684 1.853 1.655.949 0 1.677-.309 2.184-.927v-2.184h-.165c-1.236 0-2.526.43-3.872 1.29zm19.294-1.291v.562h.562v-.198c0-.243-.132-.364-.397-.364h-.165zm6.784 2.58c.31 0 .552-.496.728-1.489v-1.092c-.397 0-.64.86-.728 2.581zm-21.842-.198v.728h.53l1.256-.728zm15.985 11.02c.595 4.899 1.445 7.348 2.548 7.348v-.729h.199c.375 2.317.805 3.475 1.29 3.475v-.165C67.052 46.3 66.5 44.027 66.5 43.719h-.198v.397c.243 1.522.364 2.438.364 2.747v.364H66.5c-1.235-5.075-1.853-7.833-1.853-8.274 1.478-1.324 2.217-2.79 2.217-4.402.86-2.272 1.412-3.497 1.655-3.673.243-.331.364-.761.364-1.29-1.743.639-2.78 1.5-3.11 2.58-1.06 3.2-1.611 6.013-1.655 8.44zm-25.55-10.822v.53c0 .198.188.386.563.562v-.562c0-.177-.187-.353-.562-.53zm8.638 1.458c0 .176.243.419.728.728v-1.457c-.176 0-.42.243-.728.729zm17.44.198c0 .573-1.103 2.89-3.31 6.95v2.217c0 2.449.806 4.104 2.417 4.964h.165c-.485-1.787-.728-3.078-.728-3.872 0-3.729.607-7.148 1.82-10.26h-.364zm4.6 0-1.091 2.747v.165h.165l1.125-2.747 1.787-.165zm-21.113.728v.728c0 .177.242.42.728.729h1.853v-.166l-.926-.199h-1.126l1.986-1.092h-.53zm-9.565.529v.927c0 .176.188.364.563.562v-.926c0-.177-.187-.364-.563-.563zm16.184.76v.166h1.257c.199 0 .386-.187.563-.562H55.48c-.31.264-.552.397-.728.397zm-15.455 1.094v2.383c1.897 1.72 3.982 2.58 6.254 2.58h1.092v-.198c-1.213-.11-3.662-1.698-7.346-4.765zm27.005 3.473c.75-.419 1.125-.97 1.125-1.654v-.166c-.397 0-.772.607-1.125 1.82zm-27.734-1.09v.727c.133 0 .32.066.563.199v-.563c0-.243-.121-.364-.364-.364h-.199zm.729 1.29v2.019c1.345-.176 2.018-.42 2.018-.728-.242 0-.915-.43-2.019-1.29zM59.154 41.9c.618.375.927.805.927 1.29h.53c-.244-1.412-.365-2.393-.365-2.945v-.728h-.165c-.618.176-.927.97-.927 2.383zm-20.585-1.656v1.291c.243-.132.43-.199.563-.199v-.728c0-.242-.121-.364-.364-.364zm.728 1.093v6.056c1.788-.485 4.667-.904 8.638-1.257V44.28c0-.948.243-1.5.728-1.654h6.983c.53 0 1.147 1.842 1.854 5.526 3.485 1.655 6.298 3.553 8.439 5.693.485 0 1.467.85 2.945 2.548v-.165c-1.037-4.656-1.831-6.983-2.383-6.983-1.434-.971-2.901-2.262-4.401-3.873-5.582-3.287-10.668-4.93-15.257-4.93-3.022.11-5.538.408-7.545.893zm17.64.198c.243.243.618.365 1.126.365l.165-.729c-.242-.132-.43-.198-.562-.198-.486.176-.728.364-.728.562zM48.135 46.3v.728h.53l2.183-.728zm-8.837 2.384v1.291c.045.243.177.364.398.364h.364c1.368-1.103 3.386-1.655 6.056-1.655h1.456l.364.199V47.03c-5.758.507-8.638 1.059-8.638 1.654zm-.728-.53v.53c.243-.11.43-.166.563-.166v-.728h-.199c-.242.022-.364.143-.364.364zm18.203-.198v.198c.11.397.353.64.728.728v-.364c0-.198-.188-.386-.563-.562h-.165zm-8.638 1.09v.564h.53l2.713-.563zm9.729.2v.166c.132.508.198 1.192.198 2.052h-.397v.364c0 .177.188.353.563.53h.198l-.198-.364v-.53h.198c2.008.64 5.494 3.387 10.458 8.24 0 .2.43.63 1.291 1.291-.176-1.72-1.037-3.254-2.581-4.6-1.986-2.051-5.23-4.434-9.73-7.148zm-17.076 2.217c.33.265.937.563 1.82.894.353-.243 1.213-.42 2.581-.53l2.747.364V49.61h-.165c-4.656 0-6.983.618-6.983 1.853zm-2.218-1.654v.53c0 .198.188.386.563.563v-.563c0-.177-.187-.353-.563-.53zm.729 1.456v3.475c3.706 2.581 6.53 6.387 8.472 11.417h.165v-6.254c-1.103-1.743-3.982-4.623-8.638-8.638zm8.836 1.091v.563h.53l3.242-.563zm10.457.365a14.33 14.33 0 0 1 .729 3.31h-.166l-.563-.365c.243.728.486 1.092.729 1.092h.198l-.198-.364v-.364c3.441 1.942 7.303 4.7 11.583 8.274v-.199c0-.838-.916-2.062-2.747-3.673-4.325-4.457-7.513-7.027-9.565-7.711zm-15.223.563v.198c0 .574 1.522 1.06 4.567 1.456V52.92h-4.203c-.243.022-.364.143-.364.364zm-4.798 1.092v.76c.132 0 .32.056.562.166v-.562c0-.243-.121-.364-.364-.364h-.198zm9.564.76v.365c.022.243.143.364.364.364h.165v-.563c-.11 0-.287-.055-.53-.165zm-8.836.53v1.854c3.86 3.86 6.442 7.413 7.744 10.656h.728v-.198c-2.361-4.876-4.689-8.616-6.983-11.22zm6.618 0v.199c0 .33.673 1.004 2.02 2.019v-2.019l-.894-.199zm-7.347 1.49v.53c0 .198.188.385.563.562v-.563c0-.176-.188-.353-.563-.53zm30.679 0c.33 1.213.695 1.82 1.092 1.82-.331-1.214-.695-1.82-1.092-1.82zm-9.564.165c.552 2.692 1.236 4.038 2.052 4.038.64 0 3.453 2.272 8.44 6.817h1.82c0-1.302-1.655-3.265-4.965-5.89-1.125-1.082-3.144-2.428-6.056-4.038 0-.155-.364-.464-1.092-.927h-.199zm-11.55.728v1.291l.364 1.29h.165v-2.58h-.53zm-8.837.761v1.457c3.31 4.103 4.965 6.552 4.965 7.346 0 .177.187.365.562.563h.927v-.198l-1.854-3.873c-1.765-2.449-3.298-4.213-4.6-5.295zm-.728 1.258v.761c0 .177.188.353.563.53v-.927c0-.243-.121-.364-.364-.364zm21.115.199c.133.728.442 1.092.927 1.092 0-.486-.309-.85-.927-1.092zm10.855 1.456v.198c0 .64.309 1.125.927 1.456 0-.75-.31-1.301-.927-1.654zm-9.73.198c.265 1.589.817 2.626 1.655 3.111.64.397 1.986 1.445 4.038 3.144h2.184c-2.56-2.67-5.13-4.755-7.711-6.255zm-21.512.166v2.217c0 .684.86 1.975 2.582 3.872h1.489v-.198c-.441-1.037-1.732-3-3.872-5.891h-.199zm21.314 1.654v.199c.155.552.397.86.728.927v-.364c0-.199-.242-.453-.728-.762zm-22.042.199v1.29c.243.31.364.552.364.729h.199v-1.291c-.243-.309-.364-.552-.364-.728zm32.699 1.092c.33 1.346.694 2.019 1.092 2.019-.265-1.346-.63-2.019-1.092-2.019zm-9.532.364c.331 1.854.63 2.78.894 2.78h2.217c-.684-.838-1.72-1.765-3.11-2.78zm-22.44 1.124v1.655h1.291c-.728-.926-1.092-1.478-1.092-1.655zm8.837.894v.563l.165.926h.364v-.198l-.364-1.29zm13.402.199v.165c.243.75.486 1.125.728 1.125h.729c0-.154-.486-.584-1.457-1.29zm-20.584.728c0 .176.188.364.563.562h.562c0-.198-.187-.386-.562-.562zm2.78 0c0 .176.177.364.53.562h.562v-.198c0-.243-.121-.364-.364-.364zm2.383 0c.11.242.165.43.165.562h.927c-.11-.242-.165-.43-.165-.562zm19.46 0c0 .176.187.364.562.562h.893c0-.198-.176-.386-.53-.562h-.926zm3.673 0c0 .176.187.364.562.562h.728c0-.198-.187-.386-.562-.562zM91.337 0h14.43c.55 0 1.29 3.574 2.217 10.722 3.684 21.18 6.938 40.697 9.762 58.544l-.53.365H106.13c-.551 0-1.103-2.648-1.655-7.943-.132-.177-.562-2.758-1.29-7.744h-9.432L91.17 69.433l-.364.198H79.721c-.31 0-.497-.242-.563-.728.375-2.713 4.258-25.56 11.65-68.538zm.562.728v.199c.177 0 .42.121.729.364h.926c0-.177-.176-.364-.53-.563H91.9zm3.508 0c.133.375.508.563 1.126.563h.728v-.199c0-.243-.122-.364-.364-.364zm3.508 0c0 .199.188.386.563.563h.926v-.199c0-.243-.12-.364-.364-.364h-1.125zm4.635 0c0 .199.176.386.529.563h.761c0-.177-.187-.364-.562-.563zm-11.452.76-.563 2.946c2.626 2.361 4.534 6.178 5.726 11.451l.364.199c.375-.464.562-.905.562-1.324l1.688-.728c0-4.435-1.974-8.616-5.924-12.543h-.165zm2.019 0v.166c3.331 3.862 4.997 7.744 4.997 11.65.088 0 .21.187.364.562 1.103-.53 1.655-1.335 1.655-2.416 0-3.199-1.721-6.52-5.163-9.961h-1.853zm3.707 0c2.824 3.531 4.236 6.73 4.236 9.598.132 0 .199.122.199.364h.165c.618-.286.927-.904.927-1.853l1.688-.165c0-2.869-1.357-5.516-4.071-7.943h-1.456zm3.143 0c2.207 2.362 3.31 4.943 3.31 7.745v.364h.198c.97-.397 1.456-1.258 1.456-2.581l-.364-2.383 1.688-.199h.199l.728 4.6c.242 0 .364-.121.364-.364-.486-4.434-1.037-6.652-1.655-6.652.11.199.232.883.364 2.052v.166h-.199c-.33-1.17-.882-2.085-1.654-2.747h-2.747zm-9.994 2.583-.166.364V5c.022.243.144.364.364.364L91.337 5l1.688-.563c0-.242-.122-.364-.364-.364zm.198 2.018v.199c-.242 1.831-.364 2.813-.364 2.945 2.118 3.685 3.288 6.95 3.508 9.796h.166c1.235-.75 1.853-1.489 1.853-2.217l1.688-.728c-1.478-4.788-2.957-7.998-4.435-9.63l-.562-.365h-.166zm-1.125 2.58c0 .376-.055.806-.165 1.292.242 0 .364.187.364.562h.165c0-.551.066-.915.199-1.092-.177-.507-.364-.761-.563-.761zm9.067 7.216c.11.243.166.43.166.562 3.883-1.367 6.354-2.051 7.413-2.051l.364-.364c0-.728-.254-2.262-.761-4.6-2.295 1.654-4.689 3.805-7.182 6.453zm-8.703-4.799-.53 2.946c1.324 2.713 2.24 4.997 2.748 6.85h.198l1.092-.926v-.199c-.419-.53-.85-2.063-1.29-4.6l-2.02-4.07h-.198zm-1.092 2.383c0 .286-.066.54-.198.76.132.2.198.442.198.729h.364v-.563l-.165-.926h-.199zm17.905.562.199.364v.927h.562v-.166l-.198-1.29h-.199zm-7.745 3.145c0 .64.121 1.93.364 3.872h.198c2.229-.86 4.81-1.29 7.744-1.29l.199-.365-.563-3.872h-1.125c-.11 0-.165-.066-.165-.198a59.807 59.807 0 0 0-6.652 1.853zm-9.961-1.291-.563 4.6c0 .882.86 1.324 2.581 1.324l.199-.397c-.265-1.744-1.004-3.586-2.217-5.527zm8.107 2.02h.199c.353 0 .53-.243.53-.728-.111-.243-.166-.43-.166-.563.176 0 .364-.243.562-.728h-.397c-.353 0-.596.673-.728 2.019zm.927-1.093v.165c.022.265.143.397.364.397h.199v-.562h-.563zm-5.36 4.997c0 .264.981.628 2.945 1.092h.198c.243-.133.43-.199.563-.199 0-.419.187-1.886.562-4.401-1.456.64-2.879 1.809-4.269 3.508zm-4.998-2.415v.927l.198.926c-.176 0-.364.188-.562.563v.165h.562l.364-1.853a1.48 1.48 0 0 1-.165-.728h-.397zm20.155.363v.728h.563v-.364c0-.243-.133-.364-.397-.364h-.166zm-8.308 2.416.166 1.29v.563c3.905-1.368 6.674-2.052 8.306-2.052l-.165-.364v-.926h-.199c-3.42 0-6.122.496-8.108 1.489zm-.76-.76v.76h.198c.243 0 .364-.121.364-.364v-.562c-.243.11-.43.165-.562.165zm-.927.197-2.747 20.883h5.89c-.86-5.406-1.841-12.367-2.945-20.883h-.198zm-9.763.563-.927 4.799h.728c2.008 0 4.534.485 7.58 1.456.242-.331.363-1.798.363-4.402-1.853-.75-3.089-1.125-3.706-1.125H91.17c0-.375-.86-.618-2.58-.728zm20.12 0v.53h.563l.364-.53zm-11.813.927v1.092h.166c.22 0 .408-.552.562-1.655-.485.177-.728.364-.728.563zm3.872 2.218 1.655 1.29c1.72-.86 3.938-1.29 6.652-1.29-.243-.728-.364-1.534-.364-2.416h-.199c-5.163.772-7.744 1.577-7.744 2.416zm-1.125-.763c.132.86.32 1.291.562 1.291h.199v-.166l-.199-1.29c-.242.11-.43.165-.562.165zm9.63.927v.728h.529l.926-.728zm-8.703.927c.507 2.56.76 4.346.76 5.361h-.198l-.364-.198v.364c0 .198.188.386.563.562v-.728c2.912 2.207 4.567 3.31 4.964 3.31a17.54 17.54 0 0 0 2.78.198c-.552-1.632-3.2-4.523-7.943-8.67l-.364-.199h-.198zm3.143.927v.198l.761.728c1.213-.132 2.13-.198 2.747-.198h2.217l-.165-1.655h-2.218c-2.228.133-3.342.441-3.342.927zm-16.812-.198v.397h.563l1.456-.397zm.563.926v.927h.198c2.45 0 5.152.552 8.109 1.655v-.53l.198-.926c-1.787-.618-4.192-1.17-7.214-1.655-.86.154-1.291.33-1.291.53zm22.173.199v.165c.11.265.165.452.165.563h.563v-.166c-.11-.264-.166-.452-.166-.562zm-13.502.562v.364h.563l2.581-.364zm9.63.166v.199c0 .22.485.838 1.456 1.853h2.416l.364.166c-.155-1.479-.397-2.218-.728-2.218h-3.508zm-19.228.199v.562h.563l3.144-.562zm.364 2.018c1.478.044 4.313.728 8.505 2.051v-.397l.199-1.29c-2.934-1.214-5.582-1.82-7.943-1.82h-.198c-.243 0-.43.485-.563 1.456zm8.87-.365v.563c.044.243.165.364.364.364h.198v-.728c-.132 0-.32-.066-.562-.199zm-9.598.563v.53h.563l3.706-.53zm24.026 0v.53h-1.688v.562c.375.618.872 1.235 1.49 1.853h.562c-.242-1.103-.364-1.908-.364-2.416h.364l.364.199a1.389 1.389 0 0 1-.198-.728h-.53zm-23.463.728v.199h.728l4.269-.199zm1.456.199v.165l.927.199h.76l4.998-.199-5.924-.165zm-2.217.728v.364h.562l-2.747 17.01.364-.198h.166v.364c-.86 1.964-1.29 3.133-1.29 3.508 0 .31-.056.806-.166 1.49 1.213-1.324 1.886-2.008 2.018-2.052.243.044.364.176.364.397v.364l-2.78 2.945v-.728c-.286 0-.529.43-.728 1.291l.729-.563v.199l-.53 3.674c.11 0 1.589-1.534 4.435-4.6h.165v.165c0 .838-1.655 2.813-4.964 5.924v-.728c-.287 0-.54.43-.761 1.29h.198c0-.198.188-.386.563-.562v.198c0 .508-.254 2.041-.761 4.6 2.338-1.72 5.107-4.49 8.306-8.306h.199v.165c0 .971-2.405 3.685-7.215 8.142-.397.375-.706.562-.926.562v.166h2.614c.949-.42 3.409-2.758 7.38-7.016v.76c.243 0 .486-.43.728-1.29l-.728.53v-.166l1.092-7.942h-.165c-1.236 0-2.714-1.479-4.435-4.435-.375-1.875-.562-2.924-.562-3.144 0-2.89 1.103-4.49 3.31-4.799l.198-.926a4.977 4.977 0 0 1-.199-1.291c1.478-.22 2.217-.838 2.217-1.853-.551-1.346-1.224-2.328-2.018-2.946-.066 0-.872.055-2.416.166l-.364-.53-.927.166h-.364v-.729h-.165c-.265.023-.398.144-.398.365zm15.522-.198c0 1.015.43 1.942 1.29 2.78.75-.243 1.125-.485 1.125-.728-1.456-1.368-2.261-2.052-2.415-2.052zm-9.599.397c.773 1.478 1.82 2.217 3.144 2.217l.199-1.324c-1.92-.596-3.034-.893-3.343-.893zm3.508.166v.728c.133 0 .32.066.563.198v-.728c-.132 0-.32-.066-.563-.198zm5.726.727v.76c.375.398.563.707.563.927h.165c-.154-1.125-.397-1.687-.728-1.687zm9.598.398v.53c.044.264.165.396.364.396h.397c-.155-.595-.408-.904-.761-.926zm-8.473 2.945c0 1.346.982 2.018 2.946 2.018h.364c.154 0 .827-.12 2.019-.364.75.795 1.125 1.909 1.125 3.343v.927c0 2.383-1.17 4.467-3.508 6.254-.133 0-.32.067-.563.199a1.389 1.389 0 0 0-.728-.199c0 .199-.243.453-.728.762h-.199l-.198-.762c.265-.397.397-.76.397-1.092v-.198c-.353-2.207-1.467-3.31-3.343-3.31 0-.132-.364-.198-1.092-.198-.838 0-1.577.496-2.217 1.49 0 .11.794.473 2.383 1.091.375.97.562 1.655.562 2.052v1.092c-.684 1.103-1.301 1.655-1.853 1.655v.198h5.163c.97 0 1.588.31 1.853.927v1.092h.199c3.574-3.839 5.361-6.917 5.361-9.233.331 0 .883-1.103 1.655-3.31h.165c0 .486.067.982.199 1.49h.198l.166-.761c-.42-3.2-.728-4.8-.927-4.8l-.364-.165v.166c.243 1.633.364 2.493.364 2.581v.199h-.165c0-.905-.805-2.196-2.416-3.872-.794-.508-1.842-.817-3.144-.927 0 .243-.121.364-.364.364h-.364c-.31-.243-.552-.364-.728-.364-1.214.463-1.953 1.015-2.218 1.655zm-7.215-1.49v.364c.022.265.144.397.364.397h.2v-.397c0-.242-.122-.364-.365-.364zm-1.489.199c-.11.485-.165 1.224-.165 2.217.485.243.85.364 1.092.364.132-.22.254-.96.364-2.217zm7.944 1.092c.132 1.368.386 2.052.76 2.052v-.198c-.132-1.037-.198-1.832-.198-2.383h-.198c-.243 0-.364.176-.364.53zm-6.819 1.854v.728h.166c.265 0 .397-.121.397-.364s-.132-.364-.397-.364h-.166zm-2.945.198c-.375.773-.563 1.324-.563 1.655 1.258.132 2.24.375 2.946.728l.198-1.29v-.365c0-.375-.86-.617-2.58-.728zm10.889.729v.199c0 1.632.673 3.044 2.018 4.236.442.86.75 1.29.927 1.29l1.29-.198v-.166c-.33 0-1.124-1.114-2.382-3.342-1.06-1.346-1.677-2.02-1.854-2.02zm2.018.198-.166.364c1.831 2.56 2.747 3.972 2.747 4.236h.199v-.562c-1.17-2.692-2.096-4.038-2.78-4.038zm2.052.165c0 .375.297 1.059.893 2.051h.199v-.397c-.243-1.103-.486-1.654-.728-1.654h-.364zm4.964.2h.199v1.092h-.199zm-22.14 1.09c-.75.707-1.125 1.27-1.125 1.689h1.29c1.876 0 3.905.672 6.09 2.018.53-.176.904-.485 1.125-.926 0-.177-.188-.364-.563-.563h-1.853c-.177 0-.364-.176-.563-.53l2.25-.926c-.286 0-.96-.188-2.018-.563-.22 0-.717.122-1.49.364zm4.798.199c0 .11-.066.298-.198.563.132 0 .32.055.562.165 0-.11.056-.298.166-.563-.11 0-.287-.055-.53-.165zm7.943.166v.563c0 .198.177.386.53.562v-.562c0-.177-.177-.364-.53-.563zm-6.486 1.125c.132.375.507.563 1.125.563h.364c0-.199-.188-.386-.563-.563h-.926zm3.706 0c.11.243.165.43.165.563h1.125c0-.199-.187-.386-.562-.563zm1.655.729 2.78 2.416h.563v-.199c-.353-.706-.85-1.5-1.49-2.383-.44.11-1.059.166-1.853.166zm-13.106 1.29c.11.507.353.76.729.76 3.199 0 5.725.86 7.578 2.582l2.019 1.654h.199v-.728c0-1.368-.982-2.051-2.946-2.051 0-1.479-2.03-2.582-6.09-3.31-.992.265-1.489.629-1.489 1.092zm23.995-.926v.563h.198l3.872-.563zm.562.563v.728h.563v-.166c-.133-.242-.199-.43-.199-.562zm-2.384 4.434h2.383c.243 0 .364-.121.364-.364-.243-1.964-.485-2.946-.728-2.946-.949 0-1.622 1.104-2.019 3.31zm-5.924-1.854v1.29c.883 0 1.622-.672 2.218-2.018h-.199c-.154 0-.827.243-2.019.728zm-15.885-.364c0 .066.243.805.729 2.217h.562c1.5 0 3.718.806 6.652 2.416h.364c.243-.132.43-.198.563-.198v-.199c0-1.28-1.721-2.692-5.163-4.236a6.417 6.417 0 0 0-1.49-.166h-.926zm24.756 2.218c.11.243.165.43.165.563h.563a1.605 1.605 0 0 1-.166-.729c-.264.11-.452.166-.562.166zm-5.163 3.341h.165c2.118-.617 3.84-.992 5.163-1.125v-.198c0-.86-.121-1.291-.364-1.291-2.493 0-4.027.563-4.6 1.688-.243.397-.364.706-.364.926zm-17.74-2.216c.574 1.103 1.314 1.655 2.218 1.655h2.217c-1.456-1.103-2.934-1.655-4.434-1.655zm-7.776 2.945v.166h.198c.485-1.037.728-1.71.728-2.019-.353.088-.662.706-.926 1.853zm31.041-1.654c.133.243.199.42.199.53h.53v-.166c0-.242-.122-.364-.365-.364h-.364zm-5.923 2.018h-.166l-.364-.198c-.993 1.125-1.489 1.743-1.489 1.853h.199c2.846-.728 5.548-1.092 8.108-1.092-.089-1.236-.276-1.853-.563-1.853-.882 0-2.79.43-5.725 1.29zm-14.76-.926v.198l.927.166h1.489c.287 0 .838-.122 1.655-.364v-.166h-3.144zm21.246 1.489v.364c.022.243.143.364.364.364h.199v-.728h-.563zm-9.796 1.092v.563l.199.926c.243 0 .364-.121.364-.364v-.562l-.199-.927c-.242.044-.364.166-.364.364zm.927 1.49v.363l.166 1.291c3.706-1.103 6.111-1.655 7.214-1.655l.364.166a2.323 2.323 0 0 1 1.291-.364c-.044-1.103-.165-1.655-.364-1.655-5.78.794-8.67 1.412-8.67 1.853zm9.233 0v.165c.133.265.199.452.199.562h.53a1.605 1.605 0 0 1-.166-.728zm-8.868 2.78.198 1.82v.198l4.038-1.29v-1.854h-.53c-.353 0-1.588.375-3.706 1.125zm5.163-.762c0 .199.308 1.004.926 2.416v.364c-.882 1.875-2.052 3.11-3.508 3.707-.662.353-1.213.53-1.655.53l.365 2.216h.562c1.567-1.059 2.857-1.665 3.872-1.82 2.471-1.588 3.707-3.199 3.707-4.832 0-1.963-.993-2.945-2.979-2.945zm4.07-.165v.165l.728 4.27c.264-.133.452-.2.562-.2-.419-2.824-.85-4.236-1.29-4.236zm-9.962.165v.927c.243-.11.42-.166.53-.166l8.505-.76zm1.291 4.27c.11 1.08.166 1.687.166 1.82 2.846-.883 4.269-2.052 4.269-3.509l-.364-.165c-1.236 0-2.593.551-4.07 1.655v.198zm-.76-.927v.926l.562-.364c-.11-.265-.166-.452-.166-.562h-.397zm-20.122 5.89h2.416c1.83-1.103 2.746-2.085 2.746-2.945l.397-2.383zm29.388-3.144.894.199h.198a5.634 5.634 0 0 1-.198-1.49c-.155 0-.453.43-.894 1.291zm-8.87.199v.728h.53l14.594-.728zm10.16.364v.364c.022.265.143.397.364.397h.364a1.45 1.45 0 0 1-.199-.76h-.53zm-25.681 1.29h.165l.563-.727v-.364c-.243 0-.486.364-.728 1.092zm22.902-.926-.563.927a53.39 53.39 0 0 1 3.508 1.29v-.364c0-.97-.243-1.456-.728-1.456-.132-.132-.871-.265-2.217-.397zm-23.829 2.217h.728v-.728c-.176 0-.419.243-.728.728zm-9.432.563h.199c.176 0 .364-.188.562-.563v-.364c-.507.133-.76.442-.76.927zm30.116-.728v.165h3.31v-.165l-2.218-.199h-.166zm-26.972.728v.199h.927c.176 0 .364-.188.563-.563h-.729c-.308.243-.562.364-.76.364zm4.07.198h.365c.64 0 1.015-.187 1.125-.562h-.397c-.728.066-1.092.254-1.092.562zm19.759 0h4.07l16.051-.198c-.088 0-.585-.121-1.49-.364h-2.018c-.177 0-.364.187-.563.562zm8.14-.562v.198l1.29.364h.729l16.05-.198-1.29-.364zM124.28.199h11.02c.508 0 1.114 3 1.82 9.001 4.28 25.681 6.42 39.028 6.42 40.045h.2c3.419-21.753 6.056-37.982 7.909-48.681l.53-.364h10.854c.177 0 .42.243.728.728l-12.476 68.34-.563.364h-14.33c-.53 0-1.268-3.431-2.217-10.292C127.204 21.19 123.718 1.6 123.718.563zm4.401.728c0 .177.188.364.563.563h1.092c-.132-.243-.199-.43-.199-.563h-1.456zm3.674 0c.11.243.165.43.165.563h1.655c0-.177-.176-.364-.53-.563zm19.824.365.198.926c.243 0 .42-.364.53-1.092l-.364-.198c-.243.044-.364.165-.364.364zm2.382-.365v.563h.761L172.83.927zm3.145.365v.198h1.29c.133 0 .806-.121 2.02-.364V.928h-2.582c-.309.242-.552.364-.728.364zm-33.26 0c.242 1.103.485 1.654.727 1.654h.199c-.132-1.103-.441-1.654-.927-1.654zm.926.364c4.655 4.302 6.983 7.248 6.983 8.836.154.11.882 2.13 2.184 6.056h.199c.375-.44.562-.871.562-1.29v-.728c0-4.347-2.018-8.638-6.056-12.874h-3.872zm5.494 0c3.177 4.037 4.776 6.917 4.798 8.638h.166v-.53c-.596-4.545-1.203-6.817-1.82-6.817 0-.177-.43-.607-1.291-1.29h-1.853zm22.24 0 .198.927v.198c-.507 0-.761.177-.761.53 1.346-.552 2.019-.916 2.019-1.092v-.563h-1.457zm2.58 0v.199h.893v-.199zm-3.31 1.854c-.242.11-.43.165-.562.165v.563c.375 0 .563.066.563.198l-.728 5.328 9.73-4.236c.242-.794.485-2.085.728-3.872h-2.383c-1.787.397-4.236 1.258-7.347 2.582V3.51zM134.74 2.219c.242 1.72.551 2.58.926 2.58l.894-.198c-.155-1.588-.464-2.383-.927-2.383zm-9.168 1.29c.133 2.14.982 4.402 2.549 6.785 1.478 1.81 2.581 4.876 3.31 9.2h.198c1.213-.728 1.82-1.467 1.82-2.217l.893-.728c-1.676-6.046-4.302-10.392-7.876-13.04zm35.974 2.217c0 .265-.056.507-.166.728h.166c.242-.132.43-.198.562-.198l.894-.53zm-36.172.729c.243 1.213.552 2.195.927 2.945h.165l1.456-.199c-.33-1.83-.695-2.746-1.092-2.746zm25.515 6.982c2.714-1.676 6.09-3.331 10.127-4.964l.166-1.853c-6.597 2.493-9.895 4.093-9.895 4.798-.133 1.17-.265 1.843-.398 2.02zm9.93-4.037h.198c.221-.133.397-.199.53-.199l1.456-.563h-.165c-.199 0-.387.254-.563.762zm-10.292 6.42c.551 0 .926.055 1.125.165 1.456-.595 4.335-1.941 8.638-4.037.242-1.236.364-1.964.364-2.185h-.199c-6.619 2.648-9.928 4.6-9.928 5.858v.199zm.198-5.527v.728c.243-.11.43-.166.563-.166l1.456-.728c-1.7.11-1.887.166-2.019.166zm-23.895.2v.165c.508 2.339.817 4.06.927 5.163v.364h-.166c0-.64-.187-1.004-.562-1.092v.165c0 .728.309 1.831.926 3.31h.166v-.2c-.243-1.168-.364-1.841-.364-2.018v-.165h.198c1.126 3.331 1.799 5.04 2.02 5.13l1.091-.894v-.199c-.485-.507-.85-1.853-1.092-4.037-1.522-3.398-2.57-5.296-3.144-5.693zm9.002 0v.529h.199v-.53zm.199 1.09v.729c0 .066.12.739.364 2.019h.198l.199-.166c-.265-1.081-.397-1.941-.397-2.581h-.166zm24.257.928v.165h.53c0-.265.066-.507.198-.728-.485.198-.728.386-.728.563zm-6.816 3.84c0 .33.86.639 2.581.926 2.449-1.081 3.674-1.81 3.674-2.185 0-.176.12-.849.364-2.018-.199 0-2.405 1.037-6.62 3.11v.166zm-3.476-1.458h.166c.176 0 .364-.188.562-.563v-.53c-.242 0-.485.365-.728 1.093zm-13.237-.563v.563c.044.243.165.364.364.364l.198-.364.199-.728c-.243.11-.43.165-.563.165zm22.967 1.292v.562h.165c.265 0 .397-.121.397-.364l.199-.364c-.243.11-.43.166-.563.166zm-9.73 0-.198.364v.364h.562l.199-.364c0-.243-.121-.364-.364-.364zm-14.528 1.655c.838-.353 1.335-.53 1.49-.53l-.2-.926c-.64.419-1.07.904-1.29 1.456zm1.655-.53v.53h.198c.243 0 .364-.122.364-.365v-.364c-.242.132-.43.199-.562.199zm13.404-.199c-.353 1.5-.53 2.659-.53 3.475 1.743 0 4.49 1.048 8.24 3.144a14.64 14.64 0 0 0 .398-3.31c-3.927-2.073-6.63-3.176-8.108-3.308zm6.816 1.456v.198c.75.376 1.236.563 1.457.563.286 0 .474-.673.562-2.019h-.198c-1.192.64-1.798 1.06-1.82 1.258zm-27.005 4.236c0 .287.982.65 2.946 1.092h.165c2.449-1.346 3.861-2.019 4.236-2.019-.375-2.25-.563-3.53-.563-3.839-1.83.64-3.85 1.92-6.056 3.84-.088 0-.33.308-.728.926zm28.66-2.382v.165c.132 0 .308.066.529.199 0-.31.066-.795.198-1.457-.485.11-.728.475-.728 1.093zm-9.928.728v.199h.562v-.563h-.198c-.243.044-.364.166-.364.364zm.728.365c-.11.264-.232.937-.364 2.018a35.793 35.793 0 0 1 7.91 2.747c.022.265.143.397.364.397.242-1.28.364-1.952.364-2.019-3.111-1.83-5.869-2.879-8.274-3.144zm-11.948.362v.728h.199c.243 0 .364-.121.364-.364v-.364h-.563zm-9.53.927v.199l.165.893h.562c-.176-.728-.419-1.092-.728-1.092zm6.618 1.854c.684.595 1.29.893 1.82.893.75-.485 1.236-.728 1.456-.728-.11-.176-.231-.85-.364-2.019-1.632.552-2.603 1.17-2.912 1.854zm13.767-1.125v.562h.53v-.562zm-19.46.364v.198c.288 3.067.707 4.6 1.258 4.6 2.516.354 5.516 1.942 9.002 4.766l.53-.198c-.486-3.795-.916-5.693-1.291-5.693-4.037-2.449-6.972-3.673-8.803-3.673h-.166zm28.991 0v.562c.045.243.177.365.398.365h.165v-.365c0-.176-.187-.364-.563-.562zm-9 .364c0 .508-.122 1.313-.364 2.416 1.853 0 4.61 1.092 8.273 3.276.243-1.61.364-2.46.364-2.548-1.853-.993-4.61-2.04-8.273-3.144zm-10.624.397-.199.364v.364c.243-.133.43-.199.563-.199v-.165c0-.243-.122-.364-.364-.364zm-.563 1.093c0 .132-.066.308-.199.53l.563.396.53-.926zm10.094.925v.728h.562l.894-.728zm9.565.364v.364c.044.243.165.364.364.364h.165v-.364c0-.243-.121-.364-.364-.364zm-18.931.166v.563c0 .198.243.441.728.728-.154-.86-.397-1.29-.728-1.29zm9.928 2.216c1.81.243 4.38 1.468 7.711 3.674h.166c0-.706.132-1.379.397-2.019-2.736-2.096-5.494-3.265-8.274-3.508v1.854zm-19.46-.925c.111.243.166.43.166.563h.563c0-.177-.188-.364-.563-.563zm.894.727v1.655h-.364v.198c.045.243.166.365.364.365h.2v-.563c2.073 0 5.316 1.897 9.729 5.692 0-1.544-.673-2.581-2.019-3.11-2.427-2.229-5.063-3.64-7.91-4.237zm17.64.198c0 .265-.056.508-.166.729h.364c.243 0 .364-.122.364-.365 0-.242-.121-.364-.364-.364h-.199zm.562.927c-.132.993-.254 1.6-.364 1.82 3.75 1.368 6.376 2.538 7.876 3.508h.199c.11-.86.232-1.412.364-1.654-2.405-1.655-5.097-2.88-8.075-3.674zm8.804 0v.53c.044.242.166.364.364.364v-.728zm-26.642 1.26c0 1.72.673 2.58 2.02 2.58 2.338 1.104 4.302 2.273 5.89 3.509h.364c0-.243.066-.364.199-.364 0-1.346-2.824-3.255-8.472-5.726zm16.713.76v.53h.562l2.152-.53zm.562.727c-.11 1.258-.165 1.986-.165 2.184l5.13 1.854 2.746 1.654.364-2.217c-2.25-1.213-4.942-2.372-8.075-3.475zm8.805.364v.728h.198c.243 0 .364-.121.364-.364 0-.242-.121-.364-.364-.364h-.198zm-26.444.166c.133.221.2.475.2.762h.529v-.2c-.11-.242-.166-.43-.166-.562zm9.565.199c.22.86.463 1.29.728 1.29v-.926c-.199 0-.441-.122-.728-.364zm-8.638.926v.166c0 1.059.552 1.732 1.655 2.019 3.31 2.515 6.188 5.151 8.637 7.91v-.166c0-1.765-.86-3.365-2.58-4.799-1.413-2.228-3.983-3.938-7.712-5.13zm15.786.53c-.243 1.082-.365 1.942-.365 2.582l.364.199c.155-.155.276-1.015.365-2.582zm9.2.762v.364c0 .176.177.353.53.53v-.53c0-.243-.122-.364-.364-.364zm-25.35.164v.728c.132 0 .32.066.563.199v-.563c0-.243-.133-.364-.397-.364h-.166zm9.564.364v.563h.166c.242 0 .364-.121.364-.364v-.364c-.243.11-.42.165-.53.165zm7.71 0c0 1.478.42 2.218 1.258 2.218 1.06.264 2.968 1.301 5.726 3.11l.364-2.382c-3.288-1.788-5.737-2.77-7.347-2.946zm-16.347.927v.199l.364 2.383h-.199c-.242-.133-.419-.199-.53-.199.155.574.398.883.729.927v-.728c1.765.286 4.093 2.118 6.983 5.493.154 0 .827.552 2.018 1.655h.53v-.166c-1.213-2.603-4.335-5.725-9.366-9.365-.22-.133-.397-.199-.53-.199zm7.71.927c0 .794.431 1.401 1.291 1.82v-.165c-.242-1.346-.364-2.207-.364-2.582-.33.089-.64.397-.926.927zm7.513.364v.166c0 .419-.673 4.644-2.02 12.675.994-1.015 1.854-2.912 2.582-5.692.309 0 .794-1.103 1.456-3.31 0-.772-.551-2.052-1.654-3.839h-.365zm8.638.365v.364c.044.242.165.364.364.364h.198v-.364c0-.243-.121-.364-.364-.364zm-6.254.926c.33 1.589.827 2.383 1.489 2.383.066 0 1.29.673 3.673 2.02.243-.751.364-1.236.364-1.457-2.537-1.964-4.379-2.946-5.526-2.946zm-8.44.363c.132.905.375 1.765.728 2.581h.198v-.562c0-.22-.121-.585-.364-1.092l.166-.364c-.11-.243-.166-.43-.166-.563h-.562zm-8.638.563c0 1.566.618 2.603 1.854 3.11l1.092.728h1.092c.265 0 .397-.12.397-.364-1.191-1.698-2.67-2.857-4.435-3.474zM154.96 41.7v.76c.022.243.143.365.364.365l.166-.761zm-23.167.76c.155.552.397.85.728.894v-.364c0-.177-.242-.353-.728-.53zm13.768 0c-.353 2.185-.53 3.409-.53 3.674v.165h.166c.375-1.676.563-2.835.563-3.475v-.364h-.199zm3.508 2.747h.364c.86 0 1.29-.121 1.29-.364-.485-.882-.728-1.434-.728-1.655-.618.552-.926 1.225-.926 2.019zm2.218-1.854c.242.464.364.96.364 1.49h1.257c.265 0 .397-.122.397-.364-1.037-.75-1.71-1.126-2.018-1.126zm-18.567.365c.154.198.276.816.364 1.853h.198c.177 0 .42-.243.728-.728a2.565 2.565 0 0 0-1.29-1.125zm21.676 1.125v.893h.165c.265 0 .397-.121.397-.364v-.893h-.198c-.243.022-.364.143-.364.364zm-20.75 1.82c0 .132.795.507 2.383 1.125.375.926.563 1.6.563 2.019V50.9c-.794 1.213-1.534 1.82-2.218 1.82l2.747 15.455c.243 0 .364-.066.364-.199l1.291.199h5.89c1.501-.927 2.847-1.545 4.038-1.853l2.02-1.655v.926l-.2.364h.365c.286 0 .474-.617.562-1.853l-.728.563V64.5c.486-2.581.728-4.18.728-4.798-.618-.596-1.412-.894-2.383-.894l-1.29.364c.617 1.478.926 2.273.926 2.383v.364c-1.125 2.934-3.761 4.402-7.91 4.402-1.39 0-2.548-1.225-3.474-3.674 0-2.184 1.83-5.119 5.493-8.803v-.364c-.242-2.339-.485-3.508-.728-3.508l-.364.199a1.389 1.389 0 0 0-.728-.199c0 .199-.242.441-.728.728h-.198l-.199-.728c.265-.397.397-.761.397-1.092l4.535-.199c-.353-2.206-1.456-3.31-3.31-3.31 0-.11-.375-.165-1.125-.165-.816 0-1.544.486-2.184 1.457zm8.075-1.29c.089 1.346.276 2.019.563 2.019l.166-.364V46.3c-.31-.596-.552-.905-.729-.927zm-9.2.563c.088 1.235.276 1.853.562 1.853h.199c-.132-1.103-.199-1.787-.199-2.052-.242.133-.43.199-.562.199zm14.694 3.673h.198c2.692-.132 4.468-.198 5.329-.198l.728.198c.242-1.346.364-2.636.364-3.872-4.038 0-6.057.684-6.057 2.052 0 .066-.187.673-.562 1.82zm-5.858-1.821v1.257h.364c.243 0 .364-.121.364-.364v-.165l-.198-.927c-.221.132-.397.199-.53.199zm-7.71.166v1.092h-.2l-.363-.166v.364c.33.596.573.905.728.927l-.166-.927v-.198l1.82 1.49h.199v-.729c-.177-1.236-.728-1.853-1.655-1.853h-.364zm8.637 1.093v.198c.022.243.143.364.364.364h.166v-.926h-.166c-.243.044-.364.165-.364.364zm11.185.76v.53h.563l4.534-.53zm-8.438 3.11h.165c2.45-.727 4.479-1.091 6.09-1.091h1.82c0-.375.066-.805.198-1.29l-.397-.2h-2.383c-3.31 0-4.964.552-4.964 1.655-.265 0-.441.31-.53.927zm-11.02-2.217v.199c.11.199.165.507.165.927h.198v-.563c-.132-.243-.198-.43-.198-.563h-.166zm10.457 1.125c-.485.795-.728 1.401-.728 1.82h-.199v-.363c-.176 0-.352.187-.529.562l.53.364c.507 0 .882-.794 1.125-2.383h-.199zm-10.822.365v.53c.022.242.144.363.364.363l.166-.364v-.728c-.221.133-.397.199-.53.199zm19.46-.198v.562h.563l5.097-.562zm-10.458 3.673h.166c2.846-.728 5.538-1.092 8.075-1.092h1.655v.926h.562v-.76c-.375 0-.562-.122-.562-.365.132-.662.198-1.213.198-1.655h-1.655c-1.544 0-3.684.43-6.42 1.291-.552 0-1.224.552-2.019 1.655zm-3.674 4.964c2.67-1.743 6.222-2.901 10.657-3.475l.364.165c.265-.176.993-.364 2.184-.562 0-.353.066-.772.199-1.258-.883-.132-1.38-.198-1.49-.198-7.832.794-11.748 2.383-11.748 4.765-.11 0-.166.188-.166.563zm13.206-3.475c0 .265-.056.507-.166.728h.364c.243 0 .364-.121.364-.364v-.364h-.562zm-.895.894c0 .176.176.364.53.562l5.659-.562zm-13.072 4.798c.22.552.596.971 1.125 1.258 0-.353.795-.717 2.383-1.092.574-.817 2.284-1.61 5.13-2.383v-1.82h-.53c-1.566.132-3.96 1.103-7.181 2.912-.618 0-.927.375-.927 1.125zm13.602-3.872c0 .42-.055.728-.165.927.176.485.353.728.53.728 0-.618.065-.927.198-.927-.177-.485-.364-.728-.563-.728zm-12.311 5.527c.287.596 1.213.894 2.78.894 2.383 0 4.159-1.159 5.328-3.475v-.199l-.397-.165c-1.015 0-3.034.849-6.057 2.548zm10.127 2.548.364.199h.166l.198-.927v-.165c-.176 0-.419.297-.728.893zm.727.364-.199.761h.563c0-.132.055-.32.165-.562-.11 0-.286-.067-.529-.199zm-2.945.563v.198h2.019v-.198zm-10.457.926h.529c.243 0 .364-.121.364-.364l9.862-.198h-.364c-.176 0-.353.187-.53.562zm7.148 0h3.31v-.198l-1.291-.364h-1.457c-.176 0-.364.187-.562.562zM168.179.001h29.288c.199 0 .386.187.563.562v10.69c0 .176-.188.353-.563.53h-18.4v17.142h12.709c.86 0 1.29.739 1.29 2.217v7.91c0 .948-.254 1.5-.761 1.654h-13.238V57.85h17.673c.684 0 1.114.243 1.29.728v10.491c0 .199-.187.386-.562.563h-29.454c-.199 0-.386-.188-.563-.563V.728c0-.176.243-.42.728-.728zm4.997.926v.166l.894.198h.76c.243 0 .365-.12.365-.364h-2.019zm7.711.166v.199h.563l.926-.199V.928h-.562zm5.89 0v.199h.927l.927-.199V.928h-.563zm-18.036.397v1.82h-.198l-.364-.165v.364c.044.242.165.364.364.364h.198c0-.375.067-.563.199-.563 1.103.243 4.655 2.581 10.656 7.016h5.891c-2.78-2.714-5.725-4.986-8.836-6.817-1.5-1.346-2.603-2.02-3.31-2.02h-4.6zm6.818 0c.882.838 1.622 1.258 2.217 1.258.42 0 1.148-.42 2.185-1.258zm3.31 2.382c.374 0 .562.188.562.563h.165c.221 0 1.27-.563 3.144-1.688 1.479-.728 2.34-1.092 2.582-1.092V1.49h-3.144c-.817 0-1.92.794-3.31 2.382zm2.217 1.093c.397.86.882 1.29 1.456 1.29 5.516-2.823 10.182-4.29 13.999-4.4V1.49h-7.347c-1.876 0-4.578 1.159-8.108 3.475zm15.653-2.945v.364h.563l6.62-.364zm-13.27 5.361c.308.023.86.508 1.654 1.457 5.715-2.824 9.52-4.236 11.418-4.236v-2.02c-3.928.266-8.031 1.556-12.311 3.873 0 .066-.254.375-.762.927zM168.74 4.237v1.489c.089.198 1.865 1.18 5.329 2.945.617.486 1.853 1.28 3.706 2.383 0-.176.121-.419.364-.728l7.183-.198c-5.803-3.928-8.936-5.891-9.4-5.891zm27.998.562v.53h.563l7.182-.53zm-10.326 4.767v.397c.044.242.166.364.364.364h2.416c3.905-1.236 6.233-1.854 6.983-1.854h.364V5.528c-3.089.287-6.398 1.511-9.928 3.674zM168.18 5.892v.364c.044.243.165.364.364.364h.198v-.364c0-.243-.121-.364-.364-.364zm.562.927v2.383c.022.22 1.368.772 4.038 1.654 1.39 1.015 2.99 1.942 4.798 2.78l.2-1.654c-4.48-2.758-7.425-4.48-8.837-5.163zm27.998 1.654v.562h.563l.198-.562zm-4.236 1.655v.199h4.037l.762-1.125c-.486 0-1.832.308-4.038.926zM168.179 9.4v.165c.044.265.165.397.364.397h.198v-.198c0-.243-.121-.364-.364-.364h-.198zm.562.728v1.853c.464.398 2.493 1.38 6.09 2.946 1.588.97 2.504 1.456 2.747 1.456v-1.456c-1.633-1.17-4.578-2.77-8.836-4.799zm10.127.364c0 .199.188.387.563.563h.728c-.132-.375-.496-.563-1.092-.563zm7.183 0v.199c.044.243.165.364.364.364h.76c0-.176-.187-.364-.562-.563zm2.58.363v.199h1.29l1.292-.364.76-.199h-1.091c-.133 0-.63.121-1.49.364zm-10.855.564v.728c.11 0 .287.067.53.199l.761-.563c0-.242-.121-.364-.364-.364h-.166zm-9.597.727v.563c.132 0 .32.066.562.198l.762-.562c-.133 0-.32-.066-.563-.199zm.562.927v1.655h-.562l.76.364c.045.265.166.397.365.397h.199v-.761c2.118.551 5.008 1.787 8.67 3.706h.166v-.926c-.243-.464-3.188-1.942-8.836-4.435zm9.035.927v.563c.022.242.144.364.364.364h.166l.761-.729c-.11 0-.287-.066-.53-.198zm-9.035 1.655v1.49h-.562v.364c.044.242.165.364.364.364h.198l.762-.728c.176 0 1.522.551 4.037 1.654 1.125-.22 1.688-.474 1.688-.76 0-.398-1.908-1.192-5.725-2.384zm9.035 1.126v.364c0 .176.177.353.53.53l.761-.729c-.11 0-.287-.055-.53-.166zm-9.035 1.257v1.853c0 .309.982.74 2.946 1.29l.364-1.654c-1.236-.64-2.339-1.136-3.31-1.49zm9.035.76v.927c0 .177.177.353.53.53v-1.291c-.11 0-.287-.055-.53-.165zm-4.799 1.656v.563h1.093c.132 0 .198-.067.198-.199.486.177.728.364.728.563v.364c0 1.632-1.224 2.614-3.673 2.945h-1.49c-.33 0-.695-.121-1.092-.364v8.108h.199c.838-1.544 1.257-2.956 1.257-4.236l-.165-.926c2.912-1.148 5.427-2.803 7.545-4.965v-2.416c0-.308-.485-.551-1.456-.728h-.76c-1.59.486-2.384.916-2.384 1.291zm-4.798-.364v.728c.132 0 .32.066.562.198v-.562c0-.243-.121-.364-.364-.364h-.198zm.562 1.091v1.29l-.562-.363v1.29c0 .177.187.364.562.563l.761-1.49h.199c1.831.464 2.747.828 2.747 1.093.485-.177.728-.353.728-.53a6.324 6.324 0 0 0-3.475-1.853h-.199zm9.4.364c0 .199-.122.453-.365.761v2.02c.353-.133.53-.508.53-1.126l.76-1.655h-.165zm-.729 3.708c-2.228 4.39-3.342 8.196-3.342 11.417v.894c0 4.655.981 7.91 2.945 9.763v-.166c-.728-2.427-1.092-4.633-1.092-6.619 0-3.574.551-7.689 1.655-12.344v-2.946h-.166zm-6.288 12.872c0 2.339.86 4.248 2.582 5.726h.198c-.485-1.611-.728-3.52-.728-5.726v-.728c0-4.39 1.037-8.384 3.11-11.98h-.165c-2.272 0-3.938 3.806-4.997 11.418v1.29zm-2.184-2.945h-.199v-2.382h-.198c0 .176-.122.419-.364.728v6.619c.044.264.165.397.364.397h.198v-1.126h.199c0 .331.419.706 1.257 1.126h.199l-.199-2.582c0-3.11.684-6.552 2.052-10.325h-.198c-.464 0-.95 1.29-1.457 3.872-1.103 1.125-1.654 2.35-1.654 3.673zm9.2-7.545c-.242.772-.364 1.39-.364 1.853.11.243.166.42.166.53h.198l.166-.927v-1.456h-.166zm3.508 2.216v.364h.728l.761-.364zm3.476 0v.364h.76l1.49-.364zm3.507.365h.563c.242 0 .364-.122.364-.364h-.563c-.242.022-.364.143-.364.364zm-10.49.166c-.861 4.236-1.291 7.49-1.291 9.763 0 .617.187 2.283.562 4.997h.166v-4.6c0-.86.43-1.291 1.29-1.291h1.291l2.25-.927c0-2.713.364-5.361 1.092-7.942h-3.11zm4.235 0c-.86 2.824-1.29 5.471-1.29 7.942v.927h1.853v-3.144c0-1.5.607-3.409 1.82-5.725h-2.383zm3.31 0c0 .375-.43 1.357-1.29 2.945a19.19 19.19 0 0 0-.364 3.707v2.217h1.29c0-3.486.982-6.31 2.946-8.472v-.397h-2.582zm.727 7.579v1.29h2.581v-.198c0-3.221.86-5.802 2.582-7.744v1.125h.198c0-.198.122-.452.364-.761v-.894c-.242 0-.364.177-.364.53h-.198v-.927h-2.019c-2.096 2.383-3.144 4.91-3.144 7.579zm4.999-4.999c-.86 2.096-1.291 4.06-1.291 5.891v.397h1.456v-6.288h-.165zm-22.87 2.583h.2v3.872h-.2zm23.398 1.125-.165 1.29c.11.817.165 1.49.165 2.02h.199v-3.31h-.199zm-11.582 2.746v.563h.53l2.25-.563zm2.746 0v.563h.729l2.779-.563zm2.384 0v.563h.761l3.508-.563zm3.706 0c.11.243.165.43.165.563h.761v-.199c0-.242-.12-.364-.364-.364h-.562zm-20.453 1.49v4.236l-.364-.199h-.198v.563c0 .176.187.364.562.563v-.927c1.17.463 4.115 3.409 8.836 8.836v-4.236c-2.36-3.2-5.24-6.145-8.637-8.836h-.199zm0 5.327v1.854l-.562-.364v.529c0 .199.187.386.562.563l4.269-.728c2.493 2.294 5.383 5.427 8.67 9.398h.166v-1.489c0-.927-2.945-4.18-8.836-9.763zm9.035.563v2.747c0 .198.177.386.53.562V48.45c0-.308-.122-.86-.364-1.654h-.166zm-9.035 2.384v2.416l-.562-.397v.76c0 .177.187.354.562.53v-.893c8.406 8.714 12.951 13.072 13.635 13.072 3.354 1.831 5.318 2.747 5.891 2.747 0 .198.188.386.563.562h1.456v-.198c-3.53-1.125-7.821-4.07-12.874-8.836-3.574-4.303-6.464-7.557-8.67-9.763zm0 3.673v2.78l-.562-.364v.562c0 .177.187.353.562.53v-.728c8.296 8.34 13.701 12.51 16.217 12.51h.926l.166-.365c-2.582-1.037-5.648-3.243-9.2-6.619-.795-.64-3.498-3.408-8.109-8.306zm9.035 1.687v.729c.089.728.265 1.092.53 1.092V55.07c0-.177-.177-.353-.53-.53zm-9.035 2.185v2.945l-.562-.364v.761c0 .177.187.353.562.53v-.927c4.81 4.81 7.943 7.215 9.4 7.215l1.29 1.257h.728l.927-.165c-.31-.463-2.273-1.997-5.891-4.6-4.17-4.435-6.321-6.652-6.454-6.652zm9.035 1.489v.165c.199.618.563.927 1.092.927 0-.176-.364-.54-1.092-1.092zm2.582.563v.165c.353 0 .53.121.53.364h-1.656c5.472 4.986 10.083 7.755 13.834 8.307.11 0 .596.121 1.456.364h2.019v-.927c-4.633 0-9.851-2.581-15.654-7.744h.927c0-.177-.188-.353-.563-.53h-.893zm6.255 0v.165l.728.199v.165h-5.163c5.163 4.435 9.774 6.652 13.834 6.652h.53v-4.236c-2.78 0-5.847-.74-9.2-2.217v-.199h1.654v-.165l-1.29-.364h-1.093zm7.38 0v.165l.893.199v.165h-4.964v.199c2.802.728 4.644 1.092 5.526 1.092h1.093v-.927c-.287 0-.773-.055-1.457-.165l4.27-.199h1.654v.364h.563v-.728l-.927-.165h-2.383zm2.746 2.018v.729h.563l4.268-.729zm-27.998.166v2.217l-.562-.364v.728c0 .199.187.386.562.563l4.832-.927c4.258 3.31 6.53 4.964 6.817 4.964l1.853-.165v-.199c-1.368-.507-4.258-2.78-8.67-6.817zm0 3.508v1.49l-.562-.365v.728c0 .177.187.364.562.563v-.927l2.582 2.184h2.018l-4.401-3.673h-.199zm27.998 1.655v.76h.563l4.83-.76zm-27.998 1.125v.893h.364c.243 0 .364-.121.364-.364zm27.27 1.092-27.833.53v.562h20.451c1.876 0 4.766-.066 8.671-.199v-.562zM204.795.199h10.292c.177 0 .42.242.729.728l1.29 57.121h17.076c.198 0 .386.188.562.563v10.457c0 .199-.187.387-.562.563h-28.097c-.177 0-.42-.243-.728-.728V1.854c0-.949.242-1.5.728-1.655zm.728 1.457V5.33c4.722-2.074 7.667-3.111 8.836-3.111v-.563h-8.836zm9.002.927v.364h.563l1.29-.728h-.2c-.242.022-.363.143-.363.364zm-9.002 4.963c2.604-.97 5.55-1.765 8.836-2.383l1.29-2.019c-1.478 0-4.424 1.037-8.836 3.111v1.29zm9.002-2.216v.562h.199c.242 0 .364-.121.364-.364l1.29-.364c-.244.11-.431.166-.563.166zm-9.531.396v.53h.165c.243 0 .364-.122.364-.365l1.29-.364c-.243.133-.42.199-.53.199zm.53 2.184h-.166c-.243.022-.364.144-.364.364v.563l.364-.199h.165v2.218c3.84-1.677 6.785-2.538 8.836-2.582V6.09h-.198c-2.229.154-5.108 1.004-8.638 2.548V7.91zm9 .364v.563h.564l1.29-.728c-.244.11-.431.165-.564.165zm-9 5.528c3.353-1.236 6.298-2.096 8.835-2.582l1.29-2.018h-.199c-2.074.066-4.953.926-8.637 2.58v2.02zm-.53-2.583v.563h.165c.243 0 .364-.121.364-.364l1.29-.397c-1.533.132-1.709.198-1.82.198zm9.53.365v1.654h.2c0-.176.12-.419.364-.728v-1.29h-.199c-.243.022-.364.143-.364.364zm-9 3.11v-.727c-.244.132-.42.198-.53.198v.53h.53v1.489a40.698 40.698 0 0 1 7.909-2.217c.375-.75.562-1.302.562-1.655h-.198c-1.368 0-4.126.794-8.274 2.383zm.76 2.583c.11.397.717.827 1.82 1.29 2.074-.86 4.16-1.29 6.255-1.29v-1.092c0-.066-.364-.43-1.092-1.092h-.397c-2.868.353-5.063 1.026-6.586 2.018v.166zm8.24-2.02v.728c.133 0 .32.066.564.199v-.728c-.133 0-.32-.066-.563-.199zm-9.53 1.291v.563c.022.243.143.364.364.364h.165v-.927h-.53zm9.53.729v.728h.564v-.728zm-9 .563-.001 3.474 4.799 3.674c1.346 1.5 2.691 2.725 4.037 3.674v-3.31c-2.14-2.316-5.085-4.82-8.836-7.512zm3.673 1.653c0 .11.551.54 1.654 1.291 2.118-.618 3.288-.927 3.508-.927l.563-1.654h-.364c-3.2.176-4.799.606-4.799 1.29zm5.328.365v.562h.563v-.761c-.243.132-.43.199-.563.199zm-2.548 1.655v.166c0 .308.43.617 1.29.926.398-.243.762-.364 1.092-.364v-1.456zm-6.983-.2v.563c.022.242.143.364.364.364h.165v-.364c0-.177-.176-.364-.53-.563zm9.53 1.125v.53h.2c.242 0 .363-.122.363-.364v-.563h-.198c-.243.044-.364.177-.364.397zm-9.001.166v2.218h-.165l-.364-.199v.364c.022.243.143.364.364.364h.165c0-.353.066-.53.199-.53.662 0 3.42 2.262 8.273 6.785l.364.199v-1.49c-3.397-3.398-6.343-5.968-8.836-7.71zm8.472 1.093.364.199v-.563c-.243.044-.364.166-.364.364zm.53.761v1.092c.044.243.165.364.364.364h.198v-.927c0-.176-.187-.353-.562-.529zm-9.002 1.091v2.582l-.364-.2h-.166v.365c0 .199.177.386.53.563v-.729h.198c1.611.993 4.424 3.189 8.44 6.586h.198v-1.654c-.132 0-2.15-1.898-6.056-5.693-.684-.595-1.61-1.202-2.78-1.82zm0 3.475v2.218l-.364-.199h-.166v.563c.022.243.144.364.364.364h.166v-.728h.199c.22 0 2.603 1.842 7.148 5.527.22.022.717.32 1.49.893v-1.655c-2.34-1.853-3.509-2.89-3.509-3.11-.485-.243-2.261-1.534-5.328-3.873zm9.002.199v1.092c.132 0 .32.066.562.198v-.728c0-.198-.187-.386-.562-.562zm-9.002 3.11v1.49l-.364-.199h-.166v.563c.022.243.144.364.364.364h.166l2.946-.728h.198c2.78 1.81 4.678 3.64 5.693 5.494 1.346-.486 2.018-.85 2.018-1.092v-.199l-7.71-5.692h-.2zm9.002 0v.563c0 .177.187.364.562.563v-.563c0-.176-.187-.364-.562-.562zm-9.002 2.583v2.217h-.166l-.364-.198v.562c.022.243.144.364.364.364h.166v-.728c2.206 1.7 3.31 2.924 3.31 3.674.926-.463 1.422-.838 1.489-1.125v-.166c-.927-1.588-2.527-3.122-4.799-4.6zm9.002.364v.563c0 .176.187.353.562.53v-.53c0-.199-.187-.386-.562-.563zm-9.002 2.945v1.82c0 .155.618.773 1.853 1.854.177 0 .42-.243.728-.728-1.456-1.898-2.316-2.88-2.58-2.946zm9.002 0v.927h.198c.243 0 .364-.121.364-.364v-.563h-.562zm-7.877 5.328c-.242-.133-.43-.199-.562-.199 0 .64 1.467 1.379 4.401 2.217h.364c0-.33 1.103-.882 3.31-1.654l.198-.364v-4.236c-1.985.529-4.5 1.941-7.545 4.236h-.166zm-1.655-3.508v.761c0 .177.177.353.53.53v-.728c0-.177-.177-.364-.53-.563zm.53 2.018v.761l-.53-.364v.894c0 .198.177.386.53.562v-1.092l.563.364 2.946-.364c-3.123-.507-3.31-.76-3.51-.76zm6.09 1.127h.165c.242.022.364.143.364.364v.364h-.364l-.364-.199c.132-.242.198-.419.198-.53zm2.912.529v.76c.242-.132.43-.198.562-.198v-.728c-.242.11-.43.166-.562.166zm-9.002.76v4.567h.199c0-.11.12-.595.364-1.456v-1.456c0-.309-.122-.86-.364-1.655h-.2zm5.692 2.02c0 .243.375.486 1.125.728 0-.242.673-.606 2.02-1.092v-1.29h-.2c-1.125.705-2.106 1.19-2.945 1.456v.198zm-4.037-1.125v2.019c0 .154-.122.827-.364 2.019v.198c2.934 2.36 5.45 4.876 7.545 7.546v-6.818c-3.243-3.067-5.637-4.721-7.181-4.964zm7.347.76v.729h.198c.243 0 .364-.121.364-.364v-.563c-.242.133-.43.199-.562.199zm-1.093 1.655c.243.53.486.827.728.893h.199v-1.655c-.199 0-.507.254-.927.762zm1.093.894v1.49c0 .176.187.353.562.53v-2.185c-.242.11-.43.165-.562.165zm-9.002 1.654v.927h.199v-.927zm1.29.729c-.11.662-.474 1.588-1.091 2.78h-.199v-1.49h-.165l-.364 1.291v.728c.242 0 .364-.176.364-.53h.165v10.26c.75-.42 1.125-.96 1.125-1.622v-.198l-.926-1.291c.375-1.72 1.114-2.581 2.217-2.581h.166c1.103 0 2.018.86 2.746 2.581l-.364 2.383c.133.684.199 1.18.199 1.49 0 1.124-.86 2.161-2.581 3.11v.199h10.656c-.574-2.67-2.658-6.652-6.255-11.948-3-3.442-4.898-5.162-5.692-5.162zm7.712 6.983v.562c0 .177.253.42.76.728h.166c-.419-.86-.728-1.29-.926-1.29zm6.089.76c.11.243.165.42.165.53h.729v-.165c0-.243-.122-.364-.365-.364h-.529zm5.13 0v.166l1.29.364h.53c-.11-.353-.474-.53-1.092-.53zm5.692 0c0 .133.43.497 1.29 1.093v-.364c0-.199-.242-.441-.728-.728zm-23.894.53c-.486.53-.728 1.026-.728 1.49.308 0 .617.485.926 1.456 0 1.125-.739 2.107-2.217 2.945v-.728h-.166c-.242.022-.364.143-.364.364v.53l.364-.166h.166v2.747c2.824-.64 4.236-1.93 4.236-3.872-.375-1.147-.563-1.754-.563-1.82.508-.221.762-.651.762-1.291-.618-1.103-1.424-1.655-2.416-1.655zm8.274.199a64.854 64.854 0 0 1 4.037 8.638h2.946v-.762c0-1.676-.673-4.302-2.02-7.876h-4.963zm6.056 0c0 1.191 1.225 1.92 3.674 2.184 3.22 1.456 5.372 2.504 6.453 3.144v-1.49c-2.581-2.294-4.479-3.573-5.692-3.838h-4.435zm6.619 0v.165c.286 0 1.39.74 3.309 2.218h.2v-2.383h-3.508zm-5.692 2.548v.397c0 1.368.86 2.162 2.581 2.383 1.61 0 3.817.97 6.62 2.913v-2.02c-4.568-2.404-7.635-3.629-9.201-3.673zm9.365.397v.728c0 .177.188.353.563.53v-1.092c-.133 0-.32-.056-.563-.166zm0 2.747v.53c0 .198.188.386.563.562v-.563c0-.176-.188-.353-.563-.529zm-8.638.166v.364c0 .86.794 1.29 2.383 1.29 1.478.75 2.405 1.125 2.78 1.125h2.184v-.198c-3.31-1.721-5.758-2.581-7.347-2.581zm.76 2.382-.198.398h1.29v-.199zm-19.292.397v.729h.364l1.654-.364 2.582-.199a12.26 12.26 0 0 1-2.019-.166zm26.64.166c0 .176.176.364.53.563h.562v-.199l-.364-.53c-.22.11-.463.166-.728.166zm-12.675 0c.11.243.166.43.166.563h.728v-.199c0-.243-.121-.364-.364-.364h-.53zm4.038 0v.563h1.82v-.199c-.176 0-.419-.121-.728-.364h-1.092zm3.838 0v.199l1.29.364h.928c-.133-.375-.497-.563-1.093-.563h-1.125zM255.412.001c7.06 0 12.345 3.717 15.853 11.152.463 1.898.695 3.453.695 4.667v8.637c0 .199-.177.386-.53.563h-10.623c-.177 0-.353-.188-.53-.563v-7.181c0-2.824-1.136-4.689-3.408-5.593l-1.092-.166h-1.258c-2.868.728-4.302 2.162-4.302 4.303v37.794c0 2.008 1.312 3.453 3.938 4.335h1.456c2.052 0 3.552-1.268 4.5-3.805.111-.795.166-1.446.166-1.953V40.674h-4.864c-.177 0-.42-.243-.728-.728v-10.26c0-.176.187-.352.562-.529h16.183c.177 0 .353.177.53.53v24.125c0 5.957-3.177 10.756-9.531 14.396-2.118.949-4.391 1.423-6.818 1.423h-.364c-4.258 0-7.975-1.5-11.153-4.5-3.485-3.332-5.228-7.226-5.228-11.683v-37.43c0-6.067 3.177-10.866 9.53-14.396C250.825.541 253.163 0 255.414 0zm-12.41 7.91h.166c6.221-3.707 11.208-5.748 14.958-6.123v-.166c-.596 0-1.5-.066-2.714-.198-4.964 0-9.1 2.162-12.41 6.486zm16.018-6.289v.166c.265 0 .508.066.729.198l1.059-.198v-.166c-.265 0-.496-.066-.695-.198zm-16.912 7.91h-.198v-.166c.132-.242.198-.43.198-.562-.728.286-1.092.706-1.092 1.257l.563-.33h.165c0 .198-.297 1.036-.893 2.514 5.273-4.015 9.884-6.773 13.833-8.273 3.067-.97 5.108-1.456 6.123-1.456V2.35c-.662-.132-1.136-.198-1.423-.198-4.346.463-10.105 2.923-17.275 7.38zM261.9 2.517c0 .309.475.551 1.423.728h.364c0-.331-.595-.574-1.787-.728zm-20.684 10.788c.596.375 2.206.74 4.832 1.092 0 .243.309.364.926.364 4.435-5.052 9.83-7.578 16.184-7.578 1.566 0 3.121.242 4.666.728l1.093-.166c-1.258-1.566-2.217-2.35-2.88-2.35h-2.514c-5.295 0-11.175 2.825-17.64 8.473l-.529-.364c.243-.552 1.688-1.876 4.335-3.972 5.273-3.353 10.37-5.03 15.29-5.03h.364l.331.165h.199v-.165c-.155 0-.75-.364-1.788-1.092h-1.456c-3 0-6.42 1.026-10.259 3.078-4.412 2.184-7.766 4.456-10.06 6.817zm24.092-8.44c0 .331.485.574 1.456.728 0-.198-.243-.44-.728-.728zm-11.152 5.031v.165c2.228 0 3.607.243 4.137.729 2.978-.95 4.964-1.423 5.956-1.423.795 0 2.648.717 5.56 2.15-.573-2.03-1.588-3.044-3.044-3.044 0-.243-1.258-.43-3.773-.563-2.405 0-5.35.662-8.836 1.986zm14.032-1.788v.166c.662.596 1.081.893 1.258.893-.11-.44-.53-.794-1.258-1.059zm-8.44 3.774c.839 1.015 1.258 1.677 1.258 1.986.684-.971 1.578-1.457 2.68-1.457 1.5 0 3.299.839 5.395 2.516h.199l.165-.364c-1.17-3-3.089-4.501-5.758-4.501-.42 0-1.136.309-2.151.926-.75 0-1.346.298-1.788.894zm-1.985-.893-.2.364.928.165.165-.364zm-6.652.529-.198.364h.198l.166-.364zm7.546.364.53.364.198-.364c0-.243-.121-.364-.364-.364-.242.022-.364.143-.364.364zm11.351-.198v.198c.11.199.166.441.166.728-.11 0-.166.055-.166.166l.331-.166h.199l.364.166c0-.486-.298-.85-.894-1.092zm-30.248 1.82v.364h.53l.198-.729c-.31.243-.552.364-.728.364zm9.53-.199c0 .177-.418.717-1.257 1.622v.198c0 .177.188.353.563.53h.165c0-.64.243-1.423.728-2.35h-.198zm12.775.727c2.736.596 4.534 1.136 5.394 1.622l.199-.364v-.166c-.993-1.213-2.493-1.82-4.501-1.82-.728.287-1.092.53-1.092.728zm-21.577 0-.199.894v2.515c1.721 0 4.545.904 8.472 2.714v-3.773c-1.434-.927-4.015-1.71-7.744-2.35h-.53zm20.518.166-.199.927v.364c.044.22.166.33.364.33h.199v-.165c-.133-.86-.199-1.346-.199-1.456h-.165zm9.697.729v.364c.044.243.165.364.364.364h.199v-.364c0-.243-.122-.364-.365-.364zm-8.638.198-.53.695.199.364c0 .397.96.64 2.879.728 0 .243.364.364 1.092.364l.695-1.092c-.64-.507-2.085-.86-4.335-1.059zm3.443 4.667v.364c.242 1.08.54 1.621.893 1.621h.53c.993 0 1.776-.662 2.35-1.986-.729-.264-1.093-.507-1.093-.728v-.165c.728-.838 1.512-1.258 2.35-1.258v-1.985h-.199c-2.846 0-4.456 1.379-4.831 4.136zm-16.581-3.774v.165h.364v-.165zm12.079.729v.33c.11 0 .286.067.53.2l.363-.53zm.696.53v2.151h1.092l1.787.199a3.1 3.1 0 0 0 .364-1.457c-.838-.595-1.92-.893-3.243-.893zm-22.108.164v.563h.53l.893-.563zm31.109.365v1.092c.132 0 .32.055.563.165l1.422-1.257zm-30.414.364v2.714h.199c1.412 0 4.17.838 8.273 2.515v-2.515h.166l.364.165v-.53c-.11 0-.287-.065-.53-.198v.563c-3.86-1.743-6.685-2.648-8.472-2.714zm29.52.364c0 .11-.054.166-.164.166.242 1.456.54 2.184.893 2.184V18.7c-.265 0-.507-.055-.728-.166zm-8.803 1.091v.53h.53l1.985-.53zm.696.53v1.258c.375 0 1.335-.12 2.88-.364v-.165c0-.331-.596-.574-1.788-.728h-1.092zm-22.108.894v.364h.53l2.515-.364zm29.852.198-.53.695c0 .287.54.585 1.622.894l3.044-.894c-3.287-.463-3.651-.695-4.136-.695zm1.257 0v.331l.364.563v.53h-.364v.363c.176 0 .364-.176.563-.53v-1.092c-.133 0-.32-.055-.563-.165zm-30.414.332v1.986c2.471 0 5.295.783 8.472 2.35v-1.788l.364.166h.166v-.166c0-.242-.121-.364-.364-.364h-.166v.364c-4.412-1.698-7.236-2.548-8.472-2.548zm20.717.563v.364c.242-.133.419-.199.53-.199v-.53h-.166c-.243.023-.364.144-.364.365zm.696.164v1.258h7.943v-.166c-1.081-.596-2.041-.893-2.88-.893l-.893.165c-.132-.353-.496-.53-1.092-.53h-1.258zm-22.108 1.457v.53h.53l1.82-.53zm30.414 0v.53h.53c0-.11.055-.287.165-.53h-.695zm-29.719.695v1.258h.199c1.831 0 4.589.96 8.273 2.879v-1.589h.166l.364.166v-.53c0-.242-.121-.364-.364-.364h-.166v.728h-.165c-2.405-1.699-5.174-2.548-8.307-2.548zm-.695 1.257v.927c0 .176.177.353.53.53v-1.258c-.11 0-.287-.066-.53-.199zm.894.927c1.059 1.302 2.261 2.195 3.607 2.68.618 0 2.173.663 4.666 1.986v-1.621c-1.39-1.17-3.971-2.25-7.744-3.244-.242.133-.419.199-.53.199zm-.199 1.06v4.335c3.155 3.42 4.964 6.298 5.428 8.637 0 .11.055.166.165.166 1.258 0 1.92-.298 1.986-.894-2.471-6.729-4.997-10.81-7.579-12.245zm8.472 1.09v.364c.022.243.144.364.364.364h.166v-.562c-.11 0-.287-.055-.53-.166zm7.91 1.06c0 .198.188.385.563.562h.33c0-.177-.176-.364-.529-.563zm3.972 0v.363l.894.199c0-.177-.177-.364-.53-.563zm5.23 0c.11.374.462.562 1.058.562-.11-.375-.463-.563-1.059-.563zm-21.778.2v.165c0 .97 1.313 1.996 3.938 3.078 0 .242.243.364.728.364v-1.093c-.154-.33-1.235-.992-3.243-1.985 0-.243-.474-.42-1.423-.53zm12.046.528v1.258c2.736 2.493 5.074 3.993 7.016 4.5 0 .133.055.2.165.2h1.093v-.2l-3.972-2.515c-.022-.176-1.158-1.257-3.409-3.243h-.893zm1.986 0c3.971 4.214 7.987 6.321 12.046 6.321 0 .11.122.166.364.166v-1.258h-1.257c-2.493-.596-5.318-2.339-8.473-5.229h-2.68zm3.938 0c1.588 2.14 4.291 3.707 8.108 4.7.243 0 .364-.122.364-.365v-2.714h-.53c-.551 0-1.754-.54-3.607-1.621h-4.335zm5.957 0v.199c1.103.353 1.942.53 2.516.53l3.078-.729H271.1zm-12.609.893v.563c0 .176.177.353.53.53v-.53c0-.177-.177-.364-.53-.563zm15.29 0v.563h.563l3.078-.563zm-31.109.2v.728c0 .176.177.353.53.53v-.729c0-.176-.177-.353-.53-.53zm9.167 0v.364c0 .176.177.353.53.53v-.53c0-.243-.121-.364-.364-.364h-.166zm7.38 1.422v.926c1.787 1.677 2.68 2.868 2.68 3.574 1.413-.353 2.317-.53 2.714-.53v-.363c-.33 0-2.129-1.203-5.394-3.607zm-10.093.2v.165c0 .993.904 2.019 2.714 3.078v-1.986h.165l.364.165v-.364c0-.22-.121-.33-.364-.33h-.165v.529h-.166c-1.302-.838-2.151-1.258-2.548-1.258zm-5.759.164v1.82c0 .287.96 1.897 2.88 4.832.485 1.125.727 1.787.727 1.986h.199c.177 0 .353-.177.53-.53v-.53c0-2.206-1.446-4.732-4.336-7.578zm15.124.364v.364c0 .177.177.353.53.53v-.364c0-.177-.177-.353-.53-.53zm-15.819 1.257v.364c.088.729.265 1.093.53 1.093v-.364c0-.64-.177-1.004-.53-1.093zm16.547.2v3.409c1.566-.485 2.35-.85 2.35-1.092-.133 0-.916-.772-2.35-2.317zm14.562 0v.331h.563l3.64-.33zm-21.942 1.422v.364c.022.243.144.364.364.364h.166v-.53c-.11 0-.287-.066-.53-.198zm6.652 0v.53c0 .198.177.386.53.562l4.203-.364c-4.38-.485-4.556-.728-4.733-.728zm-15.124.53v2.185c0 .176.43 1.136 1.29 2.879v.33h.696c.242-.043.485-.341.728-.893 0-.198-.839-1.699-2.515-4.5h-.199zm7.744.199c.177.838.42 1.257.728 1.257v-1.257zm9.003 1.621v.166h3.971c.463.176.695.595.695 1.257v.728c1.986-.485 3.607-.728 4.865-.728h.728c.816 0 1.897.188 3.243.563V37.96c0-.485-2.04-.728-6.122-.728-1.148 0-3.608.607-7.38 1.82zm13.667-1.82v.364c.132 0 .32.067.563.199v-.364c-.133 0-.32-.066-.563-.199zm-15.29 1.986v.563l.728-.364c-.132-.243-.198-.43-.198-.563h-.166c-.242.044-.364.166-.364.364zm-15.819-.166v.53c.088.728.265 1.092.53 1.092v-.894c-.243-.309-.364-.551-.364-.728h-.166zm9.167 0v.728h.53v-.562c-.11 0-.287-.056-.53-.166zm0 1.423v1.093l-.893-.199c-1.81 0-3.376 1.202-4.7 3.607 0 .133.067.199.199.199 1.434-.243 2.272-.364 2.515-.364 1.346 0 2.13 1.191 2.35 3.574v.927c0 2.206-2.162 5.02-6.487 8.439h-.364c-.242-.375-.364-.728-.364-1.06.706 0 1.126-.606 1.258-1.82-.463-1.456-1.059-2.47-1.787-3.044h-.199v1.787c0 5.074 2.405 9.211 7.215 12.41h1.092c.507 0 1.82.122 3.938.364 1.633 0 2.714-.783 3.243-2.35-.242-.374-.364-.672-.364-.893.31-1.191.607-1.963.894-2.316 0-1.081-1.081-1.622-3.243-1.622l-.53.695v.563c.839 1.014 1.258 1.61 1.258 1.787-.596 1.566-2.03 2.35-4.303 2.35 0 .11-.419.165-1.257.165-2.295-.53-3.442-1.247-3.442-2.151-.331 0-.563-.596-.695-1.787 0-2.074 1.313-3.762 3.938-5.064.287-.353.585-.53.894-.53l-.166-1.786V41.568l.53.364v-.728c-.243-.31-.364-.552-.364-.728h-.166zm12.941 1.456v2.88h.199c1.566-.729 2.824-1.093 3.773-1.093.33 0 1.952.121 4.864.364v-2.151c-.132-.463-1.632-.761-4.5-.894-1.082 0-2.527.298-4.336.894zm9-.563c.045.243.166.364.365.364h.199l.727-.364zm-30.413.199v1.423h.199l.364-.166c-.243-.595-.364-1.015-.364-1.257h-.199zm20.717 0v.364h.53l1.29-.364zm-21.412 1.787v.728c.243-.11.42-.165.53-.165l1.82-.563zm.695.563v3.21h.199c1.191-.132 1.787-.364 1.787-.695l-.166-.927.728-1.952c-.132 0-.198-.066-.198-.199-1.037.375-1.82.563-2.35.563zm21.413 1.788v2.879c1.81-1.081 3.618-1.622 5.427-1.622h1.06c.132 0 .198-.055.198-.165l.331.165h1.82v-1.986c0-.353-.96-.53-2.879-.53h-2.151c-1.567 0-2.835.42-3.806 1.258zm9-1.258v.166c.133 0 .32.066.564.198v-.364h-.563zm-9.696 1.06v.198c.242-.133.419-.199.53-.199v-.33h-.166c-.243.021-.364.132-.364.33zm-17.275.926c.508 0 1.17.055 1.986.166l1.059-.166c0-.176-.243-.42-.728-.728-1.545.088-2.317.331-2.317.728zm-4.137 1.257v.364c.243-.132.42-.198.53-.198v-.53h-.166c-.242.022-.364.144-.364.364zm5.395-.2h-1.092c-.684 0-1.887.122-3.608.364v1.82h.199c2.339-.374 3.894-.562 4.666-.562h2.184l.166-1.258c0-.242-.121-.364-.364-.364h-1.622c-.11 0-.165-.055-.165-.165zm25.714-.164v.166h.563l2.713-.166zm-9 2.15v.364c.815 1.081 1.356 1.622 1.62 1.622 2.119-.838 4.104-1.258 5.958-1.258h.893l.364.166v-2.515c0-.243-.121-.364-.364-.364h-.165c-3.64 0-6.41.662-8.307 1.985zm-.697-.164v.695c0 .198.176.386.53.563v-1.622h-.166c-.243.022-.364.143-.364.364zm-20.154 1.257v.166c0 .22.419.518 1.257.893.486-.242.905-.364 1.258-.364 1.5.133 2.394.199 2.68.199.618-.177.927-.596.927-1.258v-.198l-.927-.166h-.33c-1.81 0-3.431.243-4.865.728zm-1.258-.562v1.257c.11 0 .287.066.53.199l3.276-1.456zm31.109.562v.364h.563l3.806-.364zm-6.652 1.786c.264.64.684 1.302 1.257 1.986 2.229-.596 3.972-.894 5.229-.894v-2.515h-.364a8.54 8.54 0 0 1-1.787-.198c-2.405.485-3.85 1.025-4.335 1.621zm-2.349-1.257v.53c0 .617-.055 1.522-.165 2.713 1.169.993 2.724 4.115 4.666 9.366 1.213-1.06 1.82-1.842 1.82-2.35-1.346-3.927-3.453-7.347-6.321-10.26zm-19.229 1.788.894 2.184c1.434-.64 2.151-1.545 2.151-2.714a1.48 1.48 0 0 0-.728-.165c-1.544 0-2.317.231-2.317.695zm28.23.728v.198c.132 0 .32.055.563.166v-.364h-.563zm-9.896.364v.364c.044.242.166.364.364.364h.199v-.364c0-.243-.121-.364-.364-.364zm5.065 1.092v.364c.42.794.894 1.268 1.423 1.423.905-.243 1.743-.364 2.515-.364h.53c0 .353.187.53.562.53v-.53h-.562l.198-2.151 4.567-.364h-.198c-.552 0-2.04.364-4.468 1.092zm-16.383-.199-.198.364v.364h.198c.243 0 .364-.121.364-.364 0-.242-.12-.364-.364-.364zm11.683.364c-.353.86-.53 1.401-.53 1.622 2.118 2.78 3.431 5.538 3.938 8.273.618-.264.927-.562.927-.893 0-1.103-1.379-4.104-4.137-9.002h-.198zm-12.576 1.456c.11 0 .827.353 2.151 1.06v-.166c-.838-.728-1.258-1.269-1.258-1.622-.595.287-.893.53-.893.728zm11.318-.562c0 .132-.055.32-.165.562l.364.166.165-.364c0-.243-.12-.364-.364-.364zm7.38 1.621c0 .089.364.872 1.092 2.35.596 0 1.191-1.026 1.787-3.078h-.166c-1.478.243-2.382.486-2.713.728zm-7.38-.53a2.29 2.29 0 0 1-1.257 1.06c1.743 2.36 3.122 5.008 4.137 7.943h.364c.309-.243.551-.364.728-.364v-.199c-.486-2.846-1.81-5.66-3.972-8.44zm-13.668 1.06v.198c.397 0 2.14.784 5.23 2.35l4.566-.198.165-1.622c-2.118-1.081-3.552-1.622-4.302-1.622h-.198c-.155 0-.453.298-.894.894zm11.517 0 .364.198h.165v-.529h-.165c-.243.022-.364.132-.364.33zm-5.593.199v.165c.795.287 2.118.474 3.972.563 0-.31-.243-.497-.728-.563-.618 0-1.633-.055-3.045-.165h-.199zm4.335.728v.165c3 4.015 4.501 6.597 4.501 7.744l1.258-.364c0-1.103-1.445-3.74-4.336-7.91h-.165c-.353.243-.772.365-1.258.365zm-10.987.165-.364.53v.363c0 .155.96.64 2.88 1.457 1.39 1.08 2.349 1.621 2.878 1.621.64 0 1.004-.187 1.093-.562v-.166c-1.104-1.434-3.266-2.515-6.487-3.243zm23.397 1.092v.165c.574-.154.872-.397.894-.728-.596.155-.894.342-.894.563zm-.528.695c0 .243-.067.364-.199.364.132.243.199.43.199.563.22 0 .33-.122.33-.364v-.199c0-.243-.11-.364-.33-.364zm-22.869.563c0 1.125.905 1.787 2.714 1.985h.893c-1.301-1.323-2.504-1.985-3.607-1.985zm11.352.165-.199 1.258c0 .728.54 2.35 1.622 4.865 1.213-.199 1.82-.375 1.82-.53 0-1.633-1.026-3.497-3.078-5.593h-.166zm9.166 2.151-.165.364v.563c.177 0 .353-.188.53-.563 0-.242-.122-.364-.364-.364zm-9.895 1.456c0 .243-.243.607-.728 1.093.353.86.53 1.4.53 1.621h1.456c-.574-1.743-.993-2.647-1.258-2.714zm8.108 0v.729c.22-.133.397-.199.53-.199v-.165c0-.243-.122-.365-.365-.365h-.165zm-17.275.894c0 .243.773.662 2.317 1.258v-.53c-.287 0-.883-.298-1.787-.894-.243.11-.42.166-.53.166zm15.653.199-.198.33.364.2h.198v-.2c0-.22-.121-.33-.364-.33zm-13.138.33v.199c.11 0 .287.055.53.166h.199v-.166c-.133 0-.32-.066-.563-.199h-.166zm4.303.563c.132.199.198.441.198.728h1.06v-.199c-.243-.397-.365-.694-.365-.893h-.53c-.242.022-.363.143-.363.364zm-2.317 0c.088.353.563.53 1.423.53-.066-.353-.54-.53-1.423-.53zm8.968 0v.53h.563v-.53zm-9.895.166c.199.485.387.728.563.728h.53c-.11-.486-.475-.728-1.093-.728zm2.714.562v.166c0 .176.243.353.728.53v-.53c-.419-.11-.662-.166-.728-.166zm4.302 0v.53h.728v-.199c0-.22-.121-.33-.364-.33h-.364zm-2.15.166v.53h.727c-.132-.244-.198-.42-.198-.53zM292.89 0h1.258c6.09 0 10.888 3.243 14.396 9.73.97 1.94 1.456 4.037 1.456 6.287l5.659 37.232c0 6.597-3.42 11.638-10.26 15.124-2.36.839-4.522 1.258-6.486 1.258-6.884 0-12.102-3.718-15.654-11.153-.595-2.008-.893-4.887-.893-8.638V19.626c0-6.553 1.202-10.932 3.607-13.138C289.327 2.163 293.52 0 298.55 0zm-1.787 1.423c1.191-.199 1.787-.43 1.787-.695h-1.059c-.176 0-.419.232-.728.695zm3.773-.166h.729c.242 0 .364-.122.364-.364h-.729c-.242.044-.364.165-.364.364zm-6.652.166v.198l.893.166c.243-.11.42-.166.53-.166l5.659-.198c-.265 0-.497-.055-.695-.166a1.61 1.61 0 0 1-.728.166zm3.409.562v.166c.044.243.165.364.364.364h.198c.287 0 .938-.298 1.953-.894v-.198h-1.953c-.198 0-.386.187-.562.562zm3.772-.562c-1.191 1.059-1.787 1.666-1.787 1.82.927.485 1.522.728 1.787.728 1.324-1.213 2.107-1.82 2.35-1.82 0-.243-.783-.485-2.35-.728zm2.715.364v.199l.893.165.199-.364 5.659-.165h-.199zm-14.033 2.879c4.346.552 9.564 3.254 15.654 8.108l6.817 4.865c1.037-.485 1.699-.728 1.986-.728l6.552-1.092c-2.78-3.376-5.471-5.825-8.075-7.347-3.243-2.383-6-4.07-8.273-5.063-2.14-.86-3.221-1.335-3.244-1.424-2.294.706-3.916 1.6-4.864 2.681zm12.411 0c1.17.97 2.008 1.456 2.515 1.456.177 0 1.313-.607 3.409-1.82l6.552-.165-3.408-1.788c-.397.045-1.236.817-2.516 2.317zm6.122-.529.364.53c.243-.11.42-.166.53-.166l-.365-.53c-.242.111-.419.166-.529.166zm-19.99.893h.564c.242 0 .364-.121.364-.364l-.364-.165c-.177 0-.365.176-.563.53zm17.475 2.152c.353 0 .53.188.53.563h.199c.353 0 1.489-.662 3.408-1.986-.64-.596-1.059-.893-1.257-.893-1.015.44-1.975 1.213-2.88 2.316zM283.193 5.23l-1.257 1.423c2.802.264 6.1 1.4 9.895 3.408l.894-.165h.53l1.091.165h.166v-.165c-4.413-2.648-7.413-3.972-9.002-3.972 0-.088-.772-.32-2.317-.695zm21.413.894c.243.022.364.144.364.364.22-.132.397-.198.53-.198 0-.177-.177-.353-.53-.53-.243.022-.364.144-.364.364zm-23.762.529v.53h.165c.199 0 .386-.177.563-.53h-.728zm21.412 1.621c.397.839.882 1.258 1.456 1.258 1.434-.706 2.272-1.059 2.515-1.059v-.199l-1.258-1.621a18.764 18.764 0 0 0-2.713 1.621zm-21.048-.893-1.092 1.622v.166c2.758.551 4.137 1.037 4.137 1.456l-.364.165-4.303-.893v.165c-.485 1.125-.728 1.787-.728 1.986l8.274 1.986c0-.353.242-.828.728-1.423v-.365c-2.273-.661-3.409-1.147-3.409-1.456v-.364h.364c.618 0 1.876.486 3.773 1.456 0-.353.717-.838 2.151-1.456v-.165a45.07 45.07 0 0 0-9.531-2.88zm25.35.893v.53h.198c.243 0 .364-.11.364-.331v-.199zm-1.952 2.35c.287.023.827.497 1.621 1.424.95-.42 1.424-.717 1.424-.894-.155-.596-.519-1.313-1.093-2.15-.926.44-1.577.98-1.952 1.62zm-25.384-1.457v.563h.199c.22 0 .33-.121.33-.364l.563-.199zm12.047 1.093c0 .089.187.265.562.53.199-.11.43-.166.695-.166v-.198l-.893-.166h-.364zm5.063.729v.165l.33.199v-.199zm11.517.363c.11.22.166.397.166.53.242-.133.419-.2.529-.2-.11-.22-.166-.397-.166-.529-.242.132-.419.199-.529.199zm-19.79 4.666v36.701c0 2.604 1.378 4.28 4.136 5.03h1.589c2.89-.75 4.335-2.183 4.335-4.301l1.423-37.066c0-3.045-1.743-4.722-5.229-5.03-2.03 0-3.53 1.07-4.5 3.21a3.34 3.34 0 0 0-.332 1.456zm8.803-4.666v.165l.53.364v-.199zm-18.732.696v.728l.364.166c0-.265.066-.497.199-.695-.133 0-.32-.067-.563-.2zm10.094.363c.11 0 .287.066.53.198l.198-.364-.364-.198c-.243.044-.364.165-.364.364zm19.26.364v.364c0 .154.299.452.894.893l1.953-.165c0-.199-.122-.74-.364-1.622-.177 0-.353.177-.53.53zm-8.836.166c0 .882 1.258 2.151 3.773 3.806 1.39 1.301 2.35 2.019 2.88 2.15l.363-.529 1.953-.364c-.353-.132-2.692-1.82-7.016-5.063zm-20.154.198-.165 2.151c0 .089.176.265.53.53.55-.22.849-.453.893-.695 0-.618-.42-1.28-1.258-1.986zm1.82.166c0 1.236.894 2.019 2.68 2.35 0 .11.188.165.563.165.353-.595.53-1.07.53-1.423-.927-.485-2.184-.85-3.773-1.092zm6.818.893-.166.364v.563h.53l1.952-.563c0-.242-.121-.364-.364-.364zm11.352 0c.243.728.485 1.092.728 1.092h.165c-.242-.728-.485-1.092-.728-1.092zm10.06.364c.154.95.342 1.556.562 1.82-.242.376-.364.729-.364 1.06.243-.11.42-.166.53-.166v-2.35c0-.242-.122-.364-.364-.364 0 .133-.055.2-.166.2 0-.133-.066-.2-.198-.2zm-24.986 2.715h-.199c-.927-.838-1.765-1.258-2.515-1.258-1.81.398-2.714.872-2.714 1.423v4.865c.463 0 1.004-.242 1.622-.728l-.166-.893v-.728c0-.684.96-1.104 2.88-1.258 1.367 0 2.382 1.269 3.044 3.806.618.353.927.772.927 1.258l-.364.165h-.364c-.795-.596-1.457-.894-1.986-.894-.993.155-1.898.695-2.714 1.622-.11.838-.165 1.313-.165 1.423.11.485.408.728.893.728.905-.596 1.567-.893 1.986-.893h.53c1.455.33 2.184.992 2.184 1.985h.165v-8.273l-.53-.728c.353-1.103.585-2.427.695-3.972l-1.257-.165h-.165c-.353 0-.717.717-1.092 2.15-.177 0-.409.122-.695.365zm-5.957-2.152v.894c0 .11.066.165.198.165l-.198.364v1.092c.353-.132.53-.496.53-1.092v-.893c0-.177-.177-.353-.53-.53zm21.942.695v1.257l3.971 2.88c.177 0 .353-.177.53-.53-1.412-1.434-2.913-2.637-4.501-3.607zm-12.775 1.986v1.257c.11.728.298 1.092.562 1.092v-.364l-.198-1.092a8.528 8.528 0 0 0 .198-1.787l.166-.165c-.375.11-.563.463-.563 1.059zm12.078-.729v.728c.11 0 .287.066.53.199l.165-.563c0-.243-.12-.364-.364-.364h-.165zm.697 10.094v2.515h.198c1.037-2.934 3.133-5.218 6.288-6.85 1.677-1.015 2.516-1.611 2.516-1.788l.165-3.243h-.166c-4.743 2.758-7.688 5.88-8.836 9.366zm0-8.803v1.423c1.125.971 1.975 1.456 2.548 1.456.22 0 .331-.187.331-.562-.22-.662-1.114-1.434-2.68-2.317h-.2zM280.48 20.32v.199c0 .485 1.026.728 3.078.728h.33c-.132-1.081-.661-1.622-1.588-1.622-1.213.133-1.82.364-1.82.695zm18.366-.528v.529c.11 0 .287.066.53.199v-.364c0-.243-.121-.364-.364-.364h-.166zm.697 1.09v.894c.574.839.938 1.258 1.092 1.258.243-.309.364-.486.364-.53v-.364c0-.176-.485-.595-1.456-1.257zm9.199.531v.364h.166c.242 0 .364-.121.364-.364v-.364h-.166c-.243.022-.364.143-.364.364zm-9.896.364v.729c0 .176.177.352.53.529v-.894c0-.242-.121-.364-.364-.364h-.166zM278.13 23.4v.53h1.82c.662 0 1.446-.596 2.35-1.788l-.927-.198h-.364c-1.39.97-2.35 1.456-2.879 1.456zm21.413 9.333v10.623l.198 1.092c-.132.199-.198.497-.198.894v4.137c0 1.412 1.268 3.508 3.806 6.288.53.33 1.544 1.357 3.044 3.077l.894.53c.485-1.28.728-1.997.728-2.151-2.339-1.942-4.258-5.362-5.758-10.26-.596-1.941-.894-4.159-.894-6.652 0-6.486 2.162-11.406 6.487-14.76l.695-.728v-2.68c-4.545 2.713-7.182 5.35-7.91 7.91-.728 1.433-1.092 2.327-1.092 2.68zM277.6 22.67v.53h.53l.164-.53zm0 1.788v.364h.53v1.622h.926l.893-.166v-1.456h-1.82v-.695h-.165c-.243.022-.364.132-.364.331zm31.141.364v.894c.176 0 .353-.177.53-.53v-.53c-.243.111-.42.166-.53.166zm-9.896 1.092v1.621h.166c0-.176.121-.42.364-.728v-1.986c-.353.133-.53.497-.53 1.092zm3.41 14.926v.198c0 4.016 1.379 8.384 4.136 13.106 1.17 1.324 1.832 1.985 1.986 1.985 0-.044.055-.816.166-2.316-3-4.898-4.501-9.344-4.501-13.337v-1.787c0-2.471 1.5-5.715 4.5-9.73v-2.88c-1.19.75-2.382 2.075-3.574 3.972-1.809 3.354-2.713 6.95-2.713 10.789zM277.6 26.642v.695h.198c.22 0 .331-.11.331-.33v-.365h-.53zm6.85.364v.166h.364l.695-.166zm-6.32.33v1.821h.198l1.092-.199c.22.133.397.199.53.199l.893-.364c.265 0 1.765.42 4.5 1.258l.365-.53v-.563c0-.286-.783-.64-2.35-1.059h-.53l-.529.364h-.562c0-.375-.839-.739-2.516-1.092-.176.11-.54.166-1.092.166zm30.611 1.622v.894c.176 0 .353-.177.53-.53v-.53c-.243.111-.42.166-.53.166zm-31.141.563v.33h.53v-.529c-.221.133-.398.199-.53.199zm.53.695v1.092h2.547c1.015 0 2.085.176 3.21.53.486-.177.729-.354.729-.53v-.166c0-.485-1.203-.97-3.608-1.456-1.92.088-2.879.265-2.879.53zm8.306-.365c0 1.368-1.148 2.692-3.442 3.972-.662.132-1.203.198-1.622.198-.794 0-1.875-.242-3.243-.728v2.68c0 .376 1.147.74 3.442 1.093 1.853 0 3.53-.905 5.03-2.714v-4.5h-.165zm21.94.563c-2.051 3.508-3.077 5.78-3.077 6.817-.11.574-.166 1.357-.166 2.35v1.622c0 2.846.717 5.603 2.151 8.273 0 .397.364 1.302 1.093 2.714h.165v-3.078c-1.324-3-1.986-4.732-1.986-5.196a7.055 7.055 0 0 1-.165-1.621c0-3.42.717-6.067 2.15-7.943l1.06-3.938h-.166zm-9.166.364c-.243.839-.364 1.313-.364 1.423v2.35h.165c.243-1.633.364-2.659.364-3.078v-.695h-.165zm-21.61.695v1.456h.53l1.058-1.456zm1.621 1.093c.839.243 1.5.364 1.986.364.243-.132.42-.199.53-.199v-.33l-1.788-.2h-.364c-.242.045-.364.166-.364.365zm29.884 1.093c0 .176-.121.408-.364.695v.728c.353-.11.53-.463.53-1.06v-.363h-.166zm-21.974.164c0 .177-.121.42-.364.728v.894c.199 0 .386-.177.563-.53l1.588-1.092zm-6.288 4.138v.199c1.522 0 2.901.419 4.137 1.257h.53c.198 0 .562-.364 1.092-1.092v-2.35c-1.81 1.324-3.73 1.986-5.759 1.986zm-3.243-1.788v.53c.044.242.165.364.364.364h.165v-.53c0-.242-.11-.364-.33-.364h-.2zm30.778 0c-.595 1.765-.893 3.2-.893 4.303v2.15c0 1.038.298 2.361.893 3.972h.166V36.173h-.166zm-30.249 1.258v.364h1.456v-.199c-.088 0-.573-.055-1.456-.165zm1.82.364v.165h.729l1.786-.165zm-2.35.166v.728h.53l2.515-.728zm9.168.529v2.35c.044.242.166.363.364.363h.199l3.044-.893h-.364v-.364c.243-.31.364-.486.364-.53v-.926zm-8.638.364v3.607c3.64.574 6.465 1.478 8.472 2.714v-3.972c-2.162-1.566-4.986-2.35-8.472-2.35zm-.53 3.772v.562h.53l3.607-.562zm.53.728v1.82c2.162 0 4.987.839 8.472 2.516v-1.82c-2.007-1.126-4.831-1.964-8.472-2.516zm-.53 1.986v.53c.354 0 .53.121.53.364v1.985c2.25.177 5.075 1.137 8.472 2.88v-2.151c-.86-.883-2.9-1.721-6.122-2.516-1.566 0-2.35-.309-2.35-.926l4.137-.166zm9.168.166v.563c.132 0 .32.055.563.165v-.364c0-.242-.122-.364-.364-.364h-.199zm21.974 2.184v1.06c.243.308.364.551.364.727h.166v-1.092c-.243-.286-.364-.518-.364-.695zm-21.974.365v.695c.132 0 .32.066.563.198v-.728c-.133 0-.32-.055-.563-.165zm-9.167.33v.563h.53l4.83-.563zm21.247.198v3.045c0 .177.177.364.53.563v-2.185c0-.11-.122-.584-.364-1.423h-.166zm-20.718.53v1.82h-.53v.53h.53c0-.353.067-.53.199-.53 3.596.597 6.111 1.556 7.545 2.88 0 .088.298.32.894.695l-.166-1.787v-.728c-3.839-1.92-6.663-2.88-8.472-2.88zm8.638 2.35v.727c.132 0 .32.055.563.166v-.728c-.133 0-.32-.056-.563-.166zm-8.638.165v2.185c.155.264 1.423.739 3.806 1.423 1.302.308 5.737 4.026 13.304 11.152.993.839 1.589 1.258 1.787 1.258 1.081-.243 1.688-.364 1.82-.364v-.166c-2.007-1.5-4.71-4.136-8.108-7.91-.154 0-.452-.308-.893-.926h.165l1.092.563v-.199a151.757 151.757 0 0 1-3.971-3.574l.927 1.622h-.199c-2.868-2.714-6.111-4.402-9.73-5.064zm21.413 1.092c0 1.258-.298 2.394-.894 3.409.243 0 1.203 1.202 2.88 3.607 1.676 1.655 2.879 2.67 3.607 3.045l1.621-2.515c-1.654-1.081-3.993-3.541-7.016-7.38v-.166h-.198zm9.199.364v.53c.243.309.364.552.364.728h.166v-.728c0-.177-.177-.353-.53-.53zm-31.141 1.06v.562h.53v-.199c0-.242-.111-.364-.332-.364zm.728.728c0 1.654.54 2.68 1.622 3.077 2.36.75 7.038 4.17 14.032 10.26h-1.092c0 .176.187.353.562.53h1.06c0-.244-.177-.365-.53-.365v-.165a10.102 10.102 0 0 1 1.985-.199c-8.803-8.163-13.844-12.245-15.124-12.245 0-.199-.838-.496-2.515-.894zm19.79.727c0 .177-.12.42-.363.729l.364.165c.242 0 .364-.121.364-.364-.133-.243-.199-.42-.199-.53h-.166zm10.26.894-.198.894.364.198h.198v-.728c0-.243-.12-.364-.364-.364zm-10.425.364c0 .243-.243.607-.729 1.092 2.273 2.67 4.369 4.7 6.288 6.09h.199c.176 0 .408-.232.695-.695-2.515-1.721-4.556-3.828-6.123-6.321 0-.11-.055-.166-.165-.166h-.166zm-19.824.364v.364c.133.243.199.42.199.53h.53v-.166c-.089-.375-.331-.617-.729-.728zm10.458 0h.166c.154 0 .452.298.893.894h-.165c-.155 0-.453-.298-.894-.894zm7.91.166-.364.562.364.166c.243 0 .364-.122.364-.364 0-.243-.121-.364-.364-.364zm-17.275 1.092v.165a32.916 32.916 0 0 0 2.15 3.806h-.165c-.243-.132-.42-.198-.53-.198v.198c.045.287.464.585 1.258.894v-.199l-.562-.695h.364c2.802 1.015 5.68 2.813 8.637 5.395 1.081.132 1.743.253 1.986.364v-.199c-6.486-5.516-10.866-8.693-13.138-9.531zm14.56 0c.133.243.2.419.2.53h.529c.242 0 .364-.122.364-.365l-.364-.165zm1.458.364c0 .154 2.217 2.372 6.652 6.652.551-.243.85-.486.893-.728-2.934-2.758-5.085-4.854-6.453-6.288-.486.243-.85.364-1.092.364zm-3.41.364c2.847 3.045 5.538 5.56 8.076 7.545.794-.308 1.213-.606 1.257-.893-2.03-1.743-4.424-3.96-7.181-6.652h-2.151zm15.29.53-.2.728.365.165h.198l.166-.728-.364-.166zm-2.15 3.243-.2.364c.023.242.144.364.365.364l.165-.364c0-.243-.11-.364-.33-.364zm-22.141.893v.166c2.162 1.72 3.839 2.747 5.03 3.077-.507-.904-2.184-1.985-5.03-3.243zm20.32 1.092.364.166c.177 0 .353-.177.53-.53l-.331-.198c-.199 0-.386.187-.563.562zm-1.259.695-.165.364c.022.243.143.364.364.364l.165-.364c0-.242-.12-.364-.364-.364zm-2.68 1.457v.165l.695.199c.242-.133.43-.199.562-.199l.894-.165-.728-.199c-.243.132-.42.199-.53.199zm-9.895.728c.199.463.618.695 1.258.695h.165c0-.353-.474-.585-1.423-.695zm7.016.165v.199l.893.165h.365l.893-.165c-.375 0-.562-.122-.562-.364-.199.11-.43.165-.695.165z"/></svg>