<svg xmlns="http://www.w3.org/2000/svg" width="672" height="830" fill="none"><g clip-path="url(#a)"><path fill="#DE5A75" d="M409.506 750.397c.491-2.106 1.344-4.017 2.084-6.015 1.652-4.431 3.453-8.818 4.826-13.334 1.911-6.344 3.941-12.624 6.667-18.669.298-.637.654-1.284.819-1.963 1.373-5.63 3.55-11.002 5.569-16.407 1.023-2.77 2.09-5.556 2.802-8.389.902-3.568 2.541-6.856 3.361-10.444.971-4.236 2.42-8.372 3.684-12.553 1.326-4.409 2.924-8.755 3.978-13.229 1.971-8.492 3.696-17.059 5.432-25.617 1.804-8.787 3.488-17.61 5.235-26.401.744-3.714 1.656-7.391 2.24-11.118.953-6.072 2.411-12.028 3.713-18.004 1.894-8.655 3.716-17.325 5.169-26.043 1.255-7.529 3.456-14.755 6.249-21.719 4.855-12.08 10.048-24.029 15.942-35.672 4.595-9.05 8.989-18.224 13.511-27.323a2135.68 2135.68 0 0 1 11.521-22.749c3.137-6.084 5.661-12.475 8.892-18.558 3.722-6.999 6.511-14.424 10.091-21.525 5.236-10.34 9.738-21.053 14.563-31.613 6.496-14.212 12.879-28.475 18.434-43.133 4.946-13.061 11.201-25.608 15.881-38.785.759-2.118 2.005-4.08 2.604-6.227 2.21-7.844 5.977-15.117 8.034-23.043 1.355-5.202 4.202-10.025 5.607-15.294.332-.808.672-1.627.996-2.454 1.472-2.227 1.512-4.969 2.598-7.327 2.62-5.708 3.942-11.91 6.725-17.567.157-.314.286-.657.345-.999.788-4.203 2.495-8.118 3.932-12.095 1.495-4.117 2.828-8.288 4.288-12.4 1.223-3.448 2.852-6.797 3.765-10.307 1.677-6.41 3.917-12.615 5.946-18.891.329-1.01.391-2.096.705-3.109 1.549-5.098-.654-8.798-5.518-10.845-8.355-3.518-16.639-7.238-24.999-10.754-4.249-1.779-8.28-4.029-12.114-6.467-5.611-3.579-11.449-6.637-17.418-9.477-7.184-3.423-14.558-6.419-22.099-9.069-4.088-1.432-8.386-2.212-12.379-3.86-4.243-1.757-8.623-3.158-12.961-4.537-3.899-1.224-7.654-2.86-11.593-3.993-3.691-1.06-7.491-1.822-11.084-3.154-8.931-3.309-18.22-5.365-27.194-8.49-7.385-2.583-14.869-4.857-22.193-7.578-8.058-2.964-15.785-6.68-23.256-10.905-4.18-2.37-8.557-4.553-12.48-7.212-5.229-3.558-10.905-6.178-16.451-8.999-8.175-4.149-16.76-7.525-25.234-11.11-2.425-1.02-5.028-2.01-7.591-2.196-3.461-.266-6.927-.643-10.381-.927-2.956-.227-6.053-.81-8.583 1.447-.095.087-.387-.056-.592-.093-.164-.822.992-1.851-.409-2.478-1.477 1.163-1.491 1.157-2.093 2.537-4.912 11.268-10.014 22.454-13.591 34.288-1.6 5.293-4.122 10.314-6.047 15.542-2.197 5.981-4.326 12.016-6.772 17.929-.678 1.64-1.667 3.219-2.035 4.922-1.539 7.2-4.65 13.864-7.012 20.781-1.958 5.69-4.39 11.222-6.455 16.901-1.933 5.33-3.922 10.619-5.304 16.137-2.236 8.929-5.57 17.521-7.829 26.456-1.78 7.083-4.848 13.818-7.424 20.662a130.222 130.222 0 0 1-7.843 17.095c-3.366 6.097-6.045 12.582-9.047 18.874-5.615 11.768-10.707 23.797-15.782 35.814-2.394 5.661-5.488 11.053-6.689 17.182 5.208-2.079 10.425-4.133 15.618-6.218-5.193 2.085-10.41 4.139-15.618 6.218-1.126.405-2.258.786-3.371 1.197-9.182 3.416-17.69 8.199-26.494 12.417-9.68 4.643-19.426 9.181-29.668 12.389-9.616 3.005-15.094 9.714-19.054 18.202-.804 1.711-.868 3.66-1.671 5.408-1.876 4.096-2.868 8.504-4.577 12.677-.928 2.262-1.249 4.789-1.595 7.252-.297 2.134.107 4.283 1.332 6.132 1.179 1.776 2.279 1.78 3.746.245 1.7-1.76 2.628-3.934 3.081-6.294.251-1.35.604-2.584 1.5-3.695.961.823.46 1.5.357 2.169-.532 3.439-.309 6.861.422 10.266.266 1.229.923 2.411 2.169 2.627 1.457.252 2.46-.682 2.98-2.045.67-1.753 1.458-3.439 1.693-5.382.269-2.202.551-4.471 1.821-6.403 1.092 1.041 1.306 2.522 1.901 3.806.775 1.637 1.572 3.223 2.784 4.594.668.768 1.353 1.377 2.473.986.966-.329 1.165-1.134 1.252-1.976.183-1.655.304-3.3.45-4.955.073-.771-.189-1.708 1.227-1.967 1.183 1.521 1.533 3.662 3.32 4.901 1.026.722 1.919.982 2.997.52 1.21-.513 1.219-1.514 1.096-2.685-.338-3.544-.634-7.09-.796-10.651-.151-3.369.874-4.693 4.191-5.644.915-.258 1.791-.514 2.646-.984 5.911-3.176 10.501-7.678 13.763-13.453.819-1.455 1.839-2.341 3.513-2.672 4.102-.826 8.18-1.768 12.263-2.674-8.587 19.659-17.177 39.316-25.75 58.981-1.754 4.024-3.8 7.953-5.081 12.127-2.386 7.783-5.766 15.188-8.08 23.023-2.055 6.978-4.781 13.826-7.341 20.678-2.588 6.964-5.304 13.873-7.377 21.025-.562 1.93-1.013 3.908-1.841 5.721-1.879 4.095-2.954 8.483-4.443 12.711-.968 2.778-2.339 5.488-2.881 8.354-1.226 6.538-3.41 12.782-5.536 18.98-3.011 8.83-5.013 17.949-8.07 26.755-.984 2.859-2.112 5.748-2.56 8.824-.678 4.8-2.259 9.407-3.766 13.975-2.005 6.052-3.126 12.341-5.175 18.371-1.843 5.461-3.452 11.029-5.145 16.536-3.007-4.724-6.681-8.811-10.782-12.684-3.526-3.324-6.91-4.4-11.19-2.099-3.396-4.385-5.965-9.217-8.338-14.196-2.632-5.497-5.59-10.768-10.736-14.637-3.558-2.685-7.378-3.072-11.267-2.225-2.773.598-4.917 2.479-6.25 5.368-2.26 4.88-2.14 9.862-1.301 14.944 1.01 6.141 2.93 12.037 5.25 17.817 2.533 6.328 5.329 12.517 9.764 17.847-1.377 2.651.3 4.48 1.93 6.215 3.964 4.194 8.46 7.634 13.644 10.35 3.234 1.684 5.933 2.332 8.886.037 2.958 2.185 6.304 3.696 9.624 5.22-3.773 7.033-5.154 14.944-7.898 22.352-1.881 5.078-3.135 10.397-5.345 15.372-1.158 2.618-1.747 5.338-2.313 8.125-.584 2.925.479 4.796 2.566 6.509 2.149 1.776 4.763 2.826 7.043 4.349 5.643 3.759 12.183 5.073 18.37 7.331 2.102.771 4.249 1.618 6.517 2.094 6.585 1.391 12.977 3.556 19.301 5.837 7.594 2.746 14.965 6.088 22.437 9.16 9.506 3.906 19.307 6.719 29.027 9.879 2.239.722 4.508 1.799 6.974 1.689.461 1.423-.497 2.506-.975 3.649-4.992 11.452-9.797 22.984-15.558 34.104-1.734 3.335-3.745 6.497-5.58 9.771-1.303 2.301-2.209 4.681-.44 7.244-.26 1.238.351 2.016 1.406 2.585.642 3.056 2.56 5.409 4.557 7.703.048.917.687 1.414 1.413 1.843 1.314 2.069 2.994 3.77 5.282 4.804l.259.169.304.076c2.022 1.466 4.435 1.825 6.555.942 3.603-1.52 7.18-3.228 10.168-5.855 5.926-5.219 10.001-11.624 12.722-18.969.537-1.449.487-3.004 1.289-4.409 2.801-4.935 6.123-9.518 9.561-14.026 4.993-6.541 7.183-14.006 6.999-22.215-.01-.957-.098-1.907.242-2.819 1.664.249 3.336.687 5.007.738 9.615.375 19.226.454 28.82 1.349 5.372.494 10.774.788 16.079 1.729 8.163 1.441 16.215 3.305 24.464 4.38 11.012 1.44 21.586 4.735 31.823 9.105 4.319 1.846 8.536 3.923 12.73 6.046 8.293 4.18 16.846 7.836 25.741 10.673 2.34.745 4.307.506 5.905-1.283 2.144-2.316 4.153-4.745 4.853-7.804zM170.194 362.37a1.82 1.82 0 0 1-.193.573l-.401-.796c.196.069.407.141.594.223zm8.568-.687c.009-.322.023-.647.053-.981-.239-.177-.254-.349-.091-.516.1.157.184.303.286.456.09.313.176.625.262.937-.164.037-.346.067-.51.104zm-42.473 242.805c.293 1.423.846 2.926.286 4.381.574-1.449.021-2.952-.286-4.381z"/><path fill="#ACD8CE" d="M596.481 236.543c-1.395 5.293-4.25 10.096-5.603 15.295-2.069 7.942-5.828 15.198-8.035 23.043-.604 2.149-1.848 4.107-2.604 6.227-4.69 13.192-10.942 25.741-15.884 38.783-5.546 14.647-11.939 28.925-18.432 43.139-4.827 10.554-9.331 21.271-14.566 31.611-3.593 7.091-6.376 14.54-10.091 21.525-3.246 6.077-5.754 12.471-8.889 18.559a1568.612 1568.612 0 0 0-11.52 22.746c-4.538 9.091-8.929 18.267-13.511 27.323-5.911 11.636-11.086 23.592-15.945 35.671-2.795 6.967-4.995 14.193-6.245 21.72-1.455 8.722-3.3 17.397-5.171 26.046-1.3 5.973-2.769 11.944-3.715 17.999-.582 3.732-1.493 7.405-2.24 11.118-1.751 8.81-3.445 17.608-5.231 26.403-1.754 8.55-3.461 17.125-5.434 25.62-1.039 4.477-2.637 8.823-3.977 13.226-1.263 4.181-2.707 8.304-3.684 12.553-.82 3.588-2.459 6.876-3.366 10.446-.712 2.832-1.785 5.632-2.798 8.39-2.011 5.425-4.178 10.781-5.568 16.404-.168.677-.524 1.325-.82 1.966-2.73 6.044-4.758 12.32-6.667 18.669-1.359 4.523-3.159 8.906-4.825 13.331-.743 1.996-1.612 3.905-2.085 6.018-.691 3.039-2.723 5.482-4.782 7.763-1.596 1.785-3.564 2.025-5.903 1.279-8.877-2.829-17.456-6.476-25.741-10.673-4.194-2.123-8.406-4.213-12.728-6.041-10.229-4.35-20.82-7.653-31.827-9.106-8.241-1.092-16.299-2.943-24.458-4.382-5.292-.935-10.713-1.233-16.084-1.731-9.593-.894-19.205-.973-28.82-1.345-1.665-.068-3.33-.483-5.002-.74-1.462-5.277-1.935-10.728-3.171-16.051-2.058-8.824-.781-17.478 1.176-26.032 2.066-8.964 5.474-17.547 8.361-26.261 2.439-7.397 5.933-14.422 8.644-21.752 1.886-5.1 3.774-10.195 5.583-15.325.702-1.997 1.131-4.094 1.583-6.16 1.436-6.575 2.704-13.163 4.235-19.712 1.43-6.098 3.715-11.972 5.194-18.016 1.592-6.519 4.241-12.509 6.801-18.59.201-.461.274-1.232 1.382-.822-.125 2.758-.369 5.592-.353 8.411.033 6.631.205 13.245.458 19.879.326 8.525.481 17.052.975 25.578.142 2.494.083 5.026.527 7.467.712 3.998 2.572 5.543 7.327 3.65.336-.128.601-.396.918-.568 3.346-1.865 6.271-4.302 9.205-6.674 2.006-1.61 4.656-2.521 5.932-4.978a.898.898 0 0 0 .309-.321c4.892-2.93 7.93-7.343 10.224-12.389 1.386-3.047 1.401-6.204.933-9.401-.665-4.587-1.603-9.142-2.139-13.721-1.131-9.792-2.703-19.522-4.014-29.284-1.17-8.767-1.524-17.434 2.061-25.827 3.434-8.056 6.514-16.271 9.728-24.407.397-.997.939-1.946 1.15-2.988 1.096-5.456 3.332-10.585 4.705-15.961.951-.296 1.043-1.063 1.204-1.904.612-3.28 1.323-6.532 1.985-9.805 2.663.342 5.239-.399 7.857-.557 4.912-.287 9.67-1.412 14.449-2.471 3.671-.808 6.793-2.848 10.345-3.857.689.211 1.357.519 2.07.591 6.664.643 12.548-1.271 17.811-5.148 4.359-3.199 7.432-7.56 10.963-11.519 4.434-4.954 7.258-10.754 10.243-16.488 3.184-6.104 4.583-12.945 7.593-19.124 1.409-2.892 2.018-6.044 2.738-9.147 1.853-8.051.328-16.042-1.065-23.995-1.271-7.167-1.58-14.41-1.975-21.614-.16-2.792.622-5.445 2.703-7.483 2.86-2.807 5.683-5.688 8.884-8.165 4.026-3.122 8.186-6.129 11.975-9.52 5.225-4.685 10.948-8.71 16.324-13.184 2.517-2.098 5.505-3.829 6.741-7.127 4.491-3.851 8.793-8.003 14.299-10.464 6.403-2.852 12.659-6.007 19.183-8.625 6.955-2.797 13.656-6.161 20.239-9.774 8.747-4.812 17.867-8.945 26.846-13.345 5.43-2.676 11.003-5.123 16.29-8.063 5.903-3.289 11.975-6.285 17.479-10.28 3.217-2.382 6.294-4.913 9.336-7.532zm-93.23 91.807c-2.311-1.282-3.176.278-4.07 1.385-2.687 3.306-5.079 6.83-7.633 10.247-5.596 7.497-11.273 14.926-16.899 22.41a659.715 659.715 0 0 0-18.154 25.408c-7.378 10.851-14.482 21.894-21.657 32.89-3.814 5.845-7.189 11.954-10.9 17.864-6.94 11.005-12.693 22.71-18.861 34.161-3.137 5.829-5.581 12.038-8.372 18.054-1.2 2.583-2.486 5.109-3.655 7.705-1.989 4.43-3.985 8.877-5.846 13.363-.419 1.007-.763 2.39.581 3.194.927.57 2.744-.74 3.18-2.212.057-.214.056-.468.012-.705-.278-1.42.479-2.551 1.018-3.703 3.788-8.18 7.788-16.243 11.404-24.499 4.467-10.199 9.659-20.014 15.152-29.674 7.5-13.137 15.156-26.171 23.647-38.727 3.692-5.478 7.104-11.172 10.729-16.716 5.705-8.728 11.526-17.373 17.557-25.87 7.113-10.035 14.565-19.829 21.733-29.819 3.507-4.885 6.664-10.033 11.034-14.756zM270.084 682.362c-.312 1.913.621 1.953 1.836 2.192 8.469 1.719 17.016 1.298 25.547 1.217 3.122-.031 6.231.231 9.365.173 6.842-.143 13.69-.006 20.523-.004 6.989-.007 13.938.795 20.908 1.256 11.413.776 22.739 2.224 33.936 4.656 1.651.353 3.265.839 4.909 1.208 4.435 1.022 8.917 1.936 12.959 4.19.869.487 1.595.53 2.201-.304.655-.9.664-1.864-.303-2.504-.897-.592-1.909-1.09-2.933-1.391-9.369-2.693-18.707-5.324-28.407-6.737-9.194-1.341-18.398-2.231-27.614-3.086-3.595-.345-7.212-.716-10.801-.727-10.447-.003-20.881.305-31.331.263-10.202-.009-20.386.63-30.795-.402zm143.968-156.025c1.443-.065 2.09-.569 2.456-1.834 2.239-7.484 5.371-14.63 8.148-21.896 2.417-6.308 5.339-12.417 8.06-18.61.428-.983.814-2.001 1.41-2.858 2.463-3.509 4.029-7.486 5.932-11.296.253-.495.637-1.037.035-1.703-1.195-.465-1.541.498-2.033 1.288-3.156 4.889-5.745 10.102-8.164 15.349a723.975 723.975 0 0 0-15.618 36.636c-.587 1.479-1.407 3.058-.226 4.924zm-80.003 128.101c-.495-1.515-1.378-2.045-2.566-1.413-3.42 1.817-7.215 2.28-10.91 3.191-11.245 2.771-22.539 5.137-34.22 5.362-.7.021-1.082.387-1.147 1.565 2.638 1.041 5.502.406 8.188.355 11.273-.185 36.363-5.872 40.655-9.06zm-81.112-364.807c5.277-2.117 10.524-4.324 15.835-6.378 4.749-1.839 9.575-3.515 14.339-5.295 11.304-4.225 22.297-8.986 31.616-16.816 7.974-6.719 15.916-13.487 23.45-20.687 6.166-5.901 11.841-12.25 17.653-18.45 6.17-6.589 12.805-12.576 20.714-17.221 7.312-4.303 14.815-5.744 23.021-2.695.483.174.93.167 1.375-.079-2.844-2.446-4.592-5.274-4.632-9.2-.058-4.866-1.967-8.986-6.677-11.387-2.94-1.499-4.345-4.085-4.879-7.133-.609-3.517 1.585-6.833 5.062-7.895.579-.167 1.157-.428 1.733-.467 4.53-.272 5.864-3.454 6.719-7.084.14-.576.141-1.181.298-1.75 1.889-7.455 5.684-9.491 13.729-7.61 1.281.305 2.392 1.172 3.76 1.24.474.025.948-.043 1.367-.062 1.079-.72 1.316-1.782 1.339-2.853.113-5.776 2.128-10.655 6.931-14.06 2.123-1.503 2.362-3.371 1.735-5.565-1.622-5.766 2.665-13.506 9.914-14.969 8.312-1.674 16.539-3.804 25.159-3.882 7.441-.064 12.722 3.46 16.316 9.485 2.058 3.439 3.916 7.081 4.559 11.198.256 1.592-.248 3.05.017 4.574 1.798-1.427 3.569-2.886 5.68-3.882 1.289-.608 2.689-1.603 3.935.199 1.157.722.628 1.681.384 2.58 2.729-.582 5.29-2.1 8.252-1.244l.049.058c.229-.393.577-.427.994-.318l-.022.011c.299-.346.663-.369 1.057-.16.431.078.848.148 1.279.226 1.264-.381 2.153.193 2.86 1.174.312.266.611.521.916.803 2.733 1.757 2.86 3.183.298 4.532-1.892 1.002-3.866 1.86-5.832 2.738-1.418.641-2.869 1.198-3.945 2.552-.591 3.196 1.667 5.532 3.105 8.043 1.243 2.147 2.724 4.221 4.516 6.043 1.626 1.657 2.984 3.673 3.253 5.912.418 3.361 2.436 5.354 4.983 7.066 2.494 1.673 5.033 3.328 7.683 4.721 7.461 3.947 14.267 8.923 21.532 13.151 6.254 3.638 12.065 7.91 18.033 11.952 7.871 5.316 15.529 10.99 22.702 17.171 3.154 2.726 6.549 5.227 9.353 8.406 2.039 2.333 3.093 4.782 3.028 7.751 1.476-2.225 1.515-4.967 2.598-7.327 2.62-5.708 3.945-11.908 6.728-17.565.154-.316.287-.658.342-1.001.793-4.205 2.498-8.117 3.934-12.098 1.498-4.116 2.829-8.283 4.285-12.397 1.226-3.451 2.853-6.797 3.77-10.306 1.677-6.413 3.916-12.614 5.945-18.89.326-1.012.392-2.097.702-3.111 1.552-5.097-.65-8.8-5.515-10.844-8.355-3.517-16.642-7.239-24.999-10.753-4.252-1.781-8.28-4.029-12.116-6.472-5.609-3.575-11.447-6.632-17.416-9.473-7.187-3.424-14.575-6.426-22.102-9.07-4.087-1.435-8.383-2.211-12.376-3.859-4.244-1.761-8.627-3.16-12.96-4.536-3.899-1.224-7.655-2.861-11.594-3.994-3.689-1.063-7.493-1.826-11.084-3.153-8.931-3.31-18.223-5.367-27.194-8.491-7.385-2.582-14.868-4.856-22.193-7.578-8.058-2.964-15.788-6.68-23.256-10.904-4.183-2.373-8.557-4.554-12.484-7.214-5.225-3.557-10.9-6.176-16.45-8.999-8.175-4.149-16.757-7.523-25.234-11.11-2.422-1.02-5.028-2.01-7.591-2.196-3.458-.265-6.928-.643-10.378-.925-2.956-.228-6.052-.811-8.582 1.446-.096.087-.386-.059-.593-.093-.164-.822.992-1.85-.411-2.482-1.475 1.168-1.492 1.16-2.094 2.54-4.912 11.268-10.011 22.455-13.587 34.29-1.601 5.293-4.126 10.312-6.05 15.536-2.198 5.985-4.327 12.02-6.772 17.929-.678 1.641-1.664 3.224-2.036 4.926-1.536 7.201-4.647 13.865-7.009 20.783-1.96 5.685-4.39 11.221-6.457 16.896-1.931 5.335-3.92 10.624-5.302 16.141-2.235 8.929-5.573 17.52-7.829 26.456-1.783 7.082-4.851 13.817-7.424 20.662a130.723 130.723 0 0 1-7.843 17.095c-3.366 6.097-6.045 12.582-9.047 18.874-5.614 11.765-10.711 23.796-15.781 35.814-2.394 5.661-5.489 11.053-6.689 17.182 5.18-2.017 10.38-4.079 15.598-6.173zM130.085 596.248c1.7-5.524 3.302-11.075 5.141-16.538 2.037-6.039 3.158-12.327 5.179-18.369 1.506-4.568 3.089-9.179 3.767-13.978.431-3.084 1.575-5.962 2.56-8.825 3.057-8.805 5.059-17.925 8.068-26.751 2.117-6.222 4.301-12.467 5.536-18.98.544-2.869 1.898-5.587 2.881-8.354 1.487-4.229 2.566-8.62 4.442-12.716.828-1.813 1.282-3.789 1.844-5.719 2.074-7.152 4.789-14.061 7.377-21.025 2.558-6.849 5.275-13.684 7.338-20.68 2.317-7.833 5.693-15.237 8.083-23.021 1.278-4.176 3.327-8.103 5.081-12.127 8.573-19.665 17.16-39.324 25.75-58.982 6.215-1.692 12.498-3.08 18.805-4.389 7.021-1.449 14.042-2.991 20.86-5.134 11.965-3.772 23.892-7.597 35.52-12.267 6.867-2.763 13.847-5.4 20.183-9.125 10.124-5.962 19.792-12.636 27.821-21.319 1.196-1.29 2.421-2.6 4.023-3.454.063 3.061-2.205 5.142-3.323 7.705-2.496 5.726-6.534 10.416-11.043 14.57-5.126 4.704-10.658 9.017-16.158 13.305-5.13 3.996-9.885 8.406-14.809 12.617-3.798 3.242-7.088 6.939-10.576 10.461a158.48 158.48 0 0 0-15.965 18.928c-3.091 4.316-5.682 8.94-8.628 13.34-2.686 3.981-4.684 8.479-6.5 12.948-1.858 4.563-3.152 9.369-4.714 14.057-.336 1.024-.84 2.011.279 2.99.771-.099 1.595-.196 2.406-.302-.088.712-.084 1.428-.271 2.112-1.777 6.641-2.584 13.49-3.531 20.238-1.35 9.586-2.876 19.151-4.399 28.718-1.085 6.761-2.357 13.516-3.265 20.297-1.256 9.247-2.387 18.509-3.521 27.77-1.342 10.944-1.844 21.924-2.827 32.893-.258 2.941-.264 5.896-.673 8.807-1.243 8.83-3.907 17.242-7.17 25.501-1.255 3.181-2.347 6.449-3.123 9.765a196.746 196.746 0 0 0-3.951 23.032c-.958 8.696-1.584 17.431-2.092 26.162-.426 7.212-.362 14.458-.674 21.664-.362 8.867-.767 17.735-1.384 26.583-.67 9.79-1.159 19.626-2.564 29.3-1.131 7.802-2.508 15.657-5.863 22.929-2.47.109-4.744-.955-6.974-1.689-9.706-3.154-19.521-5.973-29.03-9.88-7.469-3.071-14.84-6.413-22.434-9.159-6.324-2.281-12.719-4.448-19.301-5.837-2.268-.476-4.415-1.323-6.517-2.094-6.186-2.258-12.743-3.583-18.37-7.331-2.28-1.523-4.894-2.573-7.043-4.349-2.086-1.713-3.15-3.584-2.565-6.509.571-2.8 1.161-5.521 2.312-8.125 2.207-4.976 3.45-10.3 5.345-15.372 2.745-7.408 4.126-15.322 7.9-22.355.59.06 1.24-.024 1.764.188 7.703 2.919 16.09-2.869 17.377-10.348.725.864.619 2.041 1.132 2.958 1.603 2.821 2.649 6.27 6.806 6.477.269 7.371 6.724 11.315 13.739 9.277 6.786-1.975 11.722-6.508 14.027-13.378a22.886 22.886 0 0 1 1.674-.549c3.846-1.135 6.039-3.213 6.544-7.616.491-4.332.05-8.49-.59-12.662-.492-3.228-1.178-6.521-2.455-9.619-.57-1.382-1.141-2.636-2.825-2.914.403-1.228.584-2.501.758-3.796.933-6.666.001-13.281-1.066-19.813-.968-5.937-2.454-11.886-6.083-16.973-2.205-3.1-4.937-5.586-8.834-6.389-7.584-1.572-15.769 3.792-17.261 11.307-1.184 6.007-.212 12.022.296 18.033.627 7.325 1.524 14.622.611 21.97-1.31.526-2.621 1.052-3.909 1.62-3.447 1.494-5.384 3.72-4.86 7.858.234 1.857 1.318 3.899.038 5.806-1.651-1.466-2.842-3.394-4.781-4.586.403-.575.701-1.175.829-1.902.501-2.686-1.223-4.664-2.174-6.886zm84.968-117.497c1.769.771 2.337.325 2.795-.516 1.288-2.4 2.618-4.761 3.905-7.157 2.997-5.507 5.829-11.106 9.269-16.348 2.925-4.445 5.973-8.797 8.97-13.19.405-.59.796-1.223-.452-1.953-9.918 11.903-17.566 25.173-24.487 39.164zm291.415-279.146c2.52 7.509-1.999 15.092-9.913 15.901-4.761.499-8.594 2.245-12.252 5.165-2.914 2.328-6.349 4.009-10.264 4.747-3.307.624-6.218-.262-9.019-1.572a334.86 334.86 0 0 1-5.208-2.492c-1.96 3.987-1.107 8.179-.368 12.209.608 3.351 6.248 7.201 9.717 7.487 5.397.437 10.742 1.286 15.952 2.88 4.977 1.532 9.924 1.458 14.901.122 5.339-1.437 10.284-3.811 15.452-5.705 7.937-2.918 15.818-6.038 23.854-8.711 2.196-.725 4.337-2.091 6.852-1.834.855-1.62 2.557-2.064 4.055-2.803-1.496-1.745-3.52-2.866-5.296-4.261-6.391-5.034-12.945-9.863-19.355-14.853-5.756-4.482-11.33-9.211-17.552-13.094-2.063 1.913-2.428 4.239-1.556 6.814zm-95.12 10.23c3.044 2.497 6.409 4.606 10.482 5.175 2.566.348 4.672-.21 6.241-2.394.757-1.058 1.537-2.073 2.011-3.291-3.24 1.367-6.441 1.23-9.656-.28-2.609-1.231-5.389-1.91-8.223-2.415a38.666 38.666 0 0 1-8.572-2.551c2.706 1.744 5.214 3.717 7.717 5.756z"/><path fill="#EE7F8E" d="M434.763 169.878c4.442.75 8.772.298 13.014-1.011-.017.464-.094.943-.038 1.407.486 4.101-.073 5.12-3.826 6.901-3.104 1.479-5.403.602-7.106-2.461-.847-1.555-.596-3.547-2.044-4.836zm38.706 4.049c.383 2.668 2.595 4.677 5.083 4.572 3.04-.135 4.985-2.248 4.936-5.211-.03-1.09-.934-1.96-.676-3.07-2.815.564-5.568.219-8.291-.674-.71 1.373-1.28 2.766-1.052 4.383zm-18.941 9.352c3 2.607 6.313 4.015 10.426 3.379 2.742-.43 4.647-1.556 5.447-4.241-1.067-.373-2.15-.114-3.233-.111-4.391.039-8.812.907-13.141-.613-.074.605-.013 1.144.501 1.586zm7.004-6.153c-2.838-.414-5.615-.144-7.82 1.961 5.156 2.102 10.358 1.611 15.594.589-2.453-1.344-5.074-2.159-7.774-2.55zM119.299 583.562c-3.503-3.318-6.909-4.4-11.188-2.102-7.952 4.791-14.04 11.363-18.793 19.228-1.204 1.997-2.734 3.799-4.1 5.688-1.378 2.651.302 4.476 1.93 6.211 3.966 4.194 8.46 7.634 13.646 10.35 3.233 1.684 5.932 2.332 8.885.037 1.882-2.778 4.905-4.365 7.339-6.535 4.548-4.065 9.167-8.171 14.404-11.423.399-.576.698-1.176.831-1.905.476-2.677-1.248-4.655-2.182-6.869-2.991-4.721-6.68-8.814-10.772-12.68zm20.302 37.421c1.603 2.821 2.649 6.27 6.806 6.477.579-.772 1.447-.668 2.281-.704 5.875-.235 11.572-1.551 17.357-2.353 2.715-.37 5.357-1.138 8.128-1.044a29.916 29.916 0 0 1 1.66-.555c3.846-1.135 6.036-3.214 6.541-7.617.494-4.331.05-8.491-.587-12.661-.492-3.228-1.182-6.522-2.455-9.619-.573-1.383-1.145-2.637-2.828-2.915-6.132.143-12.219.684-18.295 1.379-4.569.53-8.844 2.047-13.284 2.96-1.293.533-2.618 1.053-3.903 1.606-3.444 1.496-5.383 3.717-4.859 7.854.234 1.857 1.317 3.902.04 5.811 1.955 2.514 2.556 5.37 2.239 8.447.752.84.646 2.017 1.159 2.934z"/><path fill="#F5ADAE" d="M216.015 720.905c3.353-7.268 4.739-15.143 5.86-22.929 1.389-9.677 1.892-19.508 2.567-29.299.617-8.848 1.017-17.715 1.382-26.58.297-7.217.248-14.451.676-21.668.507-8.727 1.109-17.456 2.092-26.161a196.436 196.436 0 0 1 3.951-23.032c.776-3.316 1.87-6.599 3.119-9.766 3.267-8.258 5.933-16.685 7.17-25.501.412-2.907.415-5.867.672-8.805.977-10.954 1.486-21.951 2.83-32.891 1.133-9.265 2.267-18.526 3.521-27.77.924-6.778 2.194-13.53 3.262-20.298 1.52-9.552 3.046-19.118 4.4-28.722.957-6.76 1.764-13.609 3.534-20.236.181-.668.183-1.401.267-2.111 5.249-2.552 10.661-4.413 16.645-4.858 3.155-.23 6.198.221 9.29.27 7.288.107 14.127 2.068 20.82 4.784-2.389 1.718-4.962 3.263-7.145 5.196-3.636 3.219-7.399 6.549-8.705 11.386-1.074 3.953-1.83 8.081-1.733 12.255.143 6.509.086 13.007.259 19.533.182 6.288.712 12.551 1.107 18.823.327 5.314 1.316 10.602 1.791 15.925.697 7.795 2.101 15.515 2.936 23.295.719 6.727 1.204 13.385-.632 20.077-.905 3.312-2.208 6.472-3.159 9.765-2.067 7.175-.063 14.112.584 21.136.078.84.694 1.218 1.554.915.94-.74.621-1.811.608-2.676-.01-2.836-.28-5.677-.332-8.511-.074-4.745.058-9.403 2.049-13.925 1.065-2.441 2.116-5.069 2.545-7.713.95-5.98 1.184-12.035.363-18.093a1356.038 1356.038 0 0 1-2.213-17.315c-.891-7.312-1.939-14.603-2.58-21.934-.531-6.129-1.228-12.263-1.305-18.452-.071-6.28-.527-12.543-.526-18.827.007-4.968-.038-10.119 1.964-14.672 2.701-6.112 7.881-10.175 13.459-13.698 1.799-1.136 3.821-1.974 5.14-3.755.773-.284 1.609-.447 2.316-.833 9.217-4.862 19.193-7.072 29.545-7.965 6.83-.585 13.668-.161 20.464.699 9.949 1.268 18.415 5.342 24.635 13.464 2.871 3.752 4.493 8.058 6.35 12.305 3.174 7.245 3.052 14.74 2.794 22.301-.207.127-.468.215-.579.385-3.823 5.695-8.251 10.853-13.602 15.225-1.499 1.211-3.429 2.177-3.805 4.369-1.705.498-3.248 1.254-4.42 2.623-3.553 1.009-6.659 3.051-10.342 3.859-4.782 1.057-9.541 2.182-14.452 2.469-2.617.155-5.193.896-7.858.557-.114-.341-.317-.687-.297-1.025.336-5.006-.579-9.915-1.361-14.827-.268-1.686-.462-3.505-1.892-4.931-1.654 1.36-.793 2.978-.548 4.38 1.455 8.328 2.496 16.616.091 24.907-.333 1.15-.45 2.361.805 3.199-1.377 5.374-3.605 10.486-4.705 15.961-.204 1.025-.757 1.99-1.154 2.987-3.234 8.143-6.306 16.341-9.727 24.406-3.585 8.394-3.228 17.062-2.059 25.83 1.312 9.761 2.875 19.504 4.016 29.28.528 4.599 1.448 9.147 2.135 13.719.485 3.209.447 6.371-.933 9.404-2.292 5.049-5.333 9.46-10.223 12.387-.997-6.042-1.781-12.101-3.26-18.063-.062-.245-.52-.392-.736-.538-.633.216-.844.652-.828 1.135.176 5.321 1.063 10.549 2.304 15.729.275 1.161.998 1.86 2.196 2.055-1.277 2.457-3.927 3.367-5.931 4.975-2.949 2.369-5.872 4.802-9.206 6.677-.318.172-.583.44-.918.568-4.754 1.889-6.615.348-7.326-3.653-.439-2.455-.385-4.973-.529-7.464-.493-8.526-.649-17.054-.973-25.582a596.505 596.505 0 0 1-.459-19.875c-.017-2.819.222-5.64.354-8.414-1.098-.386-1.182.364-1.383.825-2.544 6.088-5.198 12.091-6.801 18.59-1.48 6.043-3.764 11.914-5.194 18.015-1.531 6.55-2.8 13.138-4.234 19.709-.454 2.07-.883 4.166-1.585 6.164-1.808 5.129-3.697 10.224-5.581 15.321-2.712 7.334-6.207 14.359-8.646 21.755-2.886 8.715-6.293 17.295-8.36 26.261-1.975 8.547-3.233 17.205-1.177 26.033 1.242 5.309 1.709 10.774 3.171 16.05-.344.912-.263 1.878-.242 2.82.184 8.209-2.017 15.689-7.003 22.213-3.438 4.508-6.759 9.091-9.561 14.026-.798 1.407-.751 2.96-1.288 4.409-2.717 7.344-6.797 13.751-12.723 18.969-2.987 2.627-6.556 4.323-10.166 5.852-2.104.894-4.518.535-6.556-.938 2.619-2.255 4.479-5.192 6.454-7.93 1.688-2.334 3.459-4.813 4.398-7.656.322-.993.541-1.882-.946-2.054-.204.129-.499.202-.6.396a318.321 318.321 0 0 1-8.161 13.249c-.725 1.108-1.944 2.15-1.695 3.755-2.29-1.019-3.97-2.719-5.278-4.802 1.658-2.569 3.591-4.994 4.889-7.716 1.258-2.631 3.982-4.606 3.988-8.037-1.829-.123-2.104 1.112-2.707 2.072-2.496 3.97-5.048 7.901-7.57 11.844-1.997-2.294-3.915-4.648-4.557-7.703.219-.417.35-.925.681-1.22 3.269-2.795 5.502-6.424 8.193-9.693.511-.616 1.306-1.109.941-2.111-.649-.739-1.419-1.018-2.152-.317-.854.798-1.533 1.761-2.205 2.746-1.98 2.921-4.033 5.79-6.846 8.017-1.769-2.562-.862-4.946.437-7.245 1.855-3.265 3.86-6.413 5.584-9.773 5.759-11.117 10.565-22.649 15.557-34.1.458-1.136 1.411-2.217.955-3.643zm88.54-128.086c-1.1.985-.652 2.221-.439 3.318 1.139 5.592 2.343 11.16 3.546 16.727.216 1.006.314 2.44 1.794 2.206 1.539-.241.89-1.657.876-2.652-.005-.111-.052-.22-.073-.342-1.281-5.436-2.522-10.871-3.885-16.29-.271-1.086-.315-2.437-1.819-2.967zm19.895 7.596c2.123-.172 2.362-1.108 2.02-2.5-.864-3.443-1.589-6.901-2.564-10.304-.348-1.212-.524-2.77-2.681-3.726.297 5.902 1.666 11.138 3.225 16.53zm-44.743-50.178c-2.968 1.518-5.207 3.446-7.87 4.641-1.164.538-2.392 1.043-3.518 1.702-.579.349-.745.898-.395 1.51.263.462.679.659 1.189.555.347-.07.683-.199 1.018-.327 2.683-.984 4.98-2.706 7.595-3.829 1.18-.49 2.69-1.643 1.981-4.252zM240.953 721.97c.909.905 1.53.885 2.013.127 1.4-2.278 1.553-4.93 2.177-7.438.204-.806-.331-1.625-1.952-1.416.184 3.001-1.214 5.736-2.238 8.727zm68.504-274.316c-1.643-2.596-4.536-3.95-6.974-5.836-.971 1.114-.377 1.808.241 2.352 1.764 1.593 3.309 3.472 5.542 4.462.463.222.899-.137 1.191-.978zm40.868-173.167c-1.602.855-2.823 2.166-4.019 3.456-8.032 8.682-17.695 15.341-27.825 21.317-6.343 3.742-13.313 6.364-20.179 9.127-11.629 4.669-23.578 8.501-35.52 12.267-6.818 2.143-13.848 3.697-20.86 5.134-6.307 1.309-12.594 2.695-18.808 4.388-4.08.908-8.163 1.851-12.264 2.673-1.695.343-2.695 1.222-3.512 2.673-3.262 5.775-7.846 10.263-13.762 13.457-.87.46-1.734.725-2.645.985-3.32.945-4.345 2.269-4.195 5.643.162 3.56.444 7.1.796 10.65.111 1.162.116 2.169-1.095 2.682-1.077.462-1.962.189-2.993-.519-1.785-1.254-2.14-3.381-3.324-4.902-1.417.262-1.168 1.19-1.228 1.97-.145 1.652-.273 3.314-.447 4.957-.086.838-.289 1.645-1.255 1.974-1.119.388-1.796-.238-2.472-.989-1.209-1.366-2.001-2.974-2.783-4.594-.615-1.288-.8-2.777-1.916-3.812.105-.192.173-.397.216-.616.469-.143.893-.341.942-.888.242-1.961.465-3.925.689-5.892.076-.645.423-1.442-.68-1.685-1.068.866-1.473 2.134-1.603 3.376-.176 1.602.015 3.258.052 4.88.136.281.285.544.421.825-1.289 1.939-1.578 4.225-1.834 6.434-.234 1.943-1.023 3.628-1.696 5.38-.52 1.363-1.523 2.297-2.977 2.047-1.246-.217-1.902-1.399-2.168-2.628-.732-3.405-.969-6.832-.421-10.269.096-.652.588-1.349-.362-2.167-.885 1.095-1.245 2.346-1.497 3.697-.453 2.36-1.397 4.526-3.081 6.293-1.47 1.534-2.567 1.532-3.746-.245-1.225-1.849-1.646-4.005-1.331-6.132.338-2.446.68-4.984 1.595-7.252 1.708-4.173 2.683-8.589 4.577-12.677.801-1.752.867-3.696 1.67-5.407 3.96-8.489 9.438-15.198 19.054-18.203 10.26-3.2 19.996-7.763 29.668-12.389 8.797-4.201 17.306-8.987 26.495-12.417 1.109-.412 2.252-.809 3.371-1.197 5.207-2.078 10.424-4.133 15.617-6.218 5.282-2.118 10.526-4.327 15.835-6.377 4.749-1.839 9.58-3.517 14.34-5.295 11.303-4.226 22.297-8.986 31.616-16.82 7.976-6.713 15.915-13.483 23.451-20.687 6.168-5.896 11.84-12.246 17.655-18.445 6.166-6.59 12.802-12.577 20.71-17.222 7.316-4.302 14.815-5.745 23.023-2.699.483.174.934.169 1.373-.075 1.252.251 1.953 1.198 2.709 2.076 2.702 1.743 5.215 3.714 7.699 5.749 3.044 2.497 6.411 4.602 10.484 5.172 2.564.351 4.672-.211 6.241-2.395.757-1.058 1.536-2.07 2.009-3.287 2.425-5.394 3.056-11.368 5.641-16.486-2.633-3.742-2.589-3.541-6.301-2.674-2.825.668-5.813.515-8.191-1.51-4.282-3.674-5.729-8.56-4.949-13.848.409-2.815 1.244-5.759 4.618-7.048 1.923-.731 3.468.29 5.101.562.6-1.038.162-1.995.212-2.921 2.602 1.937 5.428 3.443 8.499 4.471 1.462 1.295 1.211 3.288 2.064 4.829 1.686 3.055 4.004 3.936 7.107 2.457 3.74-1.786 4.294-2.803 3.827-6.9-.058-.461.019-.94.038-1.408 3.181-1.279 6.362-2.596 9.004-4.808 1.928-1.604 3.927-2.048 6.283-1.17-.089 1.534-.503 3.125-.187 4.578.571 2.698.627 5.098-1.452 7.169-.058.047.183.39.289.582 4.065-.657 4.593-1.358 4.025-5.225-.258-1.754-.326-3.523-.568-5.27-.13-.9.364-1.306.995-1.688 1.861 3.333 5.439 4.529 8.377 6.504-.709 1.373-1.28 2.766-1.054 4.381.382 2.668 2.599 4.676 5.083 4.572 3.04-.135 4.985-2.248 4.936-5.21-.027-1.089-.934-1.961-.673-3.069 2.418-.209 4.586-1.164 6.743-2.14.479 3.259-.281 6.454-1.26 9.387-2.887 8.755-7.408 16.522-15.153 22.15-4.363 3.178-8.98 4.582-14.416 3.47-4.091-.831-7.785-2.478-11.286-4.661-1.686-1.046-3.381-1.987-5.991-2.705 1.329 2.205 2.627 3.63 4.046 4.394 5.419 2.859 10.908 5.687 17.419 5.496.037 1.622-.688 2.605-1.036 3.696-1.255 3.906-2.587 7.82-2.074 12.066-1.963 3.985-1.105 8.175-.367 12.208.604 3.35 6.245 7.197 9.716 7.488 5.396.432 10.744 1.283 15.953 2.88 4.975 1.527 9.923 1.458 14.902.118 5.339-1.436 10.284-3.811 15.448-5.706 7.94-2.913 15.819-6.038 23.857-8.706 2.195-.725 4.338-2.095 6.853-1.837 1.097.643 2.12.815 3.342.105 5.028-2.903 10.38-5.229 15.754-7.474.804-.343 1.955-.297 2.158-1.488-.21-.583-.76-.823-1.163-.708-5.661 1.534-10.875 4.102-16.047 6.741-1.51-1.752-3.52-2.866-5.297-4.262-6.391-5.033-12.944-9.863-19.355-14.852-5.755-4.482-11.329-9.212-17.552-13.094 1.675-1.663 2.027-3.885 2.524-6.045.595-2.645-.23-4.905-2.081-6.845-1.612-1.688-3.702-2.619-5.813-3.503-1.088-.454-2.474-.691-2.993-1.849-1.767-3.933-5.257-5.709-8.93-7.33.362-.444.771-.871 1.109-1.345 1.206-1.701 3.062-2.921 3.797-4.993.987-2.821.415-4.111-2.476-5.045-1.467-.474-2.985-.841-4.48-1.259-1.824-3.587-2.636-7.704-5.227-10.863-2.665-3.244-2.997-6.112-.025-9.129 1.798-1.426 3.567-2.882 5.68-3.881 1.288-.605 2.69-1.603 3.934.202-2.371 2.617-4.454 5.473-5.491 8.878-.822 2.744-.546 5.478 1.461 8.015.899-1.855.998-1.864.729-4.067-.378-3.106.229-5.818 2.45-8.102.546-.564.822-1.413 1.229-2.131 2.729-.581 5.29-2.099 8.252-1.243-2.524 1.856-5.046 3.755-7.603 5.565-.994.696-1.627 1.336-.462 2.465 1.287-.169 1.962-1.247 2.932-1.849 2.467-1.518 4.407-3.96 7.615-4.188-.204 1.372-1.36 1.8-2.343 2.469-1.513 1.038-3.009 2.121-4.032 3.523.478.829.978 1.011 1.411.744a559.471 559.471 0 0 0 9.18-5.975c.238-.17.275-.63.421-.966 2.733 1.757 2.856 3.182.295 4.53-1.889 1.004-3.866 1.861-5.832 2.738-1.415.642-2.867 1.2-3.942 2.554-.592 3.196 1.667 5.532 3.105 8.043 1.243 2.147 2.724 4.221 4.516 6.043 1.626 1.657 2.98 3.671 3.253 5.912.414 3.36 2.432 5.353 4.983 7.066 2.494 1.672 5.03 3.326 7.682 4.721 7.461 3.946 14.268 8.923 21.532 13.151 6.255 3.638 12.065 7.91 18.033 11.952 7.869 5.314 15.526 10.988 22.703 17.171 3.15 2.725 6.549 5.227 9.353 8.406 2.038 2.333 3.093 4.781 3.028 7.75-.338.822-.671 1.624-.995 2.451-3.036 2.606-6.12 5.155-9.367 7.519-5.504 3.995-11.583 7.009-17.484 10.282-5.283 2.941-10.843 5.395-16.29 8.063-8.967 4.421-18.088 8.554-26.841 13.343-6.588 3.615-13.289 6.979-20.242 9.773-6.524 2.618-12.777 5.774-19.182 8.63-5.504 2.458-9.81 6.611-14.302 10.463 1.084-2.231.943-4.559.617-6.969-.239-1.839-1.298-3.305-1.872-4.979-1.691-4.958-4.833-9.03-8.233-12.889-2.694-3.054-5.588-5.941-8.784-8.525-2.408-1.945-4.278-4.495-6.778-6.408-2.974-2.281-5.909-4.601-9.709-5.326-5.763-1.088-11.403-2.76-17.246-3.411 2.901-2.516 6.342-3.957 9.989-5.106 2.768-.879 5.621-1.096 8.429-1.642.978-.196 1.851-.529 1.557-2.299-7.126.161-13.608 2.213-19.701 5.805-.06-7.973-.338-13.484-4.33-14.93.528 3.062 1.629 5.79 1.674 8.677.053 3.001-.129 5.899-.948 8.757-1.328-.16-2.179-1.152-2.88-2.022-5.952-7.456-13.626-12.791-21.773-17.512a16.72 16.72 0 0 0-5.766-2.074c-3.423-.56-6.793-1.412-10.206-2.13.544-1.501 1.693-2.477 2.885-3.494 3.743-3.21 7.834-5.973 12.053-8.813-1.417-1.493-2.61-.719-3.637-.033-2.831 1.929-5.834 3.686-8.299 6.012-2.341 2.211-5.572 3.764-6.503 7.267-2.341 1.097-3.885 3.054-5.295 5.054-5.406 7.656-8.77 16.4-13.051 24.636-2.044 3.877-2.517 8.387-4.695 12.222zm-171.308 86.138c-.101-.153-.186-.299-.288-.452-.163.167-.147.339.092.516-.009.323-.02.649-.054.981l.498-.114c-.079-.289-.158-.618-.248-.931zm274.676-181.546c-1.935.637-3.58-1.484-6.189-.96 2.296 1.949 4.594 2.403 6.508 3.568-.078.603-.014 1.144.501 1.586 2.996 2.605 6.313 4.014 10.426 3.379 2.738-.432 4.646-1.557 5.443-4.243.723-1.875 3.372-1.197 4.191-3.03-.639-1.231-1.647-1.267-2.724-.805-.868.368-1.53 1.161-2.585 1.1-2.426-1.348-5.051-2.165-7.765-2.562-2.806-.4-5.584-.131-7.806 1.967zM176.925 334.027c-.914-1.403-1.809-1.188-2.74-.335-4.146 3.784-7.501 8.151-9.854 13.245a6.7 6.7 0 0 0-.489 1.34c-.286 1.335-.103 2.585 1.002 3.595 1.129 1.041 2.224.494 3.349.052 1.009-.399 1.928-.837 2.685-1.677 4.926-5.49 11.178-8.977 17.936-11.876 4.209-1.8 7.701-4.679 9.382-9.175.242-.64.602-1.343-.363-1.856-1.316.067-1.671 1.135-2.092 2.101-.937 2.15-2.541 3.697-4.521 4.863-1.744 1.011-3.525 1.974-5.363 2.814-5.18 2.402-10.216 4.938-14.219 9.168-1.34 1.404-2.858 3.01-5.27 3.289-.323-2.041.409-3.674 1.555-4.727 1.595-1.48 2.808-3.234 3.977-4.972 1.476-2.152 3.678-3.656 5.025-5.849zm308.091-69.496c-.66.354-.786 1.029-.733 1.766.08 1.185-.082 2.32-.33 3.491-1.03 4.921-3.34 9.323-5.595 13.73-.462.892-1.025 1.579.337 2.519 4.597-5.979 6.889-12.726 7.591-20.109.074-.811-.219-1.374-1.27-1.397zm-173.975 19.887c-.051-2.362-1.936-5.047-5.036-7.585-.715-.586-1.358-1.544-2.505-.196 2.076 2.841 4.054 5.821 7.541 7.781zm-150.027 75.467c2.422-1.538 2.965-4.15 1.445-5.966-1.369 1.65-1.691 3.503-1.445 5.966zm16.376-8.26c-1.339 4.403-1.216 4.969 1.207 6.041.445-2.218-.259-4.151-1.207-6.041zm327.599-219.548c-.298.73-.597 1.454-.881 2.19 1.516.588 2.562-.453 3.741-1.016-.723-.993-1.602-1.541-2.86-1.174zm-2.351-.077c.382.151.747.088 1.057-.161-.391-.206-.741-.177-1.057.161zm-.949.3c.421.184.743.05.979-.323-.403-.103-.757-.056-.979.323zm-15.62 22.201c-6.093.176-11.928 1.214-17.038 4.647-1.425.968-2.791-.172-4.186.038.186-1.032.517-2.13-1.038-2.534-.814.67-.978 1.603-1.204 2.509-1.177.217-2.375.316-3.488.69-1.069.357-1.9.048-2.667-.541-6.074-4.694-13.11-5.259-20.347-4.852-1.758.109-3.51.535-5.27.808 2.825-3.867 4.256-8.395 6.264-12.651 1.492-3.17 2.763-3.782 6.228-2.969 2.332.545 4.666 1.049 6.973 1.652 4.14 1.095 8.051.367 11.958-1.032 2.318-.837 4.54-2.132 7.131-2.172 4.871-.071 8.803 1.68 11.506 5.855 2.18 3.327 4.244 6.675 5.178 10.552zm-32.098-5.279c-2.697-1.886-5.457-2.432-8.273-2.292-2.608.126-5.257.524-7.258 2.464-.677.657-1.311 1.385-.398 2.404.378-.093.784-.082 1.046-.258 3.47-2.489 7.187-2.821 11.17-1.234 1.208.474 2.325.392 3.713-1.084zm26.802 1.619c-1.191-3.077-4.247-4.264-8.027-3.629-2.776.472-4.181 1.687-4.328 3.995 4.021-2.519 8.115-2.344 12.355-.366z"/><path fill="#FCE1D8" d="M350.326 274.487c2.178-3.835 2.652-8.345 4.668-12.198 4.284-8.25 7.653-16.996 13.051-24.635 1.403-1.983 2.937-3.965 5.292-5.056 1.602 1.154 2.23-.964 3.487-.945 3.388.727 6.783 1.57 10.207 2.13a16.787 16.787 0 0 1 5.765 2.074c8.158 4.743 15.838 10.063 21.773 17.512.701.871 1.552 1.863 2.88 2.022.947.941 2.052 1.226 3.323.755 5.844.647 11.484 2.319 17.247 3.408 3.8.724 6.736 3.045 9.708 5.329 2.494 1.927 4.37 4.463 6.778 6.408 3.214 2.588 6.108 5.475 8.78 8.524 3.397 3.873 6.545 7.933 8.237 12.89.574 1.674 1.615 3.133 1.871 4.979.327 2.41.475 4.721-.614 6.965-1.233 3.299-4.224 5.029-6.74 7.132-5.378 4.469-11.121 8.504-16.325 13.179-3.789 3.391-7.95 6.398-11.972 9.522-3.205 2.475-6.004 5.35-8.889 8.167-2.079 2.034-2.852 4.711-2.702 7.479.406 7.229.722 14.455 1.976 21.613 1.41 7.962 2.921 15.946 1.068 23.998-.72 3.103-1.329 6.254-2.741 9.144-2.999 6.201-4.417 13.038-7.59 19.126-2.985 5.734-5.827 11.527-10.243 16.488-3.536 3.961-6.607 8.319-10.963 11.519-5.281 3.87-11.164 5.783-17.817 5.151-.693-.069-1.378-.384-2.067-.595 1.158-1.375 2.713-2.121 4.419-2.62 2.669.159 5.227-.626 7.737-1.214 3.297-.773 6.375-2.316 7.7-5.704 1.618-4.172 3.266-8.388 2.564-13.059.261-7.559.395-15.044-2.79-22.299-1.852-4.26-3.481-8.549-6.35-12.305-6.236-8.125-14.703-12.199-24.636-13.463-6.796-.861-13.628-1.298-20.464-.7-10.353.897-20.336 3.12-29.545 7.965-.724.378-1.55.567-2.321.836-2.229-.48-4.021.857-6.031 1.28-6.694-2.717-13.539-4.66-20.821-4.785-3.091-.049-6.134-.5-9.29-.27-5.962.435-11.388 2.289-16.644 4.859-.824.097-1.634.199-2.403.304-1.119-.98-.632-1.974-.279-2.99 1.559-4.69 2.854-9.499 4.714-14.058 1.83-4.463 3.83-8.964 6.501-12.951 2.959-4.391 5.534-9.025 8.628-13.34 4.829-6.718 10.136-13.046 15.96-18.926 3.475-3.528 6.78-7.223 10.576-10.461 4.928-4.21 9.681-8.625 14.814-12.616 5.515-4.285 11.045-8.595 16.155-13.31 4.512-4.153 8.548-8.844 11.044-14.57 1.109-2.546 3.395-4.619 3.314-7.688zm102.119 9.772c-.486-.119-.831-.31-.926-.222-2.726 2.668-6.604 3.66-9.353 6.335-1.418 1.375-3.179 2.378-5.052 3.26-3.21 1.505-6.368 3.109-9.018 5.641-2.369 2.276-4.838 4.524-7.67 6.323-3.517 2.21-7.133 4.309-9.775 7.595-1.263 1.567-2.7 2.95-4.253 4.286-1.231 1.069-2.492 2.254-3.089 3.841-.999 2.594-2.704 4.703-4.54 6.735-2.167 2.416-3.871 5.126-4.555 8.318-.65 3.113-2.145 5.769-4.123 8.175-1.556 1.899-2.422 3.97-2.716 6.4-.3 2.479-.859 4.959-2.16 7.095-1.581 2.598-2.262 5.444-2.658 8.398-.369 2.723-1.064 5.309-2.568 7.683-1.009 1.589-1.638 3.417-2.425 5.139-.295.638-.602 1.38.147 1.924.902.668 1.568.083 2.145-.561.322-.352.651-.721.853-1.145 1.522-3.19 3.596-6.194 4.08-9.784.594-4.4 1.823-8.54 3.936-12.444.669-1.241.928-2.646 1.114-4.101.376-2.995 1.53-5.687 3.548-8.007 2.004-2.285 3.14-5.061 3.717-7.969.37-1.831 1.072-3.316 2.212-4.735 2.738-3.414 5.884-6.536 7.356-10.809.223-.633.734-1.249 1.286-1.666 2.302-1.735 4.117-3.889 5.95-6.084 1.263-1.53 2.813-2.993 4.545-3.936 4.331-2.372 8.023-5.455 11.368-8.987 1.398-1.452 3.223-2.395 5.034-3.304 1.916-.972 3.98-1.698 5.705-2.919 3.647-2.593 7.084-5.48 10.92-7.826.748-.48 1.268-1.419.965-2.649zm-88.315 74.509c-16.988 7.739-33.146 16.186-46.365 29.844 2.233.518 3.414-.484 4.389-1.391 4.164-3.921 8.82-7.208 13.532-10.414 5.197-3.544 10.636-6.712 16.358-9.406 3.555-1.665 7.031-3.49 10.53-5.272 1.019-.545 2.327-.943 1.556-3.361zm46.342 9.17c1.869-2.618 2.072-5.346 1.415-7.387-.542-1.661-2.008-.089-2.324-.61-.998-2.153-.617-4.178-1.717-5.88-2.002.66-.88 1.972-.909 2.981-.029 1.302.01 2.618-.122 3.912-.121 1.21-.206 2.302.766 2.855 1.595.094.951-1.796 2.239-1.638.792 1.645.065 3.482.652 5.767zm-44.971-90.107c3.32-2.571.576-6.067 1.601-8.928-.804-.334-1.355-.135-1.477.268-.881 2.794-.326 5.707-.124 8.66zm-1.569-12.501c-1.735.083-2.01 1.186-2.026 2.203-.043 2.192-.944 4.43.253 6.815 1.512-2.1 1.903-4.196 1.773-9.018zm126.76-98.107c-.384.288-.772.575-1.157.863-2.151.962-4.319 1.917-6.737 2.126-2.815.564-5.571.217-8.291-.674-2.931-1.992-6.516-3.171-8.378-6.504-.994-.926-2.05-.381-3.096-.16-2.354-.881-4.36-.42-6.283 1.17-2.635 2.196-5.835 3.52-9.004 4.809-4.243 1.309-8.578 1.775-13.015 1.011a31.213 31.213 0 0 1-8.498-4.472c-.976-1.175-2.214-2.098-2.966-3.487-1.251-2.26-.962-3.433 1.363-4.372 2.034-.816 4.132-1.527 6.196-2.289 1.76-.274 3.49-.706 5.27-.809 7.24-.422 14.269.157 20.344 4.851.765.592 1.594.917 2.67.543 1.113-.375 2.325-.467 3.484-.692.754.11 1.49.468 2.235.042 1.381-.217 2.747.923 4.19-.037 5.117-3.449 10.953-4.488 17.037-4.647.863.029 1.717.034 2.58.063 1.492.417 3.009.784 4.479 1.259 2.888.932 3.477 2.23 2.476 5.045-.738 2.071-2.591 3.293-3.797 4.994-.324.479-.715.914-1.102 1.367zM99.772 567.267c-2.633-5.496-5.586-10.766-10.733-14.635-3.562-2.687-7.378-3.072-11.265-2.229-2.775.602-4.918 2.48-6.252 5.372-2.258 4.877-2.141 9.862-1.3 14.94 1.011 6.142 2.927 12.036 5.25 17.817 2.529 6.331 5.329 12.517 9.763 17.851 1.38-1.883 2.893-3.692 4.1-5.688 4.749-7.866 10.824-14.444 18.793-19.227-3.39-4.399-5.98-9.22-8.356-14.201zM73.65 560.72c.037-1.537-.05-3.309 1.562-4.309 1.261.606.81 1.507.69 2.257-1.01 6.503.418 12.717 2.292 18.924 1.693 5.595 4.2 10.871 6.897 16.049.774 1.471.746 1.495-.546 3.215-6.5-11.402-11.18-23.052-10.895-36.136zm45.656 67.476c.589.055 1.24-.024 1.762.183 7.704 2.919 16.094-2.868 17.38-10.343.317-3.077-.29-5.92-2.241-8.452-1.651-1.467-2.838-3.392-4.764-4.579-5.258 3.263-9.856 7.358-14.404 11.423-2.436 2.174-5.472 3.754-7.337 6.54 2.952 2.199 6.279 3.706 9.604 5.228zm-5.023-5.954c2.143-.086 8.247 1.55 10.014 2.703-2.738 1.111-7.182-.097-10.014-2.703zm62.996-36.039c.931-6.662.001-13.281-1.066-19.813-.968-5.937-2.455-11.882-6.083-16.973-2.205-3.1-4.941-5.588-8.834-6.389-7.584-1.572-15.769 3.792-17.261 11.307-1.184 6.007-.212 12.022.296 18.033.627 7.325 1.524 14.622.611 21.97 4.44-.913 8.712-2.431 13.284-2.959 6.076-.696 12.16-1.238 18.295-1.38.411-1.245.584-2.501.758-3.796zm-7.324-22.029c-.994-6.351-3.971-11.999-6.901-17.532.76-.507 1.211-.513 1.411-.244 3.449 4.517 5.82 9.501 7.159 15.014 1.561 6.417 1.596 12.919 1.873 19.414.047 1.175.198 2.499-2.253 2.564-.54-6.541-.314-12.909-1.289-19.216zm-9.809 72.563c6.786-1.975 11.722-6.508 14.027-13.378-2.771-.094-5.436.68-8.128 1.044-5.778.785-11.482 2.118-17.357 2.353-.834.036-1.702-.068-2.281.704.269 7.371 6.724 11.315 13.739 9.277zm-5.41-3.181c-.574-1.033.128-1.275.906-1.267 4.201.06 7.635-1.367 10.128-4.775.612-.846 1.519-1.475 2.962-1.758-1.063 5.438-7.344 8.82-13.996 7.8zm-41.226-43.457c4.033 1.557 8.582 6.243 9.568 9.488-3.056-.037-3.22-3.158-5.013-4.432-1.823-1.287-3.703-2.784-4.555-5.056zm-1.482-5.487c3.202 1.541 6.067 3.468 7.846 6.563-2.627-.378-5.807-3.08-7.846-6.563zm32.098 21.21a795.083 795.083 0 0 1 2.797 11.777c-2.808-1.716-4.009-6.734-2.797-11.777zm-3.36 5.914c-1.983-3.147-2.356-6.433-1.053-9.846.806 3.236 1.549 6.484 1.053 9.846z"/><path fill="#DE5A75" d="M84.561 596.863c-6.518-11.411-11.197-23.06-10.912-36.144.037-1.537-.05-3.309 1.562-4.309 1.261.606.811 1.507.69 2.257-1.01 6.503.418 12.717 2.293 18.924 1.692 5.595 4.199 10.871 6.896 16.049.774 1.471.746 1.495-.529 3.223zm29.721 25.378c2.832 2.606 7.276 3.814 10.014 2.703-1.767-1.153-7.888-2.797-10.014-2.703zm59.207-41.399c-.276-6.498-.313-12.997-1.874-19.414-1.336-5.517-3.702-10.514-7.159-15.014-.198-.272-.648-.267-1.41.244 2.929 5.533 5.895 11.171 6.901 17.532.996 6.296.773 12.665 1.283 19.23 2.464-.096 2.307-1.407 2.259-2.578zm-7.714 46.658c-2.499 3.421-5.926 4.831-10.128 4.774-.79-.017-1.492.225-.906 1.267 6.654 1.017 12.927-2.348 14.021-7.809-1.468.292-2.361.927-2.987 1.768zm-42.698-27.914c-3.055-.037-3.22-3.158-5.013-4.432-1.83-1.31-3.71-2.807-4.555-5.056 4.026 1.574 8.582 6.243 9.568 9.488zm-3.204-8.412c-2.626-.378-5.793-3.074-7.845-6.563 3.201 1.541 6.06 3.481 7.845 6.563zm27.049 26.424c-2.808-1.716-4.009-6.734-2.797-11.777a795.083 795.083 0 0 1 2.797 11.777zm-7.202-15.726c.798 3.252 1.541 6.501 1.051 9.85-1.989-3.135-2.344-6.412-1.051-9.85zm66.639 190.86.304.076c2.619-2.255 4.478-5.189 6.453-7.926 1.687-2.334 3.459-4.814 4.398-7.656.322-.993.542-1.886-.945-2.058-.204.129-.499.202-.6.396a315.87 315.87 0 0 1-8.161 13.249c-.727 1.111-1.944 2.15-1.695 3.755l.246.164zm-12.913-17.067c2.813-2.227 4.865-5.096 6.844-8.013.673-.986 1.351-1.949 2.205-2.747.748-.698 1.521-.414 2.152.317.356 1.015-.436 1.509-.941 2.112-2.69 3.265-4.922 6.895-8.192 9.689-.33.296-.461.803-.68 1.22-1.038-.561-1.648-1.34-1.388-2.578zm5.968 10.275c2.518-3.945 5.07-7.875 7.566-11.846.603-.959.882-2.193 2.708-2.071-.004 3.432-2.727 5.407-3.985 8.038-1.301 2.72-3.238 5.164-4.893 7.714-.708-.422-1.358-.903-1.396-1.835zM503.25 328.349c-4.384 4.717-7.526 9.87-11.034 14.756-7.167 9.99-14.62 19.784-21.733 29.819-6.031 8.497-11.852 17.142-17.557 25.87-3.625 5.544-7.017 11.23-10.728 16.716-8.478 12.562-16.148 25.589-23.647 38.727-5.519 9.669-10.686 19.475-15.153 29.674-3.615 8.255-7.599 16.326-11.404 24.499-.545 1.166-1.303 2.3-1.018 3.703.052.22.051.478-.011.705-.431 1.458-2.248 2.768-3.181 2.212-1.336-.821-1-2.187-.581-3.194 1.861-4.486 3.84-8.94 5.846-13.363 1.169-2.597 2.455-5.122 3.655-7.705 2.774-6.024 5.235-12.225 8.372-18.054 6.168-11.451 11.915-23.143 18.861-34.162 3.728-5.902 7.086-12.019 10.9-17.863 7.175-10.996 14.279-22.039 21.657-32.89a641.152 641.152 0 0 1 18.154-25.409c5.609-7.491 11.29-14.918 16.899-22.409 2.549-3.403 4.929-6.948 7.633-10.247.894-1.107 1.759-2.667 4.07-1.385zM270.083 682.361c10.41 1.032 20.58.386 30.781.433 10.451.041 20.885-.267 31.332-.264 3.594-.002 7.205.382 10.801.727 9.216.855 18.42 1.746 27.613 3.087 9.701 1.413 19.046 4.027 28.408 6.736a10.5 10.5 0 0 1 2.933 1.392c.967.639.958 1.603.302 2.504-.605.833-1.331.791-2.2.303-4.035-2.271-8.524-3.167-12.96-4.189-1.638-.384-3.257-.856-4.909-1.208-11.196-2.433-22.522-3.881-33.935-4.657-6.963-.477-13.905-1.257-20.908-1.256-6.833-.001-13.681-.139-20.524.005-3.119.064-6.244-.201-9.364-.174-8.523.065-17.06.51-25.547-1.216-1.202-.27-2.135-.31-1.823-2.223zm143.968-156.025c-1.181-1.866-.361-3.445.226-4.924a723.141 723.141 0 0 1 15.618-36.636c2.402-5.254 5.008-10.46 8.164-15.349.51-.783.838-1.753 2.033-1.288.602.666.218 1.208-.035 1.703-1.897 3.796-3.447 7.776-5.932 11.296-.602.871-.989 1.892-1.41 2.858-2.721 6.193-5.629 12.308-8.06 18.61-2.798 7.276-5.933 14.422-8.148 21.896-.366 1.265-1.013 1.769-2.456 1.834zm-80.003 128.101c-4.292 3.188-29.382 8.875-40.655 9.06-2.7.045-5.567.679-8.188-.355.079-1.172.447-1.544 1.147-1.565 11.681-.225 22.975-2.591 34.22-5.362 3.695-.911 7.496-1.388 10.91-3.191 1.188-.632 2.058-.108 2.566 1.413zm7.889-179.235c-1.261-.824-1.135-2.047-.802-3.197 2.401-8.289 1.361-16.581-.093-24.904-.246-1.406-1.111-3.006.55-4.383 1.433 1.411 1.627 3.23 1.891 4.935.783 4.908 1.697 9.821 1.357 14.825-.016.339.188.682.299 1.021-.677 3.271-1.374 6.53-1.984 9.806-.177.839-.284 1.595-1.218 1.897zm-22.971 134.294c-1.203-.193-1.921-.894-2.196-2.054-1.244-5.182-2.114-10.402-2.307-15.731-.014-.478.181-.926.831-1.134.214.15.67.292.732.537 1.48 5.962 2.266 12.025 3.263 18.067-.092.125-.2.24-.323.315zm107.283-444.097c-.05.926.374 1.877-.22 2.938-1.645-.282-3.18-1.298-5.1-.562-3.373 1.285-4.208 4.229-4.619 7.048-.779 5.287.667 10.174 4.95 13.848 2.371 2.039 5.367 2.175 8.192 1.506 3.718-.88 3.668-1.067 6.301 2.675-2.606 5.129-3.223 11.109-5.641 16.485-3.24 1.367-6.441 1.231-9.656-.28-2.609-1.23-5.389-1.909-8.223-2.415a38.673 38.673 0 0 1-8.571-2.551c-.747-.89-1.459-1.822-2.709-2.076-2.827-2.439-4.591-5.269-4.629-9.199-.058-4.866-1.966-8.986-6.676-11.386-2.94-1.5-4.346-4.085-4.88-7.134-.609-3.517 1.582-6.834 5.062-7.895.576-.169 1.154-.429 1.73-.468 4.534-.271 5.864-3.455 6.722-7.083.137-.577.141-1.181.295-1.751 1.892-7.453 5.684-9.492 13.729-7.61 1.281.304 2.395 1.173 3.764 1.241.47.024.947-.042 1.367-.061 1.075-.722 1.315-1.783 1.335-2.855.116-5.775 2.132-10.653 6.931-14.06 2.127-1.501 2.362-3.371 1.735-5.565-1.619-5.765 2.668-13.505 9.918-14.968 8.308-1.675 16.538-3.803 25.158-3.882 7.441-.064 12.719 3.459 16.313 9.484 2.058 3.438 3.916 7.08 4.563 11.199.255 1.592-.252 3.049.016 4.574-2.972 3.017-2.618 5.874.026 9.128 2.575 3.148 3.386 7.266 5.209 10.856-.863-.029-1.716-.034-2.579-.063-.932-3.88-2.996-7.228-5.147-10.538-2.702-4.176-6.635-5.926-11.504-5.859-2.588.042-4.807 1.322-7.131 2.172-3.909 1.403-7.812 2.113-11.96 1.035-2.306-.605-4.653-1.116-6.973-1.652-3.471-.799-4.758-.194-6.227 2.966-2.009 4.26-3.446 8.801-6.26 12.653-2.067.761-4.16 1.459-6.195 2.29-2.329.937-2.615 2.111-1.367 4.37.751 1.352 1.982 2.292 2.951 3.445zm67.14-31.914c-.408.718-.676 1.55-1.23 2.131-2.231 2.299-2.835 5.013-2.45 8.102.269 2.203.17 2.212-.729 4.067-1.989-2.529-2.293-5.256-1.46-8.015 1.036-3.405 3.112-6.244 5.49-8.878 1.151.736.63 1.678.379 2.593zm10.743.775c-3.211.226-5.151 2.668-7.618 4.186-.97.602-1.638 1.663-2.927 1.847-1.165-1.129-.534-1.766.458-2.467 2.56-1.805 5.064-3.711 7.603-5.565l.053.059c.421.184.739.049.974-.321l-.019.008c.382.15.743.086 1.056-.161.431.079.847.151 1.278.23-.298.73-.597 1.454-.881 2.19l.023-.006zm4.618-.218c-.123.33-.163.808-.423.97a546.62 546.62 0 0 1-9.174 5.973c-.419.273-.928.071-1.411-.744 1.014-1.382 2.517-2.482 4.03-3.52.983-.669 2.143-1.115 2.343-2.469l-.02.008c1.512.587 2.562-.453 3.737-1.017.31.28.622.545.918.799zM215.052 478.75c6.927-14.004 14.569-27.262 24.479-39.147 1.264.733.858 1.363.453 1.952-2.997 4.394-6.045 8.746-8.969 13.188-3.44 5.241-6.272 10.84-9.269 16.348-1.306 2.391-2.618 4.76-3.907 7.16-.45.824-1.026 1.287-2.787.499zm92.981-83.456c2.016-.437 3.825-1.766 6.034-1.279-1.315 1.782-3.335 2.604-5.14 3.754-5.56 3.531-10.76 7.601-13.455 13.7-2.011 4.566-1.968 9.72-1.964 14.672.002 6.266.452 12.545.526 18.827.067 6.165.764 12.299 1.305 18.452.623 7.324 1.672 14.615 2.58 21.934.705 5.769 1.444 11.554 2.21 17.314.817 6.076.579 12.129-.363 18.092-.426 2.646-1.464 5.28-2.545 7.714-1.988 4.523-2.12 9.181-2.046 13.926.048 2.832.319 5.673.332 8.511-.004.858.322 1.948-.608 2.676-.866.317-1.476-.075-1.557-.917-.661-7.029-2.665-13.966-.584-21.136.954-3.291 2.257-6.451 3.159-9.765 1.832-6.673 1.35-13.349.632-20.077-.834-7.783-2.242-15.484-2.936-23.295-.473-5.321-1.447-10.603-1.791-15.925-.395-6.272-.939-12.54-1.106-18.826-.18-6.509-.114-13.019-.257-19.528-.1-4.175.673-8.296 1.729-12.257 1.307-4.836 5.055-8.172 8.709-11.384 2.177-1.919 4.733-3.472 7.136-5.183zm92.153 38.697c.702 4.671-.947 8.887-2.564 13.059-1.31 3.39-4.403 4.93-7.7 5.704-2.509.584-5.067 1.369-7.736 1.21.385-2.204 2.309-3.156 3.804-4.369 5.352-4.371 9.797-9.522 13.603-15.225.128-.162.389-.25.593-.379zm-95.63 158.827c1.504.53 1.548 1.881 1.825 2.954 1.364 5.415 2.603 10.853 3.885 16.289.022.119.081.238.073.343.008 1.008.664 2.408-.877 2.651-1.478.231-1.564-1.194-1.792-2.209a1576.8 1576.8 0 0 1-3.546-16.727c-.22-1.08-.668-2.316.432-3.301zm19.895 7.596c-1.566-5.378-2.934-10.614-3.225-16.53 2.157.956 2.333 2.514 2.68 3.726.976 3.403 1.695 6.875 2.564 10.304.343 1.392.104 2.328-2.019 2.5zm-44.743-50.178c.709 2.609-.802 3.762-1.968 4.258-2.619 1.141-4.916 2.863-7.591 3.831-.335.128-.671.256-1.018.327-.51.104-.943-.101-1.193-.557-.34-.624-.184-1.161.399-1.508 1.109-.666 2.337-1.172 3.518-1.702 2.659-1.197 4.884-3.131 7.853-4.649zm-38.754 171.733c1.024-2.99 2.422-5.725 2.245-8.743 1.619-.206 2.155.612 1.951 1.419-.623 2.504-.783 5.173-2.176 7.434-.49.775-1.119.812-2.02-.11zm68.504-274.315c-.293.84-.746 1.191-1.199.994-2.225-1.007-3.793-2.88-5.542-4.462-.611-.56-1.21-1.241-.241-2.352 2.446 1.869 5.338 3.223 6.982 5.82zm198.534-254.877c-2.032 1.926-2.391 4.238-1.525 6.827 2.52 7.508-1.999 15.092-9.913 15.901-4.761.499-8.594 2.245-12.251 5.164-2.915 2.328-6.35 4.01-10.265 4.748-3.306.624-6.218-.262-9.018-1.572a334.961 334.961 0 0 1-5.209-2.492c-.497-4.235.811-8.143 2.077-12.065.345-1.092 1.068-2.072 1.032-3.697-6.508.196-11.996-2.636-17.42-5.492-1.438-.757-2.714-2.188-4.043-4.393 2.624.724 4.321 1.661 5.99 2.7 3.507 2.17 7.195 3.83 11.284 4.665 5.424 1.102 10.054-.293 14.419-3.469 7.736-5.616 12.243-13.389 15.15-22.151.965-2.94 1.725-6.135 1.257-9.372.385-.288.771-.58 1.159-.867 3.669 1.62 7.159 3.396 8.927 7.329.522 1.16 1.907 1.396 2.993 1.849 2.11.884 4.2 1.816 5.812 3.503 1.855 1.942 2.682 4.186 2.082 6.845-.517 2.167-.864 4.376-2.538 6.039zM176.926 334.026c-1.364 2.185-3.549 3.698-4.999 5.825-1.182 1.732-2.371 3.477-3.973 4.973-1.132 1.059-1.878 2.687-1.558 4.726 2.429-.272 3.947-1.877 5.27-3.29 4.006-4.228 9.039-6.766 14.222-9.166 1.838-.84 3.615-1.804 5.36-2.815 1.98-1.166 3.587-2.712 4.524-4.861.421-.967.776-2.034 2.089-2.103.968.514.591 1.209.362 1.856-1.678 4.492-5.168 7.376-9.381 9.174-6.758 2.9-13.007 6.388-17.933 11.878-.757.84-1.676 1.278-2.688 1.676-1.122.443-2.22.989-3.349-.052-1.106-1.01-1.291-2.245-1.001-3.599.087-.454.281-.898.492-1.335 2.35-5.099 5.707-9.461 9.853-13.245.9-.83 1.796-1.045 2.71.358zm243.845-77.881c-1.271.47-2.37.173-3.323-.755.819-2.858 1.008-5.773.948-8.757-.045-2.887-1.146-5.615-1.674-8.677 3.975 1.438 4.27 6.957 4.33 14.931 6.092-3.59 12.568-5.628 19.702-5.806.307 1.776-.58 2.104-1.561 2.297-2.808.547-5.66.768-8.426 1.644-3.671 1.159-7.095 2.607-9.996 5.123zm48.511-76.464c1.055.061 1.717-.732 2.584-1.1 1.078-.462 2.086-.426 2.722.803-.816 1.835-3.465 1.156-4.188 3.032-1.067-.373-2.15-.115-3.233-.111-4.391.038-8.812.907-13.141-.613-1.914-1.165-4.208-1.617-6.508-3.568 2.613-.523 4.251 1.615 6.193.961 5.132 2.113 10.337 1.622 15.571.596zm76.866 48.126c.858-1.619 2.561-2.063 4.054-2.799 5.165-2.662 10.391-5.209 16.05-6.74.405-.118.951.12 1.161.704-.196 1.177-1.355 1.148-2.155 1.493-5.373 2.241-10.705 4.559-15.758 7.472-1.246.679-2.251.515-3.352-.13zm-169.317 3.828c-1.259-.016-1.893 2.116-3.489.948.925-3.489 4.156-5.042 6.504-7.27 2.45-2.328 5.468-4.083 8.301-6.007 1.031-.704 2.22-1.46 3.634.031-4.214 2.839-8.317 5.581-12.053 8.813-1.204 1.008-2.355 1.987-2.897 3.485zm108.185 32.895c1.073.012 1.362.594 1.288 1.405-.706 7.381-2.994 14.129-7.594 20.107-1.359-.939-.8-1.627-.337-2.519 2.24-4.412 4.55-8.815 5.595-13.73.251-1.169.409-2.306.329-3.491-.08-.749.06-1.418.719-1.772zm-21.953-101.643c1.047-.222 2.102-.766 3.097.159-.632.383-1.112.795-.988 1.672.24 1.75.327 3.523.567 5.273.569 3.863.034 4.582-4.027 5.22-.097-.203-.344-.533-.286-.58 2.075-2.073 2.015-4.491 1.447-7.168-.316-1.453.103-3.045.19-4.576zM311.042 284.418c-3.488-1.961-5.454-4.92-7.534-7.799 1.146-1.344 1.79-.39 2.505.196 3.099 2.541 4.983 5.227 5.029 7.603zm-141.449 77.745c-.036-1.625-.228-3.278-.05-4.883.132-1.237.537-2.505 1.603-3.376 1.12.251.758 1.045.679 1.688-.206 1.972-.448 3.932-.686 5.894-.066.536-.479.759-.945.883a4.21 4.21 0 0 0-.601-.206zm-8.578-2.279c-.246-2.463.096-4.323 1.445-5.966 1.519 1.816.977 4.428-1.445 5.966zm16.376-8.26c.948 1.89 1.651 3.823 1.206 6.041-2.428-1.059-2.552-1.625-1.206-6.041zm275.054-67.366c.296 1.243-.218 2.168-.983 2.642-3.836 2.346-7.256 5.24-10.917 7.827-1.725 1.221-3.812 1.953-5.705 2.919-1.797.915-3.64 1.851-5.034 3.304-3.368 3.538-7.054 6.607-11.368 8.986-1.735.943-3.268 2.412-4.549 3.936-1.829 2.196-3.643 4.35-5.946 6.085-.555.415-1.067 1.032-1.286 1.666-1.458 4.278-4.628 7.411-7.355 10.809-1.141 1.418-1.846 2.902-2.216 4.734-.577 2.907-1.72 5.661-3.714 7.97-2.018 2.32-3.175 5.01-3.548 8.007-.179 1.438-.445 2.86-1.117 4.1-2.113 3.903-3.356 8.037-3.936 12.444-.484 3.589-2.558 6.594-4.077 9.784-.205.423-.534.792-.853 1.145-.58.643-1.246 1.228-2.144.562-.75-.544-.429-1.28-.148-1.924.77-1.73 1.416-3.55 2.425-5.139 1.501-2.376 2.199-4.96 2.569-7.683.392-2.956 1.073-5.801 2.654-8.4 1.312-2.151 1.869-4.627 2.163-7.093.294-2.43 1.143-4.508 2.713-6.402 1.975-2.39 3.473-5.062 4.123-8.175.67-3.197 2.371-5.909 4.559-8.316 1.835-2.032 3.537-4.142 4.536-6.736.62-1.594 1.862-2.771 3.092-3.84 1.529-1.327 2.983-2.702 4.25-4.288 2.645-3.284 6.275-5.377 9.775-7.595 2.832-1.799 5.304-4.046 7.673-6.321 2.658-2.549 5.814-4.15 9.015-5.643 1.873-.882 3.634-1.885 5.052-3.26 2.766-2.667 6.627-3.667 9.356-6.333.109-.082.461.092.941.228zm-88.316 74.509c.771 2.418-.537 2.816-1.566 3.336-3.495 1.784-6.973 3.612-10.532 5.276-5.718 2.695-11.153 5.845-16.352 9.404-4.723 3.221-9.376 6.51-13.536 10.413-.979.925-2.158 1.912-4.387 1.395 13.227-13.638 29.385-22.085 46.373-29.824zm46.342 9.17c-.569-2.278.135-4.109-.646-5.78-1.274-.153-.65 1.745-2.238 1.634-.973-.549-.886-1.645-.767-2.852.134-1.297.07-2.604.122-3.912.023-.995-1.116-2.314.911-2.984 1.113 1.708.725 3.713 1.715 5.883.316.521 1.782-1.05 2.324.61.657 2.041.456 4.766-1.421 7.401zM365.5 277.829c-.202-2.952-.775-5.872.124-8.659.136-.397.674-.602 1.478-.268-1.026 2.861 1.732 6.363-1.602 8.927zm-1.569-12.5c.13 4.822-.254 6.901-1.773 9.018-1.197-2.385-.296-4.623-.253-6.815.016-1.017.278-2.126 2.026-2.203zm98.686-106.163c.23-.904.394-1.837 1.208-2.507 1.555.404 1.224 1.502 1.034 2.532-.758.42-1.501.076-2.242-.025zm-8.645-9.945c-1.388 1.476-2.511 1.572-3.727 1.078-3.983-1.587-7.704-1.257-11.174 1.232-.262.177-.668.165-1.043.26-.916-1.021-.282-1.749.395-2.406 2.009-1.956 4.654-2.336 7.259-2.463 2.833-.133 5.592.413 8.29 2.299zm26.802 1.619c-4.241-1.978-8.334-2.153-12.342.372.127-2.3 1.533-3.515 4.332-3.993 3.763-.643 6.818.544 8.01 3.621z"/></g><defs><clipPath id="a"><path fill="#fff" d="m306.45 0 364.857 159.062L364.857 862 0 702.939z"/></clipPath></defs></svg>